<?xml version="1.0" encoding="UTF-8"?>
<!DOCTYPE svg PUBLIC "-//W3C//DTD SVG 1.1//EN" "http://www.w3.org/Graphics/SVG/1.1/DTD/svg11.dtd">
<!-- Creator: CorelDRAW -->
<svg xmlns="http://www.w3.org/2000/svg" xml:space="preserve" width="8.5in" height="11in" version="1.1" style="shape-rendering:geometricPrecision; text-rendering:geometricPrecision; image-rendering:optimizeQuality; fill-rule:evenodd; clip-rule:evenodd"
viewBox="0 0 8500 11000"
 xmlns:xlink="http://www.w3.org/1999/xlink"
 xmlns:xodm="http://www.corel.com/coreldraw/odm/2003">
 <defs>
  <style type="text/css">
   <![CDATA[
    .fil0 {fill:#0D4157}
   ]]>
  </style>
 </defs>
 <g id="Layer_x0020_1">
  <metadata id="CorelCorpID_0Corel-Layer"/>
  <g id="_2614543538112">
   <path class="fil0" d="M4440.63 8208.46l2998.74 0 0 265.51 -2920.64 0c0,-96.55 2.91,-72.91 -36.35,-151.08 -24.37,-48.52 -24.21,-75.18 -41.75,-114.43zm-2717.61 -1889.83l206.8 -199.28c104.26,20.11 154.84,89.95 277.37,89.95 59.81,0 186.82,-105.45 387.3,-159.33 138.27,-37.16 188.65,-99.81 237.43,-309.22l296.75 0c32.41,61.26 49.92,127.07 75.78,189.74 54.07,131.04 156.09,88.8 366.86,195.4 201.94,102.14 194.8,123.47 447.61,-10.3l215.17 206.56c-17.54,89.48 -90.22,171.52 -90.22,262 0,43.39 110.12,240.74 158.13,388.51 77,236.98 104.25,142.75 310.43,251.84 -95.01,141.88 -718.45,758.44 -718.45,827.78 0,168.02 70.44,156.19 265.51,156.19 6.3,75.66 57.2,129 78.09,218.66l-206.8 199.28c-445.67,-193.48 -211.52,-51.13 -652.22,66.22 -227.58,60.59 -146.77,117.51 -249.88,312.38l-296.75 0c-91.33,-392.04 -197.16,-249.02 -500.63,-420.86 -25.96,-14.7 -92.76,-52.43 -128.53,-55.99 -49.65,-4.95 -214.15,77.18 -261.09,102.01l-215.18 -206.55c130.48,-317.26 137.71,-215.93 17.31,-454.6 -138,-273.58 -33.58,-363.41 -395.64,-447.76l0 -296.75c62.5,-29.99 221.89,-72.76 261.63,-113.2 35.6,-36.24 87.67,-275.61 162.98,-399.3 76.87,-126.26 73.88,-159.69 -49.76,-393.37zm6091.19 -1718.03l46.85 0 0 218.66c-190.96,0 -421.7,-42.53 -421.7,124.94 0,169.19 240.64,124.95 421.7,124.95l0 218.66c-346.32,0 -241.77,265.51 -93.71,265.51l93.71 0 0 218.66c-137.09,0 -306.98,-22.42 -371.76,34.32 -104.02,91.11 -38.59,231.19 121.86,231.19l249.89 0 0 218.66c-64.06,0 -228.36,-23.46 -228.36,124.95 0,148.41 164.3,124.94 228.36,124.94l0 218.66c-107.28,0 -308.3,-18.06 -371.66,34.41 -96.01,79.52 -38.76,231.1 90.53,231.1l281.13 0 0 218.66 -93.71 0c-148.06,0 -252.61,265.51 93.71,265.51l0 468.55 -3529.76 0c15.53,-58.14 57.92,-81.33 97.83,-120.82l436.98 -484.52c206.18,-202.66 563.39,-633.87 772.92,-851.39l1998.77 -2186.96c45.31,-54.21 59.18,-73.99 110.15,-124.13 43.43,-42.72 72.49,-93.97 113.11,-121.17l0 281.13 -93.71 0c-171.7,0 -205.2,265.52 46.86,265.52zm-2998.74 2420.86c-29.78,-6.94 -198.73,-71.31 -225.06,-87.31 -51.72,-31.43 -74.31,-148.66 -127.54,-263.14 -47.57,-102.31 -58.24,-73.26 -25.95,-151.3 115.81,-279.91 143.78,-225.01 -117.33,-486.12 -215.74,-215.74 -192.61,-246.04 -430.12,-141.09 -71.76,31.7 -78.2,62.23 -146.46,32.3 -88.35,-38.74 -203.96,-119.06 -317.57,-121.59 -3.71,-44.56 -59.18,-185.9 -75.33,-221.43 -68.7,-151.05 -287.57,-106.56 -549.41,-106.56 -206.04,0 -174.76,136.22 -248.88,282.15 -31.2,61.42 -40.11,46.22 -116.13,71.29 -47.49,15.67 -237.61,104.06 -246.9,104.78 -39.54,3.08 -187.9,-81.56 -262.72,-98.98l0 -4045.18 5513.3 0 0 2311.52c0,53.4 -256.85,303.73 -316.16,371.06l-491.39 539.41c-234.05,280 -587.32,632.29 -821.37,912.28l-335.22 367.62c-29.16,33.11 -54.94,53.36 -86.09,85.71l-573.67 644.57zm-3373.58 -734.07c0,80.25 71.28,176.45 95.8,250.13 20.69,62.16 -23.76,98.78 -82.58,247.25 -92.05,232.32 12.67,87.5 -283.99,231.42 -46.65,22.63 -72.82,51.71 -72.82,114.6 0,599.67 -51.06,548.33 187.6,640.18 144.24,55.51 114.91,27.92 165.52,178.09 22.45,66.62 103.07,184.64 93.17,237.07 -9.16,48.54 -102.68,195.72 -102.68,256.61 0,86.74 381.81,468.55 468.56,468.55 159.04,0 170.85,-162.04 362.09,-65.77 42.38,21.34 75.36,35.07 119.51,52.72 154.65,61.88 123.9,-6.25 185.44,158.17 94.75,253.17 60.57,198.48 644.91,198.48 84.47,0 108.13,-50.3 134.39,-115.5 22.14,-54.97 64.17,-142.98 68.65,-196.86 114.67,-9.54 252.7,-99.1 327.98,-126.38 148.82,-53.94 236.91,236.18 464.67,-2.46 66.31,-69.49 46.57,-76.22 174.89,-75l2921.44 0.8c460.51,0 390.46,34.31 390.46,-531.03 208.03,0 406.08,41.47 406.08,-124.95l0 -4388.78c0,-37.01 -95.5,-171.09 -215.42,-59.44 -33.8,31.47 -59.27,60.82 -93.17,94.46 -34.18,33.91 -69.28,84.89 -97.49,105.56l0.66 -2109.15c0.78,-113.31 -15.69,-186.76 -125.61,-186.76l-5810.06 0c-33.42,0 -75.29,41.07 -86.26,69.92 -21.73,57.11 -10.48,3900.25 -7.03,4272.42 1.44,155.81 -8.11,141.64 -90.15,222.22 -39.86,39.16 -144.55,122.16 -144.55,183.44z"/>
   <path class="fil0" d="M926.49 6459.2l-153.29 -284.03c-25.3,-41.16 -37.59,-54.2 -49.76,-106.43l452.94 0c-34.07,64.39 -177.81,371.21 -249.89,390.46zm-312.37 -3810.9l655.97 0 0 3170.54 -655.97 0 0 -3170.54zm0 -531.03c0,-412.53 655.97,-380.4 655.97,-46.85l0 327.99 -655.97 0 0 -281.14zm-249.89 -93.71l0 3920.23c0,71.47 209.31,398.14 254.71,479.35 47.82,85.56 88.36,158.09 136.64,238.2 22.17,36.77 101.65,203.93 170.91,203.93 124.8,0 145.11,-97.57 194.01,-180.83l355.68 -612.66c23.16,-37.83 59.43,-90.13 59.43,-143.61l0 -3842.13c0,-279.5 -247.15,-515.41 -468.55,-515.41 -221.48,0 -377.81,-22.71 -550.92,136.29 -60.69,55.74 -151.91,205.68 -151.91,316.64z"/>
   <path class="fil0" d="M3034.98 8067.89c-302.81,0 -543.11,-110.64 -677.31,-384.74 -249.32,-509.19 181.05,-1005.3 536.75,-1005.3 277.97,0 387.72,2.82 605.54,222.24 420.05,423.13 70.31,1167.8 -464.97,1167.8zm-1015.2 -702.83c0,853.72 1042.5,1283.47 1620.55,699.06 799.56,-808.36 -117.36,-2004.99 -1073.94,-1558.11 -42.46,19.83 -104.81,59.28 -145.34,88.93 -213.87,156.51 -401.27,451.43 -401.27,770.11z"/>
   <path class="fil0" d="M7033.3 6099.97l0 1077.67 -968.35 0 591.18 -673.92c54.68,-68.48 314.59,-361.85 377.17,-403.76zm-1265.09 1343.19l1390.04 0c77.2,0 140.57,-63.37 140.57,-140.57l0 -1530.6c0,-112.61 -40.75,-156.19 -140.57,-156.19 -79.43,0 -91.65,42.41 -129.71,88.95l-1342.62 1499.97c-117.32,129.09 -15.27,238.44 82.3,238.44z"/>
   <path class="fil0" d="M2738.22 3725.97c0,82.94 40.33,140.56 124.94,140.56l3982.7 0c165.75,0 162.47,-249.89 0,-249.89l-3982.7 0c-39.75,0 -58.78,8.03 -80.49,28.84 -8.78,8.42 -44.46,71.78 -44.46,80.5z"/>
   <path class="fil0" d="M2738.22 3257.42c0,64.41 52.5,140.57 109.33,140.57l3326.73 0c171.37,0 182.13,-249.9 15.62,-249.9l-3326.73 0c-66.84,0 -124.94,48.14 -124.94,109.33z"/>
   <path class="fil0" d="M2738.22 4210.14c0,95.87 74.34,140.57 171.8,140.57l2701.99 0c189.52,0 201.77,-265.52 15.62,-265.52l-2748.84 0c-69.65,0 -140.57,63.25 -140.57,124.95z"/>
   <path class="fil0" d="M3331.72 5131.63c0,95.87 74.34,140.56 171.81,140.56l2608.28 0c234.79,0 215.61,-265.51 31.24,-265.51l-2670.75 0c-69.65,0 -140.57,63.25 -140.57,124.95z"/>
   <path class="fil0" d="M3737.8 5615.8c0,80.55 76.64,124.94 140.56,124.94l1842.98 0c226.98,0 191.59,-265.51 15.62,-265.51l-1858.59 0c-77.2,0 -140.56,63.37 -140.56,140.57z"/>
   <path class="fil0" d="M4471.87 6053.11c0,81.29 18.96,156.18 124.95,156.18l843.39 0c98.37,0 226.07,-265.51 -109.33,-265.51l-655.97 0c-87.37,0 -203.04,30.45 -203.04,109.33z"/>
   <path class="fil0" d="M2472.71 2476.5c0,169.96 204.3,140.57 343.61,140.57 237.52,0 199.34,-265.52 31.24,-265.52 -103.65,0 -374.84,-38.23 -374.84,124.95z"/>
   <path class="fil0" d="M6471.02 2476.5c0,169.96 204.3,140.57 343.61,140.57 237.52,0 199.34,-265.52 31.24,-265.52 -103.65,0 -374.85,-38.23 -374.85,124.95z"/>
   <path class="fil0" d="M3472.29 2476.5c0,169.96 204.3,140.57 343.61,140.57 237.51,0 199.33,-265.52 31.23,-265.52 -103.65,0 -374.84,-38.23 -374.84,124.95z"/>
   <path class="fil0" d="M5471.45 2476.5c0,169.96 204.3,140.57 343.61,140.57 237.52,0 199.34,-265.52 31.24,-265.52 -103.66,0 -374.85,-38.23 -374.85,124.95z"/>
   <path class="fil0" d="M4471.87 2476.5c0,169.96 204.29,140.57 343.6,140.57 237.52,0 199.34,-265.52 31.24,-265.52 -103.65,0 -374.84,-38.23 -374.84,124.95z"/>
  </g>
 </g>
</svg>
