<?xml version="1.0" encoding="UTF-8"?>
<!DOCTYPE svg PUBLIC "-//W3C//DTD SVG 1.1//EN" "http://www.w3.org/Graphics/SVG/1.1/DTD/svg11.dtd">
<!-- Creator: CorelDRAW -->
<svg xmlns="http://www.w3.org/2000/svg" xml:space="preserve" width="8.5in" height="11in" version="1.1" style="shape-rendering:geometricPrecision; text-rendering:geometricPrecision; image-rendering:optimizeQuality; fill-rule:evenodd; clip-rule:evenodd"
viewBox="0 0 8500 11000"
 xmlns:xlink="http://www.w3.org/1999/xlink"
 xmlns:xodm="http://www.corel.com/coreldraw/odm/2003">
 <defs>
  <style type="text/css">
   <![CDATA[
    .fil0 {fill:#0D4157}
   ]]>
  </style>
 </defs>
 <g id="Layer_x0020_1">
  <metadata id="CorelCorpID_0Corel-Layer"/>
  <g id="_2614326394624">
   <path class="fil0" d="M3040.84 4442.78c0,-663.41 476.78,-1130.67 1065.12,-1130.67 352.86,0 675.45,-26.06 969.5,177.57 51.43,35.62 97.75,74.86 147.45,114.7 168.25,134.71 325.02,483.01 325.02,723.7l0 294.94 -2507.08 0 0 -180.24zm-262.14 -131.1l0 311.34 -1540.31 0c0,-422.22 9.02,-616.89 323.23,-922.08 322.89,-313.57 1081.87,-303.17 1446.47,-110.24 -7.33,88.24 -229.39,314.22 -229.39,720.98zm2801.97 -720.98c57.17,-13.33 73.13,-31.21 126.14,-54.15 167.17,-72.28 346.72,-76.94 545.69,-76.94 441.79,0 800.94,137.69 983.42,491.34 140.31,271.8 114.45,367.72 114.45,672.08l-1523.91 0c0,-360.64 -0.54,-533.3 -147.39,-852.13 -35.92,-77.98 -37.06,-43 -98.4,-180.2zm-3211.66 -491.59c-281.66,0 -491.59,-207.64 -491.59,-458.83 0,-330.86 194.46,-507.94 524.39,-507.94 345.23,0 616.39,503.18 307.78,815.76 -79.57,80.61 -185.55,151.01 -340.57,151.01zm3850.74 -966.77c163.05,0 272.05,45.53 365.24,142.74 293.7,306.24 102.85,824.03 -365.24,824.03 -612.87,0 -618.03,-966.77 0,-966.77zm-2474.28 245.8c0,-320.01 261.1,-557.14 491.59,-557.14l98.3 0c261.05,0 507.98,246.93 507.98,507.94 0,192.48 -21.75,298.81 -175.64,447.09 -320.36,308.76 -922.23,88.19 -922.23,-397.89zm114.7 688.18c-134.37,31.31 -250,68.57 -366.43,125.15 -137.39,66.79 -213.24,151.85 -289,202.59 -96.31,-50.98 -264.47,-153.15 -393.29,-163.85 45.09,-67.33 438.18,-344.64 264.57,-854.5 -275.07,-807.78 -1477.13,-622.68 -1477.13,248.22 0,287.61 156.96,472.07 311.34,606.28 -251.04,20.86 -535.98,247.08 -690.85,439.76 -252.78,314.56 -259.57,651.12 -259.57,1051.35 0,102.26 46.92,180.24 147.5,180.24l6374.17 0c197.39,0 147.5,-267.79 147.5,-491.58 0,-606.33 -441.8,-1065.12 -934.02,-1179.77 132.58,-198.03 294.94,-196.59 294.94,-671.83 0,-95.43 -41.76,-214.83 -75.9,-284.59 -108.8,-222.21 -385.96,-420.04 -677.83,-420.04 -585.82,0 -939.03,670.74 -659.1,1134.28 61.19,101.37 132.73,169.2 216.66,242.18 -123.61,10.26 -310.45,108.35 -393.29,163.85 -158,-105.83 -238.02,-195.51 -464.63,-272.7l-190.8 -55.05c18.83,-25.66 100.53,-92.35 135.31,-126.88 626.8,-622.93 -62.48,-1653.02 -868.33,-1343.52 -125.74,48.26 -201.65,97.65 -289.59,185.6l-15.95 16.84c-342.16,366.14 -295.98,883.09 51.33,1190.12 26.91,23.78 18.13,15.21 46.52,35.38 15.41,11 14.27,9.26 28.89,20.31 32.06,24.28 9.71,7.13 27,22.15z"/>
   <path class="fil0" d="M4450.06 8113.22c-228.55,0 -2408.04,-516.01 -2797.91,-595.33 -95.92,-19.52 -116.23,6.39 -198.48,40.48 -115.09,47.61 -236.18,132.09 -362.77,161.61l-622.63 -1310.91 1136.02 -535.33c555.15,-257.24 733.47,-135.75 1289.11,142.1 221.07,110.54 443.43,223 678.12,305 124.76,43.55 235.14,88.93 360.15,131.44l725.69 257.48c355.29,122.23 242.37,584.19 -76.2,584.19 -75.11,0 -940.26,-327.64 -1095.69,-379.07 -158.79,-52.62 -313.52,-129.81 -313.52,116.88 0,91.56 332,178.61 461.17,227.06 141.06,52.87 806.59,297.27 882.5,297.27 210.42,0 304.45,-1.19 479.65,-175.79 96.27,-95.92 99.83,-148.04 138.72,-254.51 31.41,-85.91 41.02,-54.2 244.7,-148.59l1611.2 -764.73c198.33,-99.54 494.21,-283.74 684.22,-61.54 21.6,25.27 43.15,58.96 55.49,92.01 48.21,129.41 32.75,239.15 -55.49,342.35 -82.84,96.86 -845.09,424.16 -1050.35,522.7 -599.5,287.76 -1373.69,636.01 -1933.35,917.82 -69.41,34.98 -148.78,87.4 -240.34,87.4zm-4293.13 -1769.7c0,102.56 335.81,738.47 400.18,894.34l304.6 645.77c143.88,327.44 280.57,83.58 708.89,-78.68 71.94,-27.25 130.7,1.04 217.95,20.31 296.57,65.5 574.67,135.31 871.25,193.82l1316.41 289.44c135.01,28.19 308.67,83.28 457.45,83.28 184.01,0 771.81,-303.07 983.12,-409.74l944.98 -447.84c281.91,-141.7 1257.9,-575.02 1405.49,-675.55 455.72,-310.35 286.92,-1088.65 -367.67,-1088.65 -158.39,0 -559.36,208.98 -726.68,289.24l-1420.11 677.33c-53.41,23.73 -96.61,38.94 -147.3,65.75 -8.27,-99.88 -145.56,-241.73 -234.35,-289.99 -249.16,-135.41 -1135.62,-384.87 -1551.65,-594.94l-731.78 -349.74c-247.78,-119.55 -546.68,-143.93 -810.91,-62.18l-1198.59 554.7c-83.88,35.82 -147.1,75.7 -230.04,114.06 -87.74,40.57 -191.24,49.35 -191.24,169.24z"/>
  </g>
 </g>
</svg>
