<?xml version="1.0" encoding="UTF-8"?>
<!DOCTYPE svg PUBLIC "-//W3C//DTD SVG 1.1//EN" "http://www.w3.org/Graphics/SVG/1.1/DTD/svg11.dtd">
<!-- Creator: CorelDRAW -->
<svg xmlns="http://www.w3.org/2000/svg" xml:space="preserve" width="8.5in" height="11in" version="1.1" style="shape-rendering:geometricPrecision; text-rendering:geometricPrecision; image-rendering:optimizeQuality; fill-rule:evenodd; clip-rule:evenodd"
viewBox="0 0 8500 11000"
 xmlns:xlink="http://www.w3.org/1999/xlink"
 xmlns:xodm="http://www.corel.com/coreldraw/odm/2003">
 <defs>
  <style type="text/css">
   <![CDATA[
    .fil3 {fill:black}
    .fil0 {fill:#0D4157}
    .fil1 {fill:#646569}
    .fil2 {fill:#FBFCFC}
   ]]>
  </style>
 </defs>
 <g id="Layer_x0020_1">
  <metadata id="CorelCorpID_0Corel-Layer"/>
  <path class="fil0" d="M2846.69 3188.11c162.03,-14.42 272.75,109.02 276.75,261.86 2.26,86.69 -31.55,154.46 -72.45,199.16 -38.46,42.04 -106.58,77.26 -188.72,82.76 -256.69,17.19 -362.09,-300.26 -208.43,-463.05 47.76,-50.61 120.77,-74.31 192.85,-80.72l-0 -0zm171.24 -509.52c2.76,-33.56 74.35,-104.81 103.4,-125.72 9.03,-6.49 21.97,-9.74 32.8,-13.64 10.81,-3.89 23.38,-8.58 34.75,-11.56 11.19,-2.93 11.01,1.24 16.13,-7.12 2.32,-3.79 5.39,-11.75 7.41,-15.81 20.33,-40.73 45.34,-80.18 67.65,-117.95 22.36,-37.85 66.1,-60.89 102.65,-80.89 87.42,-47.83 201.26,-55.77 302.18,-17.97 45.92,17.2 84.64,42.96 116.35,69.36 21.4,17.82 70.52,69.93 82.32,101.13 110.09,-2.39 145.76,-7.57 216.7,51.22 48.12,39.89 90.61,108.2 96.96,172.09l-1179.31 -3.15 0.01 0zm-1613.14 1805.1l7.22 191.08c2.81,18.73 1.5,38.14 4.2,56.96 5.34,37.11 6.94,73.64 12.15,110.21 12.42,87.27 26.07,175.6 44.45,261.43 3.33,15.57 8.42,34.36 11.62,49.55 24.77,117.72 71.21,264.31 115.96,375.56 6.23,15.5 11.09,29.39 17.4,43.77 18.8,42.8 36.82,86.12 57.72,127.92 3.54,7.09 6.92,13.16 9.81,19.73 9.08,20.63 21.56,40.67 31.68,61.14 29.51,59.66 66.92,115.31 103.81,170.43 10.81,16.17 25.64,44.23 45.96,48.96l43.39 -57.86c5.91,-7.82 9.34,-12.79 14.83,-21.04 18.73,-28.13 36.91,-56.8 53.48,-85.75 3.24,-5.67 96.77,-168.55 99.25,-179.2l52.73 4.23c19.83,1.04 35.16,2.1 54.86,2.1 -11.09,-23.1 -14.57,-38.84 -29.56,-67.48 -2.18,-4.16 -4.19,-8.45 -6.3,-12.68 -22.65,-45.59 -54.66,-94.85 -82.97,-151.18l-36.68 -81.46c-8.1,-18.76 -15.49,-35.74 -22.91,-55.14 -7.7,-20.09 -13.01,-37.24 -20.76,-57.29 -35.5,-91.84 -62.4,-210.87 -81.91,-308.35 -13.54,-67.7 -20.59,-137.44 -30.25,-206.02 -6.96,-49.47 -5.2,-95.78 -9.42,-146.69 -2.32,-28.12 0.49,-70.26 -2.31,-94.73 -2.93,-25.58 0.41,-63.96 0.31,-93.13l4.22 -92.82c2.82,-53.67 10.7,-109.73 16.7,-162.61 2.57,-22.67 6.63,-46.87 10.11,-67.94 3.85,-23.35 7.48,-43.19 12.04,-66 17.35,-86.75 39.67,-166.69 60.72,-251.48l24.05 -94.09c2.49,-9.96 6.95,-23.07 7.18,-32.91 42.07,9.8 64.29,7.42 113.15,23.97 44.52,15.08 29.98,18.93 20.66,61.3 -3.61,16.34 -6.46,28.85 -9.86,44.98l-21.42 88.28c-26.09,104.43 -51.86,211.82 -64.37,319.56 -1.93,16.57 -2.84,32.22 -5.3,49.54 -7.92,55.97 -9.65,200.54 -9.65,254.05l7.54 157.01c3.59,24.87 5.1,50.22 7.42,74.84 2.25,23.81 6.63,50.94 9.98,74.39l46.78 286.52c11.65,-3.11 70.05,-58.44 82.8,-71.2l64.38 -64.3c5.7,-5.76 7.06,-9.12 12.57,-14.85 9.09,-9.44 17.36,-16.83 26.46,-26.28 5.27,-5.48 6.24,-8.32 11.52,-13.8l65.44 -65.35c8.48,-8.48 16.54,-17.56 25.33,-25.3 5.56,-4.89 8.1,-5.93 13.73,-11.59 5.09,-5.11 8.6,-8.65 13.68,-13.74 17.86,-17.86 34.8,-32.69 52.74,-50.63l106.53 -102.31c17.73,-17.76 33.94,-33.94 51.68,-51.68 24.56,-24.56 86.33,-81.93 103.89,-104.94 28.94,-37.91 73.13,-68.27 103.05,-105.79 17.13,-21.47 45.59,-43.21 63.28,-65.4 15.31,-19.18 35.28,-35.44 52.56,-52.91 5.44,-5.49 6.54,-8.37 11.54,-13.78l154.06 -158.15c5.27,-5.48 6.24,-8.32 11.52,-13.8l39.06 -38.98c9.7,-9.69 15.78,-17.99 25.31,-27.43l63.27 -65.41c4.36,-4.7 8.07,-8.02 12.69,-12.63l90.69 -92.85c4.35,-4.7 8.08,-8.02 12.68,-12.63 12.86,-12.86 25.03,-27.47 39.24,-38.81 29.48,-23.52 251.13,-249.46 300.39,-298.7l313.26 -311.16c17.17,-17.27 36.17,-32.66 52.76,-50.59l24.24 -26.4c9.3,-9.29 17.2,-17.02 26.41,-26.32 5.43,-5.49 6.54,-8.38 11.54,-13.78 4.68,-5.06 8.79,-8.73 13.74,-13.69l102.31 -104.42c4.61,-4.61 7.92,-8.33 12.63,-12.69 5.74,-5.31 8.94,-6.64 14.82,-12.61 13.31,-13.51 75.13,-68.12 90.77,-62.54 14.1,5.04 66.74,60 79.85,76.44 25.19,31.57 120.65,118.09 158.43,155.89 17.75,17.75 33.94,33.91 51.65,51.71 5.63,5.65 8.17,6.7 13.73,11.59 22.68,19.97 42.52,43.39 64.31,64.37l27.46 25.27c17.1,17.1 35.04,37.12 52.75,52.72 31.49,27.73 77.73,73.55 106.52,102.32 64.85,64.85 131.76,126.84 196.16,191.98 5.95,6.02 8.83,7.42 14.76,12.65 22.08,19.44 42.84,43.7 64.32,64.37l41.18 38.98c55.03,55.03 43.8,58.02 43.78,-31.12 -0.01,-19.79 2.23,-32.89 2.13,-50.6 -0.09,-16.88 -0.03,-33.78 -0.03,-50.65 0,-19.48 2.23,-33.77 2.16,-50.58 -0.07,-17.59 -0.05,-35.19 -0.05,-52.79 0,-19.57 2.11,-33.57 2.11,-50.62 264.73,0 527.25,-4.22 793.17,-4.22 0,63.14 3.3,330.35 -1.8,375.8 -2.57,22.85 8.04,41.34 -10.59,42.15 -16.74,0.72 -36.2,-1.54 -52.89,-0.16 -16.12,1.33 -31.57,2 -50.74,2l-8.33 73.94c-2.81,34.02 -4.09,170.19 -1,190.63 4.89,32.32 -3,77.76 1.47,110.34 9.22,67.25 -6.86,149.93 9.94,213.67 11.63,44.11 39.61,64.88 70.21,94.33 39.59,38.11 111.48,101.49 142.26,138.31 16.64,19.91 36.64,36.39 54.94,54.75l279.3 279.73c12.18,15.27 27.06,27.97 38.87,43.39l56.26 55.54c5.32,5.34 8.53,11.09 16.35,13.18 2.22,-9.5 7.84,-16.7 11.79,-26.19 28.89,-69.35 50.63,-185.11 55.65,-260.77 0.74,-11.11 1.2,-25.61 2.76,-37.32 1.12,-8.38 3.16,-27.17 3.66,-36.43 0.32,-6.15 -0.34,-12.86 -0.02,-19.01 0.48,-9.26 1.89,-8.81 2.19,-18.9l4.15 -156.17c0,-41 -2.23,-76.04 -2.06,-118.18 0.05,-12.93 -1.9,-16.32 -2.23,-27.31 -0.29,-9.63 0.59,-20.06 0.08,-29.61 -0.87,-16.14 -3.41,-40.81 -4.23,-56.94 -3.93,-76.44 -10.34,-152.75 -20.44,-222.15 -14.86,-102.15 -40.98,-196.56 -64.35,-296.38 -3.67,-15.66 -7.31,-33.89 -10.13,-51.04 -1.74,-10.54 -4.98,-45.52 -8.44,-52.74 29.98,-0.67 105.67,-22.5 137.12,-23.2 6.3,13.13 10.81,32.42 15.03,46.14 112.46,366.06 146.26,774.5 92.19,1158.02 -7.85,55.65 -18.34,108.96 -29.7,162.27 -5.49,25.79 -12.3,51.83 -18.88,78.15 -28.67,114.77 -71.57,226.48 -122.66,333 -23.08,48.13 -48.89,94.17 -78.58,138.69 -15.33,23 -66.04,97.95 -68.35,125.72 27.74,0 50,-4.3 78.09,-4.18 12.32,0.05 14.62,-2.15 25.28,-2.15 2.11,7.93 109.28,163.92 113.91,170.87 9.26,13.89 18.19,28.24 27.45,42.17 15.47,23.31 72.49,113.37 78.03,137.14 9.24,-6.19 20.4,-19.36 29.01,-27.95 48.89,-48.86 84.21,-107.81 115.11,-169.67l78.07 -151.86c90.65,-181.16 161.57,-408.76 200.23,-601.39 18.88,-94.06 32.93,-199.8 43.41,-298.32 0.98,-9.16 2.06,-17.5 2.43,-25 1.3,-26.38 1.77,-58.59 5.48,-83.13 2.79,-18.39 3,-93.3 3,-110.91l-0.58 -166.07c-4.78,-34.89 -1.68,-73.08 -6.33,-107.59l-10.02 -105.99c-9.98,-115.71 -33.37,-231.98 -57.79,-343.01 -13.55,-61.59 -30.54,-120.98 -47.16,-180.67 -8.27,-29.69 -17.41,-57.81 -27.09,-86.82 -48.06,-144.11 -102.39,-269.68 -170.26,-405.64l-19.72 -37.24c-42.5,-76.03 -122.87,-217.92 -169.44,-288.33 -7.61,-11.51 -13.87,-23 -21.93,-35.03l-45.16 -68.76c-31.04,-46.56 -62.24,-90.28 -95.02,-134.92l-154.01 -187.74c-8.3,-10.39 -19.76,-18.5 -28.05,-28.91 -12.66,-15.87 -70.35,-74.75 -85.86,-87.12 -11.53,-9.2 -19.07,-18.88 -29.85,-27.11l-23.51 -20.79c-3.38,-2.71 -4.41,-4.25 -7.64,-7.13 -3.6,-3.21 -3.85,-2.88 -7.13,-5.53 -3.37,-2.72 -4.4,-4.24 -7.64,-7.13l-210.86 -162.52 -133.9 -93.93c-12.32,-8.19 -23.56,-15 -35.86,-23.2 -54.65,-36.46 -153.8,-98.96 -213.32,-128.42l-231.96 -111.89 -122.64 -48.24c-79.98,-30.7 -223,-70.46 -310.45,-92.46 -16.43,-4.14 -28.95,-7.46 -46.04,-10.92 -58.95,-11.93 -107.91,-8.85 -155.91,30.11 -27.73,22.51 -36.8,39.32 -56.35,66 -4.57,6.22 -5.53,3.94 -6.27,12.72 68.59,0 210.7,29.79 282.15,44.82 84.91,17.87 169.79,47.31 250.77,76.21 68.69,24.5 134.93,52.59 199.76,85.02 10.07,5.04 19.33,8.56 28.85,13.33l52.71 27.45c4.2,2.19 8.5,4.09 12.71,6.27l40.75 22.54c9.79,5.28 16.6,8.7 26.08,14 9.95,5.57 16.88,10.17 26.69,15.5 9.58,5.21 16.05,9.31 25.25,14.83l51.41 30.87c9.37,5.53 15.18,10 24.56,15.52 9.15,5.4 15.67,10.24 24.54,15.54 4.36,2.61 8.49,5.64 12.85,8.24 54.56,32.57 175.55,120.26 226.11,162.04 8.12,6.72 15.13,11.89 23.63,18.57l67.51 54.84c5.33,4.15 5.51,4.51 10.17,8.83 4.84,4.5 6.75,5 11.59,9.5 4.69,4.36 4.83,4.63 10.19,8.8l64.8 59.66c3.41,4.09 6.65,6.85 10.45,10.64l199.35 212.01c41,40.87 74.66,88.96 110.22,134.48l35.87 46.41c58.62,78.23 110.67,161.82 161.23,245.9l30.31 51.96c33.16,55.3 64.75,113.35 91.82,171.86l71.62 156.2c25.24,58.49 46.9,116.91 67.15,177.54l57.91 186.8c12.23,42.8 23.56,87.52 32.7,131.83 4.35,21.09 9.3,45.28 14.21,65.95 15.23,64.13 43.29,251.61 46.78,322.38l6.06 76.21c6.08,54.22 4.53,124.5 4.53,179 0,150.28 -20.05,309.6 -49.39,454.78 -5.93,29.32 -12.26,55.72 -17.96,83.3 -16.71,80.9 -39.69,159.6 -65.28,236.38l-25.86 75.39c-20.57,62.16 -44.88,122.47 -70.21,182.93 -5.1,12.17 -11.14,23.69 -15.7,34.93l-15.76 34.87c-19.8,42.72 -65.31,132.49 -98.46,154.69 -8.98,-6.01 -14.5,-13.96 -21.72,-22.58 -29.15,-34.86 -52.11,-48.9 -52.11,-103.99 0,-32.78 74.59,-166.96 93.42,-214.57 29.93,-75.73 56.99,-152.26 79.1,-230.99 30.5,-108.61 59.1,-220.48 78.24,-333.11 10.24,-60.24 17.31,-121.64 23.83,-182.9 8.02,-75.35 7.83,-120.24 10.12,-196.61l2.19 -48.46c0.09,-18.56 -2.13,-30.64 -2.12,-50.62l-2.22 -73.72c-0.76,-9.19 -2.01,-13.27 -1.95,-25.46 0.06,-14.47 -3.06,-33 -4.1,-46.52 -12.57,-161.4 -45.12,-322.03 -90.61,-476.84 -24.68,-84 -49.67,-151.1 -78.06,-229.93 -26.41,-73.3 -62.21,-144.74 -96.61,-213.49 -28.28,-56.52 -57.76,-113.05 -89.38,-167.98 -6.37,-11.06 -12.63,-21.63 -19.55,-33.19 -25.45,-42.56 -50.31,-85.58 -77.81,-126.82 -7.06,-10.58 -13.43,-19.7 -20.27,-30.36 -34.52,-53.84 -88.52,-133.01 -128.6,-181.5l-117.02 -142.45c-8.64,-9.23 -15.3,-17.46 -24.3,-26.33 -5.76,-5.69 -6.69,-7.67 -11.68,-13.64 -20.79,-24.87 -96.17,-96.93 -117.82,-114.22l-26.56 -24.07c-5.48,-5.34 -8.29,-6.21 -13.78,-11.54l-68.48 -62.31c-17.87,-17.37 -39.21,-29.44 -59.04,-44.33l-184.96 -125.13c-11.12,-7.41 -18.93,-13.38 -29.95,-20.68l-153.57 -103.78c-47.48,-31.7 -98.31,-57.74 -149.66,-82.39 -6.47,-3.1 -10.43,-5.26 -16.85,-8.46 -46.67,-23.33 -95.34,-43.89 -144.54,-62.2l-153 -53.73c-118.39,-39.49 -254.95,-71.03 -377.44,-88.76 -63.3,-9.16 -123.63,-17.5 -189.22,-17.5 -8.37,0 -32.17,10.53 -38.41,14.32 -16.46,10.01 -31.24,19.97 -45.43,32.62 -21.04,18.76 -51.35,45.33 -68.36,66.65 -23.56,29.51 -50.25,57.31 -71.41,88.91 -6.12,-1.63 -11.61,-7.1 -16.57,-10.85l-33.17 -25.9c-48.98,-38.06 -94.15,-110.99 -127.41,-136.27 -53.8,-40.89 -123.56,-30.46 -187.41,-22.78 -44.37,5.33 -91.52,16.06 -135.24,25.09 -203.07,41.94 -356,93.06 -546.21,171.02 -74.08,30.36 -145.23,67.93 -216.91,103.74 -34.3,17.14 -68.39,37.24 -101.27,56.95l-193.24 127.4c-7.97,6 -15.67,10.84 -23.09,16.99 -36.18,29.98 -75.33,56.51 -110.83,87.46l-85.74 74.58c-8.92,6.89 -12.99,11.78 -20.69,19.39l-50.65 48.5c-10.84,10.02 -21.46,18.61 -30.83,30.35 -5.51,6.91 -13.25,13.68 -19.83,20.26 -26.58,26.58 -53.71,53.66 -77.21,83.11l-73.49 84.72c-12.9,15.33 -23.38,28.38 -35.59,44.57l-165.88 232.81c-73.37,110 -155.68,265.69 -209.03,390.07 -20.33,47.39 -40.04,91.76 -57.16,141.13 -17.49,50.45 -36.09,98.02 -51.17,149.24 -15.27,51.91 -31.81,103.91 -44.64,155.76 -32.7,132.1 -55.12,269.41 -69.71,409.15l-4.55 54.52c-2.91,56.58 -6.32,117.77 -6.32,175.09 0,31.46 2.26,56.22 2.07,88.63 -0.09,16.49 2.28,24.75 2.12,42.18 -0.39,41.52 15.06,174.97 19.93,207.91 8.09,54.85 16.48,103.44 26.69,154.74 10.05,50.48 22.54,97.74 35.67,147.85 44.18,168.52 110.2,301.41 176,458.97 29.03,69.52 36.99,52.75 15.96,100.01 -9.71,21.83 -23.92,41.69 -39.53,59.61 -6.9,7.93 -19.31,16.9 -27.94,22.69 -18.65,-12.48 -67.99,-97.72 -80.88,-123.74 -58.5,-118.14 -105.33,-239.69 -147.22,-365.39 -8.31,-24.94 -17.89,-52.14 -25.04,-78.31 -14.75,-53.94 -30.85,-107.11 -42.36,-162.26 -17.41,-83.35 -36.78,-177.98 -44.19,-263.8l-9.6 -93.76c-2.03,-13.67 -2.63,-33.88 -2.96,-47.67 -0.26,-10.69 -2.13,-11.66 -2.23,-23.08 -0.09,-11.38 -0.3,-17.51 -1.46,-25.97 -1.89,-13.76 -0.48,-35.43 -0.5,-50.13 -0.02,-11.59 -1.68,-13.57 -2.19,-23.12 -3.04,-56.27 4.87,-147.02 6.28,-204.69 0.26,-10.16 1.7,-9.6 2.15,-18.95 0.68,-14.28 0.94,-25.44 2.45,-39.74 22.04,-209.56 57.02,-418.76 123.87,-618.67 13.86,-41.45 26.93,-82.7 42.45,-122.08l91.44 -218.66 60.43 -125.2c33.9,-68.35 118.05,-210.17 151.49,-261.98 45.52,-70.52 83.22,-127.12 135.69,-193.39l112.44 -136.48c18.11,-23.03 34.33,-46.99 53.47,-68.88 33.59,-38.43 83.57,-94.36 120.2,-126.61l53.75 -49.62c4.84,-4.48 6.83,-4.96 11.65,-9.44 3.71,-3.46 5.6,-6.11 9.56,-9.43 5.09,-4.26 6.56,-4.56 11.55,-9.56 7.95,-7.96 14.13,-12.15 22.09,-20.1 4.92,-4.93 6.44,-5.33 11.51,-9.59l220.64 -171.72c38.11,-28.52 158.09,-106.7 201.91,-129.29l106.18 -58.37c26.13,-14.08 54.41,-29.36 81.87,-40.47 37.76,-15.3 75.44,-35.13 113.94,-50.6 145.82,-58.61 252.28,-96.19 403.85,-134.07 54.87,-13.72 111.98,-27.91 167.46,-37.16 35.9,-5.99 72.76,-10.83 107.62,-18.96l-23.6 -39.68c-12.46,-18.38 -28.83,-37.15 -47.23,-49.81 -22.15,-15.24 -42.02,-26.54 -72.61,-26.54 -66.35,0 -118.36,18.12 -176.37,32.47 -12.75,3.15 -20.91,6.55 -32.47,9.72 -99.95,27.39 -216.75,71.39 -310.69,109.1 -40.63,16.32 -78.76,30.83 -118.26,48.39 -72.58,32.26 -142.13,64.98 -210.91,103.41 -5.78,3.23 -7.04,4.5 -13.38,7.71 -18.68,9.48 -35.94,20.59 -53.32,31.06l-102.22 64.43c-48.13,32.09 -104.31,67.86 -148.27,104.87 -30.79,25.91 -59.74,50.4 -90.87,75.78 -40.94,33.37 -97.82,79.04 -137.06,113.97l-45.36 39.03c-29.83,26.27 -57.24,55.19 -85.46,83.31 -3.51,3.5 -6.27,5.87 -9.48,9.51l-48.64 56.84c-18.71,22.12 -38.35,47.32 -61.44,65.13 -21.21,16.38 -43.46,42.42 -60.3,64.16 -24.6,31.75 -49.7,63.01 -72.56,96.2l-88.35 120.49c-48.21,64.22 -94.48,131.79 -133.03,202.39l-45.01 81.56c-5.59,9.99 -9.41,16.8 -14.74,27.44 -28.4,56.81 -55.26,111.5 -80.92,170.11 -17.32,39.56 -34.69,78.49 -49.25,119.52 -7.36,20.72 -15.35,39.2 -22.68,59.59 -120.2,334.51 -200.14,703.37 -200.14,1061.35l-0.02 0.02z"/>
  <path class="fil0" d="M4761.85 4711.52c3.57,3.08 -2.28,1.28 6.26,4.22l0.33 453.54c2.01,12.59 0.95,-1.68 2.77,10.76l0.14 257.15c0,9.01 3.09,91.89 -2.57,98.61l-355.82 -0.82c-14.52,-2 -91.31,-2.48 -103.37,0.67l-1.06 14.11 -355.48 0 -2.07 -353.05c-2.69,-2.88 -2.13,0.45 -2.13,-7.96l-0.73 -118.6c-4.13,-16.27 -1.39,-70.25 -1.38,-90.71 0.02,-30.3 -2.11,-58.14 -2.11,-90.71 0,-60.82 -2.11,-118.7 -2.11,-181.41l565.37 -2.13c17.71,-0.1 30.81,2.14 50.6,2.13 46.19,-0.02 150.09,-2.07 194.44,-0.28 12.07,0.48 9.31,-1.69 8.89,4.49l0.02 -0.02zm-1515.44 198.29c0,19.06 0.74,61.86 3.33,78.94 3.12,20.67 5,131.07 5.04,159.51 0.02,14.25 2.22,23.44 2.19,40 -0.06,23.59 -4.48,109.08 3.57,120.89 11.54,16.92 179.91,96.03 216.55,114.65l106.2 58.35c34.66,20.53 66.47,43.79 98.62,68.03 16.28,12.28 30.29,23.94 45.78,36.49l199.59 192.77c18.16,20.62 77.22,78.18 91.22,96.52 10.87,14.24 27.52,27.97 39.19,43.08 20.95,27.12 45.65,51.91 65.96,79.6 47.33,64.54 92.01,130.81 129.7,201.48 3.07,5.78 4.93,7.89 7.75,13.35 24.29,47.05 32.25,59.55 51.94,114.71 7.82,21.93 35.74,103.75 51.41,115.24 0.58,-7 4.77,-19.4 7.13,-26.63 3.24,-9.96 4.8,-17.76 8.53,-27.33 6.84,-17.54 11.97,-33.59 18.73,-50.88 23.12,-59.25 40.08,-92.33 66.19,-144.75 8.19,-16.42 15.94,-29.12 24.61,-45 32.61,-59.68 70.98,-115.43 110.75,-169.81 32.54,-44.5 67.7,-83.49 101.9,-125.93 3.81,-4.73 4.17,-5.63 8.65,-10.33l67.46 -73.87c16.8,-16.98 34.41,-37.86 53.14,-52.33 19.02,-14.69 65.03,-61.91 91.63,-83.46 51.9,-42.02 103.48,-86.14 158.91,-123.77 7.7,-5.24 13.77,-8.93 21.3,-14.57 39.28,-29.5 85.35,-55.84 128.74,-80.1 16.29,-9.11 29.37,-16.65 46.46,-25.27 15.41,-7.77 32.81,-15.25 48.1,-21.51 17.64,-7.23 33.06,-13.64 50.96,-20.77 16.36,-6.52 33.26,-13.23 48.63,-20.99l45.69 -26.03c0,-29.31 2.11,-50.86 2.11,-80.16l0 -253.14c0,-47.85 8.81,-121.89 -7.8,-156.74 -15.15,-31.77 -58.11,-59.7 -83.44,-85.32l-42.18 -40.09c-24.97,-24.97 -110.18,-106.32 -126.04,-127.1 -10.8,-14.16 -28.36,-29.42 -41.66,-42.72l-257 -247.17c-15.18,-11.72 -27.99,-28.97 -42.57,-41.81 -37.2,-32.76 -72.41,-68.17 -107.57,-103.38l-22.19 -20c-99.93,-96.17 -197.21,-195.18 -295.28,-293.26l-88.07 -80.69c-6.89,10.29 -109.67,108.54 -126.04,124.99l-19.01 16.85c-24.35,22.54 -45.92,51.15 -72.22,71.22 -23.81,18.16 -50.13,49.39 -72.21,71.24 -6.76,6.69 -11.95,9.65 -19.04,16.83 -20.54,20.79 -40.31,42.92 -62.24,62.22l-154.98 150.89c-6.76,6.69 -11.95,9.65 -19.04,16.83 -59.48,60.18 -121.5,117.31 -181.41,177.2 -12.46,12.46 -23.33,23.54 -35.82,35.9l-236.27 229.94c-6.76,6.69 -11.95,9.65 -19.03,16.82l-53.79 53.8c-5.45,5.48 -14.44,12.14 -18.16,17.7 -18.06,27.02 -24.56,74.52 -24.56,118.88l0 -0.01z"/>
  <path class="fil0" d="M6756.61 6468.35c-206.25,-19.07 -422.17,11.39 -619.09,65.21 -157.66,43.1 -229.06,75.14 -364.85,156l-69.21 44.53c-13.17,8.64 -22.17,14.95 -33.55,23.5 -5.86,4.39 -9.93,8.35 -16,13.44 -5.63,4.71 -10.72,8.68 -16.31,13.29l-143.19 116.21c-22.3,17.96 -57.33,51.82 -83.68,58.25 -6.67,0.59 -26.43,8.26 -34.37,11.4 -52.73,20.86 -191.17,69.59 -241.54,83.32 -227.52,62.01 -391.59,8.96 -569.4,-123.38l-135.29 -119.96c-24.28,-19.37 -28.6,-26.23 -58.57,-46.91l-7.14 -5.51c-19.13,12.81 -87.31,86.66 -116.64,111.18 -26.6,22.24 -47.2,40.72 -76.53,62.7 -96.89,72.63 -160.29,99.95 -283.52,129.95 -11.61,2.82 -27.09,4.44 -39.85,6.56 -82.44,13.72 -176.98,9 -252.19,-9.99 -77.9,-19.68 -101.29,-32.07 -171.81,-58.12l-68.61 -24.21c-9.11,-3.04 -26.23,-11.39 -35.07,-9.24l-21.8 4.63 0.04 -21.66c-23.85,-9.31 -47,-28.61 -63.26,-47.67 -18.17,-21.3 -37.04,-36.64 -58.46,-53.25l-266.06 -181.11c-83.71,-48.36 -132.28,-74.38 -228.7,-106.42 -159.91,-53.13 -299.11,-75.15 -467.08,-91.99 -25.82,-2.59 -207.94,-9.32 -211.39,-10.92 -105.96,0 -201.16,55.81 -292.83,101.28 -11.27,5.59 -25.86,16.15 -37.99,18.97l0 4.22c12.77,2.97 44.7,17.61 61.43,22.96 61.3,19.63 117.65,23.09 179.64,31.31 45.9,6.08 164.83,4.8 210.37,4.8l210.95 -2.11c39.92,-0.09 79,5.48 117.78,10.91 98.41,13.77 201.07,50.72 285.81,98.12 81.28,45.47 156.21,98.44 232.62,151.31l206.21 135.53c66.06,36.09 134.39,71.52 206.87,92.68l174.41 38.65c13.65,1.26 25.21,3.5 37.86,4.33 12.5,0.83 28.53,1.01 41.81,2.49 37.74,4.21 80.93,1.67 120.56,1.8 17.36,0.06 26.51,-2.11 42.19,-2.11 -18.54,27.69 -44.19,46.86 -70.52,66.61 -39.57,29.66 -82.56,58.2 -125.76,83.09 -14.9,8.59 -29.7,15.98 -44.62,25 -14.5,8.76 -30.09,15.75 -45.33,24.28 -38.66,21.65 -108.24,47.24 -150.44,58.41 -92.37,24.44 -158.58,22.84 -255.32,23.23l-130.74 -8.48c4.41,6.59 28.46,24.68 35.97,29.43 56.45,35.8 122.83,63.9 190.33,75.47 41.99,7.2 78.58,13.29 121.78,13.23 11.27,-0.01 22.56,0.09 33.83,0.07 13.39,-0.01 17.49,-2.3 31.57,-2.19 17.05,0.14 43.09,-3.66 58.55,-6.84 86.82,-17.87 167.31,-49.54 245.95,-89.46 8.58,-4.35 12.78,-7.56 21.76,-11.99 50.72,-25.08 98.93,-57.17 145.84,-88.31l38.71 -26.69c81.84,-60.78 156.07,-115.7 233.33,-184.36 4.22,-3.76 5.22,-3.67 9.45,-7.43 3.47,-3.08 4.92,-5.26 8.55,-8.32l95.85 -87.67c6.68,-6.72 11.31,-9.05 17.99,-15.77l67.48 -67.54c9.19,-9.19 26.9,-24.83 33.22,-34.28 52.04,34.85 103,73.7 154.01,109.67l95.24 67.2c79.6,59.08 89.63,58.87 162.68,134.76 26.68,27.72 52.82,57.4 82.32,82.22 58.53,49.23 115.82,77.02 181.21,116.23 96,57.56 164.44,101.68 294.91,101.67 28.2,0 100.61,1.7 125.35,5.44 68.15,10.31 155.97,-18.46 215.71,-48.31 18.02,-9 72.16,-39.1 80.84,-52.06l-63.86 3.65c-10.77,1.47 -22.28,0.49 -33.25,0.5 -13.57,0.02 -18.86,2.3 -33.65,2.21 -157.98,-0.9 -217.2,-1.27 -360.15,-57.58 -9.51,-3.75 -14.33,-6.25 -23.08,-10.67 -8.42,-4.25 -14.84,-6.31 -23.24,-10.5 -16.33,-8.16 -29.12,-15.49 -45.71,-23.9l-32.35 -18.28c-54.91,-30.5 -176.74,-101.69 -207.4,-159.66 11.98,0.27 21.38,4.94 35.67,6.53 10.86,1.2 26.81,3.75 38.09,4.09 26.89,0.8 57.07,0.05 81.14,-3.37 111.24,-15.82 139.78,-22.69 245.45,-51.99 93.27,-25.85 183.19,-66.76 263.72,-120.22 93.11,-61.81 175.17,-138.97 270.02,-198.28 9.72,-6.08 17.35,-11.3 27.16,-17.15 70.18,-41.81 146.84,-81.56 230.33,-109.3 81.04,-26.92 166.14,-43.85 253.5,-43.94 14.52,-0.02 25.05,-2.2 42.12,-2.19 30.1,0.04 52.42,2.25 82.28,2.1l80.26 4.13c29.54,2.44 133.45,1.7 167.46,-3.19l74.69 -9.69c22.95,-3.22 48.87,-9.8 71.88,-14.61 22.75,-4.75 45.16,-11.17 68.57,-15.8 13.23,-2.62 22.61,-3.86 35.86,-6.33 8.77,-1.63 30.43,-3.14 34.97,-9.33 -12.23,-3.27 -47.33,-33.23 -59.05,-42.2 -21.83,-16.7 -120.87,-51.56 -143.71,-58.8 -13.17,-4.18 -69.31,-21.35 -82.02,-17.52l-0.01 0.01z"/>
  <path class="fil1" d="M4691.41 6679.69c17.73,-11.87 68.46,-101.65 86.47,-128.7 28.82,-43.29 54.55,-88.3 83.55,-131.62 14.95,-22.33 28.73,-41.94 43.46,-64.13 7.23,-10.91 13.89,-20.27 21.87,-30.86l94.21 -123.07c17.74,-21.75 55.51,-68.43 74.91,-87.51 5.87,-5.77 6.66,-7.56 11.71,-13.61l106.46 -110.82 73.73 -61.28c30.9,-22.96 62.65,-46.96 95.63,-66.8 11.16,-6.71 21.81,-12.65 33.24,-19.5 33.64,-20.18 75.71,-41.21 114.33,-50.21l-85.96 91.24c-30.11,30.06 -57.41,61.95 -87.56,91.75l-64.33 68.57c-15.4,15.34 -28.08,32.02 -42.06,48.64l-101.42 122.18c-33.64,41.22 -65.65,83.2 -92.41,129.09 -6.37,10.92 -10.77,18.69 -17.11,29.31l-100.73 167.19c-6.04,10.05 -10.67,17.68 -16.63,27.67 -5.09,8.53 -14.06,20.98 -16.21,30.19 46.79,-3.89 95.83,-15.01 137.13,-25.3 104.37,-26.03 203.13,-64.93 302.57,-104.57l112.3 -50.13c19.35,-9.75 35.78,-18.02 55.52,-26.75l53.65 -28.61c54.48,-32.53 94.38,-50.84 150.08,-94.62l118.53 -105.07c21.78,-19.19 40.06,-41.62 60.13,-62.23l62.31 -83.24c27.12,-40.68 52.49,-83.8 75.67,-126.84l66.79 -137.83c27.29,-54.5 55.61,-107.67 86.98,-159.83 50.23,-83.52 57.18,-79.44 100.5,-144.2 5.77,-8.63 10.33,-15.13 15.76,-24.32 4.58,-7.75 13.31,-18.79 15.44,-26.75 -13.44,0 -23.92,-0.11 -34.33,-1.53l-73.26 -2.68c-15.35,0.07 -22.93,-2.04 -35.77,-2.2 -50.04,-0.61 -94.51,-4.14 -145.65,-4.14 -144.08,0 -228.03,3.36 -363.68,37.13 -21.62,5.38 -41.14,11.24 -60.59,17.46 -59.51,19.02 -117.89,40.02 -174.86,65.63 -88.37,39.69 -174.11,87.41 -253.11,143.47 -8.08,5.74 -15.33,10.44 -23.5,16.58 -7.93,5.96 -15.21,11.43 -22.89,17.18 -30.54,22.85 -58.68,47.07 -85.96,74.36 -32.99,33 -65.82,67.75 -88.43,109.87l-9.72 19.54c-6.57,10.14 -33.5,34.76 -44.2,46.78 -3.82,4.28 -4.47,6 -8.48,10.5 -34.61,38.74 -61.23,88.48 -84.54,134.85l-35.79 82.34c-4.07,10.37 -6.44,19.22 -10.53,29.54 -22.72,57.39 -37.96,128.56 -50.2,190.28 -4.32,21.79 -7.85,45.63 -10.74,69.42 -10.52,86.69 -12.27,140.46 -12.27,228.21l-0.01 0z"/>
  <path class="fil1" d="M2430.01 5397.11c4.46,19.15 49.85,76.22 63.59,94.62l40.2 56.83c50,79.77 88.98,165.4 129.63,250.09 25.62,53.37 55.22,102.94 85.21,153.16 9.41,15.75 21.24,32.45 31.94,48.22 25.87,38.16 77.06,99 111.72,126.65 14.51,11.57 27.48,26.54 41.36,38.8l63.8 54.33c7.33,5.72 14.23,12.13 22.33,17.75 31.64,21.92 63.97,44.04 97.9,62.41l50.22 27.83c15.91,9.69 36.35,18.62 53.15,27.02 109.26,54.63 219.86,101.05 338.32,140.54 62.72,20.91 190.13,59.86 258.67,59.86 -4.76,-9 -10.28,-16.76 -15.96,-26.23l-47.44 -79.13c-10.64,-17.78 -47.82,-74.78 -55.37,-92.3 -6.37,-14.81 -13.1,-29.33 -23.16,-42.04l-169.73 -214.39c-26.62,-29.89 -50.54,-61.32 -79.12,-89.65 -43.19,-42.8 -82.25,-88.95 -125.52,-131.83 -8.09,-8.02 -12.15,-14.4 -20.02,-22.17l-62.78 -65.9c76.96,17.94 166.35,80.44 229.61,126.9 7.22,5.3 13.8,9.15 20.78,15.08 32.24,27.43 66.18,53.28 96.09,83.2 23.6,23.61 50.16,43.82 73.84,67.5 12.46,12.46 23.46,23.36 35.84,35.88 7.02,7.1 12.15,9.86 19.02,16.85 17.9,18.2 40.28,32.51 63.42,44.17 9.09,4.58 16.23,7.38 25.02,10.84 10.72,4.22 12.8,8.52 18.93,16.92l41.96 65.62c4.69,8.26 11.18,14.75 14.67,23.3 -11.96,-4.98 -15.13,-4.97 -21.07,-14.78 -16.92,-27.89 -32.62,-58.3 -53.56,-83.56 -7.52,-9.07 -52.7,-25.59 -67.04,-36.33 -26.43,-19.8 -49.78,-40.95 -72.98,-64.14l-51.79 -49.47c-6.11,-5.17 -12.7,-13.32 -20.47,-15.39 3.52,5.26 10.53,13.45 15.3,18.46l65.76 73.47c15.41,19.92 33.18,36.71 48.84,56.63 5.24,6.66 9.81,12.39 15.19,18.56 6.34,7.26 9.8,12.5 15.89,19.97 63.47,77.93 120.5,160.7 174.03,245.76l108.85 171.72c8.69,13.24 18.77,32.89 30.79,40.94l-2.11 -135c-0.45,-9.32 -1.87,-8.76 -2.13,-18.97 -1.89,-73.69 -26.06,-195.79 -47.72,-268.7 -20.51,-69.01 -46.37,-134.11 -78.11,-198.22 -5.07,-10.25 -8.99,-15.76 -14.06,-26.03 -4.66,-9.44 -9.1,-15.31 -14.18,-23.79l-50.22 -70.02c-15.3,-18.94 -26.11,-23.19 -33.25,-44.82 -3.04,-9.22 -8.26,-19.13 -12.78,-27.29 -61.93,-111.51 -207.61,-213.37 -316.2,-278.67 -17.44,-10.49 -33.06,-19.33 -50.87,-29.3 -34.98,-19.57 -71.04,-35.72 -107.55,-52.77 -9.03,-4.22 -17.89,-8.22 -26.3,-11.67 -9.96,-4.07 -18.18,-7.99 -28.45,-11.63 -158.78,-56.27 -275.9,-96.24 -460.68,-96.24l-82.26 0c-51.13,0 -95.61,3.52 -145.64,4.14 -12.61,0.15 -18.85,2.3 -33.66,2.21 -39.15,-0.22 -70.6,4.2 -109.7,4.2l0 0.02z"/>
  <path class="fil0" d="M2719.02 4757.93c8.92,-0.75 25.28,-9.32 33.75,-12.66 20.98,-8.28 63.13,-29.03 82.37,-33.65 32.13,-7.7 62.46,-13.38 93.47,-22.55 35.32,-10.44 70.7,-22.61 102.61,-38.72 60.51,-30.56 116.4,-68.41 166.15,-114.42 8.56,-7.92 15.49,-16.8 24.33,-24.19 29.2,-24.41 55.05,-53.5 82.13,-80.3 5.49,-5.43 8.38,-6.54 13.78,-11.53 15.43,-14.26 30.92,-33.72 46.59,-46.22 17.89,-14.27 32.15,-30.3 48.29,-46.63l226.74 -218.36c5.22,-5.17 7.51,-5.97 12.69,-10.52 16.72,-14.72 30.78,-32.71 47.5,-47.43 20.03,-17.65 39.68,-41.14 59.26,-56.76 25.59,-20.41 80.38,-77.68 107.33,-103.62l60.26 -57.87c5.51,-4.61 7.23,-5.22 12.59,-10.61 16.22,-16.31 30.35,-32.36 48.27,-46.65 16.29,-13 30.39,-32.45 46.72,-46.1 25.64,-21.44 136.51,-128.19 145.45,-137.22 8.61,-8.68 15.66,-13.45 24.27,-22.14 23.37,-23.57 49.14,-45.59 69.82,-71.51 14.43,-18.09 43.93,-45.55 65.99,-73.24 6.96,-8.74 14.03,-19.63 22.93,-25.59 31.44,46.96 184.93,188.1 231.52,234.69l94.93 90.71c16.51,16.51 31.99,29.89 48.52,46.41 62.24,62.24 128.65,120.22 190.91,182.47 46.74,46.74 96.77,90.44 143.45,137.11l24.17 22.24c12.63,10.56 23.96,24.31 35.91,35.81l35.9 33.71c4.37,4.37 7.21,7.33 11.56,11.65l35.9 33.71c4.34,4.34 7.13,7.39 11.56,11.64l84.42 80.12c4.26,4.26 7.23,7.61 11.57,11.63 5.12,4.74 7.52,5.47 12.72,10.48 8.33,8.02 14.97,15.06 23.17,23.25 4.34,4.34 7.14,7.38 11.56,11.64l84.95 79.59c17.57,13.41 78.45,78.52 95.81,91.93l50.21 42.61c73.71,64.37 169.65,98.18 267.36,108.13l66.26 26.56c22.13,7.87 46,20.79 68.83,26.11 -8.89,-13.26 -86.26,-88.73 -101.57,-100.94 -36.33,-28.98 -67.59,-71.31 -102.54,-102.08 -5.56,-4.89 -8.1,-5.93 -13.72,-11.59l-140.25 -138.2c-17.75,-17.75 -33.94,-33.94 -51.68,-51.69l-153.99 -149.77c-25.52,-25.52 -49.93,-53.13 -77.01,-76.98 -5.56,-4.89 -8.1,-5.93 -13.72,-11.59 -4.74,-4.76 -7.89,-7.96 -12.63,-12.69 -17.74,-17.75 -33.94,-33.94 -51.68,-51.68l-38.82 -37.13c-19.68,-15.7 -45.92,-45.5 -64.55,-64.13 -17.4,-17.4 -33.23,-33.2 -50.59,-50.66l-231 -226.77c-5.4,-5 -8.29,-6.1 -13.78,-11.53 -34.09,-33.72 -66.46,-70.66 -103.23,-101.39 -35.19,-29.42 -92.67,-98.06 -127.82,-127.44 -30.83,-25.76 -231.89,-228.11 -242.86,-242.32 -6.44,-8.35 -44.49,-46.59 -51.85,-51.52 -5.69,1.52 -10.45,6.45 -15.07,10.25 -20.37,16.74 -39.21,36.63 -53.05,48.2l-182.28 174.22c-22.33,18.67 -141.67,141.47 -166.74,166.56l-369.21 369.13c-5.43,5.49 -6.54,8.37 -11.53,13.78 -8.61,9.31 -17.32,17.26 -26.4,26.34 -68.37,68.38 -135.2,135.2 -203.57,203.56l-528.44 519.97c-16.68,16.87 -35.31,32.56 -50.52,50.75 -11.43,13.67 -25.81,27.49 -34.37,43.68l0 0.02z"/>
  <path class="fil0" d="M6030.94 9067.65l251.04 0c10.34,0 6.33,-23.96 6.33,-44.3l4.22 -759.43c2.64,11.34 14.95,36.92 20.19,49.42l150.09 351.98c29.12,67.48 57.74,132.8 86.18,200.72l85.28 201.61 295.33 0 0 -1101.16 -255.25 0 0 658.17c-9.04,-2.41 -12.86,-19.77 -20.38,-36.58 -32.68,-73.12 -73.43,-173.01 -105.29,-249.11l-139.54 -330.88c-3.13,-7.26 -6.06,-13.93 -8.97,-20.56 -2.52,-5.73 -7.15,-15.25 -8.49,-21.04l-360.73 0 0 1101.16 0 0.01z"/>
  <path class="fil0" d="M3029.12 9061.33c0,4.86 1.47,6.33 6.33,6.33l251.03 0 0 -803.73c5.01,1.82 1.7,-0.17 4.84,3.6l40.86 94.16c7.78,17.41 13.74,33.04 21.22,50.49l151.74 354.53c39.96,89.85 79.06,186.96 118.8,277.79 2.73,6.24 6.96,23.15 14.82,23.15l289 0 0 -1101.16 -255.24 0 0 658.16c-7.94,-2.12 -3.91,1.24 -11.76,-17.77l-149.15 -352.91c-6.3,-14.68 -11.5,-26.51 -17.48,-41.58 -5.88,-14.78 -11.89,-27.72 -17.47,-41.59l-70.21 -166.05c-4.45,-10.87 -13.48,-38.25 -20.82,-38.25l-356.5 0 0 1094.83 0.01 -0z"/>
  <path class="fil1" d="M4073.32 815.27c12.46,0.28 18.98,7.73 34.2,-16.43 12.81,-20.34 24.15,-34.51 41.22,-51.6 7.45,-7.46 10.82,-10.19 18.89,-16.97 4,-3.36 5.71,-6 9.66,-9.33 7.7,-6.51 29.82,-18.69 34.77,-26.41 10.68,-16.65 -4.61,-7.76 28.43,-41.18 7.28,-7.36 12.81,-10.54 20.08,-17.9 6.27,-6.35 11.41,-11.96 17.88,-17.98l32.07 -24.88c0.31,-0.31 0.73,-0.77 1.02,-1.09 0.41,-0.46 1.51,-1.85 1.88,-2.33 1.64,-2.16 2.79,-4.06 4.22,-6.33 30.82,-49.28 76.25,-83.43 105.28,-9.57 1.82,4.62 2.13,5.73 3.89,10.89 6.3,18.56 10.29,5.29 24.72,19.57l105.41 101.32c10.3,10.43 19.17,19.19 29.52,29.54 5.43,5.43 9.35,9.32 14.76,14.77 6.42,6.48 8.88,8.07 15.73,13.8 19.94,16.67 38.49,39.82 58.08,57.94 6.03,5.58 9.67,7.39 15.87,13.67l44.28 44.31c10.46,10.53 19.89,17.78 30.59,28.48l44.26 44.35c6.04,5.98 10.06,7.67 15.94,13.59 12.54,12.63 13.22,14.7 22.24,28.39 2.63,3.99 0.8,1.77 3.52,4.91 -10.7,15.97 -6.42,13.4 -22.92,34.04 -24.19,30.3 -45.6,51.95 -68.41,79.25 -4.48,5.36 -9.62,9.85 -14.69,14.85l-100.2 104.42c-6.47,6.42 -8.07,8.87 -13.8,15.73l-194.01 185.7c-7.86,7.93 -42.51,38.53 -50.07,38.53 -16.74,0 -36.57,2.61 -50.75,-8.33 -9.62,-7.42 3.36,-5.29 -5.25,-19.99 -4.79,-8.17 -9.84,-6.46 -18.53,-11.06 -16.79,-8.87 -36.18,-26.48 -48.33,-40.27l-13.74 -15.79c-28.84,-30.83 -38.76,-44.11 -74.66,-73.02 -20.17,-16.23 -43.54,-39.44 -57.08,-61.05 -22.21,-35.42 -46.28,-46.82 -73.96,-73.7 -12.8,-12.42 -36.05,-30.13 -45.33,-43.27 -5.41,-7.67 -4.46,-13.64 -10.65,-18.88 -3.5,-2.96 -18.19,-9.61 -34.7,-24.36 -19.56,-17.46 -60.49,-57.9 -62.74,-84.92 5.68,-1.51 62.39,-50.95 70.16,-58.52l28.5 -24.3c9.78,-7.88 5.69,-6.69 4.71,-18.44 6.43,0.15 7.69,0.95 12.66,2.1 -0.68,-8.2 -1.9,-5.49 -2.11,-14.76 9,0.75 9.98,3.47 18.98,4.22 -1.93,-4.02 -3.76,-11.27 -4.22,-16.88 9,0.74 9.98,3.47 18.98,4.22 -1.59,-6.82 -3.59,-9.25 -4.22,-16.88 7.62,0.63 10.06,2.63 16.87,4.22 -0.64,-7.62 -2.63,-10.06 -4.22,-16.87 9.51,0.21 11.15,2.39 18.99,4.22 -2.21,-4.59 -4.06,-12.14 -4.22,-18.99 5.02,1.17 10.61,2.22 14.77,4.22 -0.13,-5.81 -2.43,-14.99 -4.22,-18.99l-0.03 0.01zm-455.65 177.2c14.08,26.61 37.8,60.24 59.57,81.76l157.2 150.8c23.87,21.02 42.53,42.7 62,58.24l118.35 117.92c9.02,9.04 16.59,14.36 25.32,23.19l142.59 142.19c17.33,13.81 75.65,73.96 95.77,94.08 16.33,16.33 31.15,31.12 47.46,47.46l49.04 45.89 328.6 -319.02c16.02,-15.86 30.4,-30.49 46.37,-46.46l117.07 -114.97c8.61,-8.69 15.65,-13.45 24.27,-22.13l181.41 -189.87c8.25,-8.25 14.98,-14.94 23.2,-23.2 4.41,-4.43 6.81,-7.28 11.97,-11.24 6.26,-4.78 7.57,-5.18 11.76,-11.44 -10.2,-19.28 -25.19,-37.16 -39.54,-53.28l-231 -243.63c-32.15,-32.15 -62.77,-62.77 -94.93,-94.93 -8.25,-8.25 -14.95,-14.95 -23.2,-23.2 -4.34,-4.34 -7.13,-7.39 -11.56,-11.65 -5.2,-5.01 -7.61,-5.74 -12.72,-10.48l-70.64 -70.69c-9.02,-9.04 -16.6,-14.36 -25.32,-23.19l-207.81 -195.1c-10.74,-9.56 -28.53,-24.78 -40.57,-31.15 -11.71,7.84 -57.47,50.75 -73.21,63.91 -17.94,15 -102.57,100.28 -117.17,114.87 -15.63,15.63 -29.72,29.72 -45.35,45.36 -13.69,13.69 -34.8,32.2 -46.04,46.78l-285.17 292.83c-4.89,5.29 -5.24,7.9 -10.5,12.71 -39.75,36.37 -68.98,69.23 -106.54,102.3l-23.31 23.1c-5.56,4.65 -7.2,5.17 -12.57,10.63l-24.77 21.64 -0.02 -0.03z"/>
  <path class="fil0" d="M7543.46 8158.45l35.69 135.18c13.16,63.75 33.44,136.85 47.1,201.81l48 205.14 -255.25 0c42.09,-180.69 82.42,-361.66 124.46,-542.14zm-476.75 909.2l265.8 0c3.28,-14.09 48.16,-205.63 52.74,-215.17l324.87 0 50.63 215.17 286.89 0c-0.86,-10.33 -5.91,-23.47 -8.44,-33.76l-64.97 -240.9c-11.52,-46.84 -25.37,-90.91 -37.13,-137.95 -11.76,-47.04 -24.97,-91.72 -37.11,-137.98l-147.67 -550.57 -390.26 0c-0.81,9.77 -5.87,24.05 -8.43,33.76l-55.61 205.97c-3.52,12.08 -6.71,24.05 -9.38,34.92 -11.52,46.86 -25.41,90.71 -37.11,137.98l-55.69 205.89c-6.41,23.54 -11.49,44.57 -18.2,68.29l-110.91 414.35 -0.01 0z"/>
  <path class="fil0" d="M2387.83 8158.45c8.4,2.24 6.29,3.15 11.76,28.31 16.86,77.47 40.43,164.42 55.91,239.42 13.12,63.54 35.04,141.37 48.17,204.97 2.49,12.06 5.82,23.33 8.09,34.1 2.47,11.72 6.85,23.52 6.85,35.34l-253.14 0c0,-18.89 121.91,-522.05 122.35,-542.14l0 -0zm-470.42 909.2l255.25 0c8.76,0 13.16,-33.64 17.3,-50.2 4.31,-17.23 8.38,-35.66 13.07,-54.43l19.83 -81.43c2.25,-9.01 6.03,-20.34 6.76,-29.1l324.86 0 46.01 190.26c2.14,8.68 2.36,24.91 10.95,24.91l280.56 0c0,-12.89 -4.62,-22.74 -7.58,-34.61 -19.94,-79.74 -45.18,-161.79 -65.39,-242.59 -5.84,-23.33 -11.78,-45.09 -18.48,-68.01 -32.02,-109.58 -61.24,-233.74 -92.96,-345.81l-37.33 -137.76c-3.1,-10.44 -5.58,-21.78 -8.93,-33.26l-18.67 -69.93c-11.21,-41.15 -33.06,-115.93 -41.71,-154.48 -1.59,-7.13 -0.95,-14.72 -8.48,-14.72l-379.71 0c-7.76,0 -9.04,14.8 -12.66,29.54l-74.73 277.56c-35.48,125.37 -68.41,256.45 -102.91,382.28 -29.88,108.94 -66.53,239.29 -93.63,347.26l-14.09 51.54c-1.82,6.16 -6.43,12.98 2.68,12.98l0 0z"/>
  <polygon class="fil0" points="5087.99,9067.65 5868.51,9067.65 5868.51,8909.43 5374.89,8909.43 5374.89,8571.92 5767.26,8571.92 5767.26,8413.7 5374.89,8413.7 5374.89,8124.7 5868.51,8124.7 5868.51,7966.49 5087.99,7966.49 "/>
  <polygon class="fil0" points="4064.89,8124.7 4364.43,8124.7 4364.43,9067.65 4651.32,9067.65 4651.32,8124.7 4950.88,8124.7 4950.88,7966.49 4064.89,7966.49 "/>
  <polygon class="fil0" points="1082.04,9067.65 1839.36,9067.65 1839.36,8909.43 1368.94,8909.43 1368.94,7966.49 1082.04,7966.49 "/>
  <path class="fil2" d="M3017.94 2678.59l1179.31 3.15c-6.35,-63.89 -48.83,-132.2 -96.96,-172.09 -70.94,-58.8 -106.61,-53.61 -216.7,-51.22 -11.8,-31.2 -60.93,-83.32 -82.32,-101.13 -31.71,-26.39 -70.42,-52.15 -116.35,-69.36 -100.91,-37.8 -214.76,-29.86 -302.18,17.97 -36.54,20 -80.28,43.03 -102.65,80.89 -22.31,37.77 -47.32,77.22 -67.65,117.95 -2.03,4.06 -5.09,12.03 -7.41,15.81 -5.12,8.36 -4.94,4.19 -16.13,7.12 -11.37,2.98 -23.94,7.67 -34.75,11.56 -10.83,3.9 -23.78,7.14 -32.8,13.64 -29.06,20.91 -100.64,92.16 -103.41,125.72l-0.01 -0z"/>
  <path class="fil1" d="M5410.75 6958.78c26.35,-6.43 61.37,-40.28 83.67,-58.25l143.19 -116.21c5.58,-4.61 10.68,-8.57 16.3,-13.29 6.07,-5.09 10.14,-9.05 16,-13.44 11.39,-8.54 20.38,-14.85 33.55,-23.5l69.21 -44.53c135.78,-80.86 207.18,-112.91 364.85,-156 196.9,-53.82 412.84,-84.28 619.09,-65.21l-11.37 -9.39c-5.5,-3.57 -6.44,-4.46 -12.09,-6.83 -80.42,-33.72 -128.48,-42.41 -220.6,-55.74 -21.74,-3.15 -45.39,-5.35 -69.63,-8.43l-89.2 -7.83c-9.19,-0.44 -7.71,-1.62 -16.88,-2.1 -6.15,-0.33 -12.86,0.34 -19.01,0.02 -9.27,-0.49 -8.81,-1.89 -18.91,-2.18 -77.24,-2.27 -154.52,-3.87 -230.12,2.06 -78.12,6.13 -151.42,17.07 -224.22,52.12 -32.19,15.5 -72.58,36.94 -102.23,55.98l-71.71 46.42c-16.52,10.36 -32.02,19.22 -48.5,29.55l-151.58 84.69c-10.11,5.13 -17.3,8.8 -26.15,13.94l-285.29 147.15 -272.1 118.16c-3.94,2.52 -1.5,0.83 -3.64,2.69 43.44,10.12 147.36,22.1 192.01,23.17 11.69,0.28 19.12,2.24 33.71,2.16 14.53,-0.09 22.37,1.5 33.74,2.12 18.28,0.99 119.54,0.2 140.78,-2.69 21.23,-2.89 42.66,-3.85 63.67,-8.06 17.41,-3.49 48.12,-9.28 63.48,-1.91l0 15.41 -0.01 -0.02z"/>
  <path class="fil1" d="M2003.52 6458.19c3.44,1.59 185.57,8.33 211.39,10.92 167.96,16.84 307.18,38.85 467.08,91.99 96.41,32.04 144.98,58.06 228.69,106.42l266.06 181.11c21.42,16.61 40.3,31.95 58.46,53.25 16.26,19.06 39.41,38.35 63.26,47.67l-0.04 21.66 21.8 -4.63c5.17,-16.92 6.26,-19.37 0,-25.3 25.54,0 41.43,2.27 63.35,4.16l62.63 6.99c21.4,2.76 41.29,2.28 66.01,3.6 10.8,0.59 17.83,2.13 31.66,2.16 14.75,0.03 20.15,-2.2 33.66,-2.21 68.66,-0.09 153.56,-10.43 223.06,-19.53 9.69,-1.28 19.87,-3.6 32.26,-3.6l-52.41 -27.75c-18.19,-7.28 -36.83,-14.26 -56.08,-21.98 -19.03,-7.64 -36.07,-13.34 -54.56,-21.38 -66.86,-29.08 -139.53,-68.58 -206.12,-101.87l-278.56 -145.44c-36.53,-21.03 -115.68,-69.17 -145.43,-84.5l-50.24 -27.81c-49.6,-29.96 -132.81,-66.76 -186.29,-83.73 -80.9,-25.68 -113.23,-25.93 -192.59,-37.35 -10,-1.44 -26.46,-2.17 -35.1,-2.87 -6.12,-0.5 -12.76,0.21 -18.88,-0.11 -9.27,-0.48 -8.8,-1.89 -18.91,-2.19 -51.21,-1.53 -103.22,0.65 -152.02,2.11l-142.49 11.51c-69.12,9.42 -155.04,20.29 -216.09,51.81 -6.63,3.42 -18.88,11.44 -23.55,16.91l-0.01 0.01z"/>
  <path class="fil0" d="M2484.86 9746.91l0 -223.61c81.22,0 191.96,-10.21 191.96,97.04 0,25.6 1.59,29.94 -6.03,55.15 -8.38,27.76 -28.07,43.94 -56.43,53.26 -35.42,11.65 -86.92,14.61 -129.51,18.15l0.01 0.01zm-156.1 521.05c25.85,-2.15 153.99,-58.13 153.99,-75.94l0 -299.55 37.97 2.11c86.97,0 185.98,-22.49 249.45,-85.96 94.39,-94.39 84.11,-279.03 -4.18,-363.94 -80.2,-77.12 -246.61,-67 -354.97,-66.93 -28.12,0.01 -52.24,-2.11 -82.27,-2.11l0 892.32 0 -0.01z"/>
  <path class="fil0" d="M3067.09 9523.3c99.35,0 172.98,-18.35 172.98,75.94 0,31.28 -15.5,52.65 -35.94,63.2 -33.41,17.25 -91.5,14.85 -132.82,14.85 0,-28.11 -2.13,-49.39 -2.11,-75.94 0.01,-28.63 -2.11,-51.44 -2.11,-78.06l0 0.01zm-151.88 -145.56l0 677.15c0,8.59 6.67,5.26 16.74,4.23 22.41,-2.31 45.74,-4.83 68.08,-10.11 70.65,-16.71 66.3,-40.63 72.51,-81.51 2.4,-15.82 -2.89,-55.25 -3.41,-72.87 -0.26,-8.87 0.75,-18.43 -0.24,-27.18 -1.77,-15.74 -1.8,-32.2 -1.8,-50.94l75.94 2.11c2.6,11.14 31.15,68.62 37.97,82.27 4.73,9.47 9.03,16.61 14.07,26 5.3,9.86 8.82,16.39 14.08,26.01l43.57 76.67 153.99 -2.1c0,-34.34 -75.31,-146.38 -103.37,-208.85 -4.9,-10.91 -7.09,-23.22 -12.66,-33.74l28.88 -21.75c34.81,-28.34 51.41,-49.87 63.54,-94.67 8.53,-31.48 13.18,-82.27 7.7,-116.61 -13.37,-83.85 -58.91,-124.44 -135.09,-153.91 -49.68,-19.22 -126.73,-26.52 -192.87,-26.52 -27.04,0 -49.1,2.28 -73.85,2.1 -24.85,-0.19 -49.19,4.23 -73.81,4.23l0.01 -0.01z"/>
  <path class="fil2" d="M2846.69 3188.11c-72.09,6.42 -145.09,30.11 -192.85,80.72 -153.66,162.8 -48.26,480.23 208.43,463.05 82.14,-5.5 150.26,-40.72 188.72,-82.76 40.9,-44.71 74.71,-112.47 72.45,-199.16 -4,-152.83 -114.73,-276.28 -276.75,-261.86l0 0z"/>
  <path class="fil0" d="M5347.47 9519.09c9.22,0.2 13.17,2.2 25.26,2.15 9.87,-0.04 19.72,-0.05 29.58,-0.05 45.86,-0.01 111.81,3.38 111.81,63.28 0,33.54 -4.26,59.53 -39.13,74.78 -30.68,13.41 -87.39,11.71 -125.41,11.71l-2.11 -151.89 0 0.01zm-151.89 -141.34l0 649.73c28.1,0 49.4,-2.13 75.94,-2.11 12.67,0.01 25.37,0.08 38.04,0.07 13.93,-0.02 21.93,-2.19 37.9,-2.19 0,-73.24 2.11,-139.65 2.11,-213.06l37.97 0c15.28,0 21.12,2.11 35.86,2.11 9.45,17.85 18.41,36.71 27.43,54.85 9.33,18.76 19.82,35.65 30.18,54.2 10.46,18.72 20.75,35.76 30.89,53.49 9.78,17.1 19.26,39.25 29.63,54.74 13.37,0 26.75,-0.01 40.13,0.05 14.98,0.07 21.85,-2.25 37.91,-2.17l59.15 0.08c10.28,-0.3 9.78,-1.97 18.92,-2.18l-92.85 -179.28c-35.75,-68.68 -35.43,-58.03 -15.23,-80.68 3.38,-3.79 4.64,-4.45 8.04,-8.84 13.83,-17.81 25.95,-24.5 40.34,-48.26 54.5,-89.95 32.81,-221.74 -51.48,-284.78 -67.05,-50.15 -158.97,-49.94 -253.77,-50 -17.59,-0.02 -29.37,2.16 -44.23,2.19 -15.48,0.02 -31.03,-0.01 -46.52,-0.1 -16.98,-0.09 -27.77,2.14 -46.38,2.14l0.02 0z"/>
  <path class="fil0" d="M3623.99 9732.14c0,-50.45 -0.38,-134.21 20.39,-171.58 24.94,-44.86 159.01,-96.58 203.26,23.89 15.2,41.41 21.23,168.66 7.92,225.25 -7.56,32.17 -26.25,60.09 -57.02,73.77 -58.01,25.79 -120.4,11.44 -147.8,-34.62 -9.29,-15.61 -15.07,-31.66 -19.2,-52.53 -4.1,-20.74 -7.54,-40.35 -7.54,-64.19l0 -0zm-147.67 -61.18c0,103.33 -10.63,190.8 52.7,274.28l32.19 33.2c117.69,110.32 391.72,82.96 435.66,-124.45 13.59,-64.14 18.73,-255.61 -4.58,-317.18 -7.22,-19.09 -12.96,-31.31 -22.44,-47.18 -4.22,-7.06 -8.67,-12.45 -13.8,-19.94 -10.67,-15.58 -38.77,-39.57 -54.49,-50.98 -89.62,-65.09 -234.69,-67.13 -327.63,1.81 -82.2,60.97 -97.62,147.73 -97.62,250.46l0.01 0z"/>
  <path class="fil0" d="M839.45 3671.54l20.47 17.5c6.7,5.6 12.75,12.56 19.08,18.89 32.63,32.63 82.11,82.76 103.89,123.93l-145.56 147.66c-5.72,-21.43 -47.03,-64.89 -63.8,-79.65 -12.8,-11.26 -67.69,-61.3 -70.36,-75.23 -1.16,-6.04 7.91,-17.61 11.34,-22.78 5.17,-7.76 9.94,-12.96 16.8,-19.06 4.05,-3.6 5.15,-3.84 9.84,-7.03 35.88,-24.47 57.18,-62.3 79.81,-84.73 6.7,-6.63 13.43,-11.99 18.46,-19.51l0 -0zm-411.35 160.33c11.06,0.24 35.03,7.85 45.64,11.31 8.07,2.64 15.11,5.07 22.15,7.38 46.37,15.26 92.24,42.74 130.55,71.97 29.62,22.6 42.71,41.11 64.87,65.93 14.95,16.74 7.59,9.56 19.16,25.15 17.3,23.31 29.53,45.44 43.22,72.81 26.93,53.87 47.26,110.31 63.8,168.24 4.6,16.11 23.83,82.23 24.1,94.04l29.01 -93.35c18.82,-89.48 51.03,-180.9 110.71,-247.9l44.3 -44.3c51.88,-46.23 107.15,-71.84 170.99,-96.91 26.24,-10.3 42.35,-14.21 67.14,-21.46 4.98,-1.46 5.71,-1.63 11.67,-3.1 9.94,-2.46 6.64,0.76 11.29,-5.59 -21.3,-4.96 -144.75,-63 -174.2,-81.05l-28.23 -18.18c-23.57,-15.27 -55.49,-48.13 -75.52,-67.93 -6.55,-6.47 -8.67,-10.69 -14.71,-16.94 -77.31,-80.05 -101.56,-185.36 -125.47,-290.1 -7.86,-34.43 -12.51,-73.1 -20.65,-108.02 -1.6,2.52 -0.33,-0.24 -1.97,4.35 -7.73,21.57 -33.03,143.29 -49.42,193.17 -35.8,108.91 -54.46,156.8 -140.07,233.31 -11.19,10 -22.72,17.17 -34.86,26.32 -13.35,10.06 -23.45,16.56 -37.77,25.52 -6.56,4.1 -10.99,7.43 -17.7,11.83l-39.49 23.79c-14.38,7.98 -94.76,54.63 -98.5,59.72l-0.02 -0z"/>
  <path class="fil0" d="M4653.44 10023.25c0,12.22 26.23,3.93 50.32,6.63l110 3.91c63.44,-0.15 243.83,4.67 280.56,-14.78l-2.11 -139.22 -282.67 2.11 0 -116.03 236.26 -2.11c0,-13.38 2.11,-17.61 2.11,-31.64l0 -88.6c0,-7.66 -2.5,-7.4 -4.22,-14.76 -12.04,0 -14.59,-2.11 -27.43,-2.11l-202.51 0 -2.11 -103.37c25.22,0 46.94,1.69 73.92,2.03 12.82,0.16 20.45,2.26 35.77,2.2 33.36,-0.12 144.19,2.76 165.31,-7.67 18.86,-9.32 14,-110.62 14,-129.45 0,-7.28 -1.56,-8.17 -2.11,-14.76l-445.11 0 0 647.62 0.01 0z"/>
  <path class="fil0" d="M7754.41 3789.67c10.74,-5.68 11.07,-8.58 19.49,-16.38 4.55,-4.22 6.06,-4.46 10.56,-8.43 15.8,-13.91 62.6,-64.67 75.12,-74.66l41.27 -34.67c5.47,-4.18 5.73,-5.58 11.78,-7.2 9.15,13.67 21.41,28.86 33.22,40.61 6.86,6.82 12.16,12.12 18.98,18.98 28.4,28.57 70.92,56.08 82.8,107.06 -50.97,26.97 -83.45,78.72 -109.38,99.46l-40.39 29.22 -9.64 -7.22c-42.46,-31.94 -109.85,-101.52 -133.8,-146.76l-0.01 -0.01zm-291.11 21.1c29.89,6.96 156.6,57.4 171.79,66.58 43.06,26.02 99.61,73.42 129.56,110.93l27.11 31.97c8.31,10.21 16.49,23.87 23.19,35.87 8.04,14.42 12.85,24.26 19.58,39.49 21.81,49.35 37.53,130.56 66.07,203.94 3.39,8.72 3.93,14.83 9.92,21.72l51.43 -180.63c13.61,-40.86 24.53,-65.99 44.17,-101.38 4.37,-7.87 5.67,-11.34 10.7,-18.83 16.76,-24.91 28.4,-43.84 50.33,-65.69 41.39,-41.26 47.23,-47.46 97.42,-77.66 62.38,-37.54 88.43,-36.07 122.87,-52.22 10.21,-4.78 30.3,-17.44 40.76,-18.31 -4.09,-5.59 -29.03,-10.74 -43.51,-15.57 -16.35,-5.45 -28.76,-9.76 -43.04,-16.02 -28.19,-12.36 -51.87,-24.89 -76.73,-41.39 -94.91,-62.99 -161.7,-167.07 -199.8,-272.73 -10.34,-28.67 -19.48,-58.21 -28.39,-89.74 -3.86,-13.61 -21.98,-84.3 -21.98,-98.25 -19.73,14.45 -50.36,148.02 -63.58,183.23 -10.61,28.28 -22.38,58.19 -38.1,84.26l-23.65 37.53c-60.91,88 -145.62,145.79 -241.03,193.53l-85.08 39.37 -0 0z"/>
  <path class="fil0" d="M2115.7 5095.46c1.87,3.91 27.2,103.97 27.43,113.91 17.28,0 37.32,-4.54 54.67,-6.51 18.34,-2.07 36.78,-4.74 55.9,-7.39 38.33,-5.3 73.83,-7.01 112.13,-12.33 16.57,-2.31 40.03,-4.92 55.77,-5.41l58.98 -4.3c40.37,-0.41 81.4,-4.14 122.43,-4.14l113.6 4.53c151.77,16.57 156.81,18.61 301.97,52.42l2.11 -145.56c-0.01,-18.94 2.23,-32.04 2.16,-48.46 -0.28,-68.58 2.06,-131.38 2.06,-198.35 -19.35,4.5 -39.32,7.66 -59.95,11.78 -21.34,4.27 -41.46,8.89 -60.82,13.01 -39.78,8.46 -78.78,17.85 -117.17,28.39 -37.28,10.22 -75.28,20.91 -113.62,31.95l-445.06 141.37c-19.31,6.31 -37,10.89 -56.44,17.41l-56.14 17.7 -0 0z"/>
  <path class="fil1" d="M5703.97 5224.13l97.61 -22.63c97.06,-16.78 228.51,-30.89 328.6,-32.13 12.06,-0.15 14.79,-2.49 27.35,-2.35 11.93,0.13 14.6,2.32 27.34,2.33 57.12,0.08 110.67,5.81 167.61,13.8 55.11,7.74 166.02,24.1 218.5,24.1 1.66,-7.1 8.46,-16.67 12.23,-23.63 21.53,-39.72 16.7,-58.39 23.63,-88.17 -38.54,-18.5 -286.28,-94.93 -327.71,-106.85 -38.69,-11.14 -74.07,-22 -112.73,-32.82 -119.74,-33.52 -220.98,-61.86 -342.19,-92.37 -19.3,-4.86 -37,-9.77 -57.83,-13.89l-62.42 -11.42 0 386.04 0 -0.01z"/>
  <path class="fil1" d="M932.27 7730.22c0,9.31 -4.92,16.81 0.78,19.93l758.64 -0.94c19.96,0.02 31.37,-2.19 50.63,-2.12l628.63 0.01c72.07,0 138.13,-2.11 208.84,-2.11l2.22 -80.06c3.85,-46.48 10.39,-38.09 -40.19,-38.09l-1609.55 -2.1 0 105.47 0 0z"/>
  <path class="fil0" d="M4252.63 9576.04c0,-51.28 -3.02,-47.63 27.37,-54.9 25.61,-6.13 39.55,-6.28 65.44,-6.28 17.93,0 18.22,8.22 27.9,12.18 8.22,3.37 18.44,3.37 30.85,11.33 30.45,19.56 39.65,62.12 18.09,93.41 -26.89,39.01 -56.11,32.34 -78.97,41.28 -12.76,4.99 -76.37,10.16 -81.85,-4.61 -4.41,-11.85 -8.84,-79.2 -8.84,-92.42l-0 0.01zm-118.13 -200.4l-29.54 0 2.11 651.83 151.87 -2.62 0.01 -208.33 73.84 0c81.63,0 169.35,-24.88 209.69,-85.64 74.48,-112.17 57.41,-330.34 -165.19,-351.23 -11.05,-1.03 -26.62,-3.75 -38.1,-4.09 -6.87,-0.2 -14.34,0.45 -21.17,0.08 -9.27,-0.5 -8.82,-1.89 -18.9,-2.19 -26.3,-0.79 -57.69,-0.7 -80.54,1.87 -22.58,2.53 -59.91,0.31 -84.07,0.31l0 -0.01z"/>
  <path class="fil0" d="M6457.06 10154.04c19.41,5.19 92.54,62.13 116.74,75.23l43.58 21.81c0,-90 -0.11,-180.01 0,-270.02 0.09,-75.94 -14.43,-139.96 20.35,-211.69l147.72 -293.16c9.76,-19.5 37.27,-81.87 38.65,-98.47l-158.21 0c-36.56,54.58 -97.76,248.59 -132.91,272.12 -5.31,-10.03 -9.98,-22.99 -14.8,-33.72l-98.41 -222.24c-3.57,-7.37 -5.06,-9.84 -7.03,-18.28 -47.75,0 -95.77,0.5 -143.49,-0.04 -26.26,-0.3 -26.67,-9.59 3.36,62.12 16.24,38.76 38.68,85.3 58.54,120.77l49.25 96.3c16.29,32.58 32.11,62.83 47.84,95.61 11.66,24.28 24.44,56.12 24.62,82.97 0.1,14.46 2.19,19.51 2.13,33.74l-0.05 215.22c0,26.71 2.1,45.44 2.1,71.72l0.02 0z"/>
  <path class="fil1" d="M6170.17 7635.3l2.6 101.24c68.94,0.02 135.05,2.13 206.24,2.13 69.61,0 139.22,0 208.84,0 36.44,0 65.36,2.11 101.25,2.11l314.32 0c34.74,0 64.89,2.11 101.26,2.11l314.33 -0.02c18.19,-0.09 29.17,2.15 48.5,2.12l369.16 0 0 -90.71c0,-31.41 23.07,-25.31 -75.94,-25.31 -35.16,0 -70.31,0 -105.47,0 -35.96,0 -66.2,2.11 -103.37,2.11l-478.87 -0.02c-18.94,-0.09 -32.13,2.13 -52.72,2.12 -285.67,-0.07 -565.8,2.11 -850.13,2.11l-0 0z"/>
  <path class="fil0" d="M5414.97 7342.07c15.88,0 33.1,4.36 50.63,4.22 12.38,-0.1 15.41,1.59 25.3,2.12 125.19,6.76 269.22,-20.1 383.15,-57.76 21.39,-7.07 98.24,-38.58 120.37,-50.5l78.3 -46.15c19.97,-13.33 38.84,-27.56 57.41,-41.74l91.16 -79.71c5.49,-5.43 8.37,-6.54 13.77,-11.53 41.26,-38.15 167.26,-172.05 197.31,-197.17l38.94 -34.89c5.59,-5.56 8.04,-6.79 13.64,-11.67 25.59,-22.33 33.84,-25.05 53.04,-39.79 3.84,-2.94 1.44,-1.13 3.46,-2.87 -114.04,0 -236.11,34.95 -337.5,84.4 -65.76,32.07 -139.83,76.27 -197.11,119.32 -21.22,15.94 -41.17,29.8 -62.07,45.51l-120.55 90.4c-10.13,7.59 -19.52,14.72 -30.11,22.63 -49.52,36.94 -105.48,75.03 -158.83,106.97 -62.67,37.52 -73.47,41.84 -142.85,68.1l-59.07 21.09c-6.89,2.7 -12.9,4.27 -18.39,9.04l0 -0.02z"/>
  <path class="fil0" d="M3250.62 7348.4l42.19 -2.1c-7.19,-9.8 -51.41,-30.48 -66.09,-37.28 -25.06,-11.62 -47.34,-21.55 -71.73,-33.74 -11.75,-5.87 -22.42,-10.57 -33.72,-16.9 -102.4,-57.32 -132.33,-76.33 -222.93,-144.12 -39.93,-29.88 -77.82,-60.19 -119.02,-89.82 -10.67,-7.68 -19.12,-13.2 -29.55,-21.08l-62.36 -43.11c-5.3,-3.52 -9.75,-5.8 -15.65,-9.66 -6.32,-4.13 -10.31,-7.1 -16.41,-11.01 -5.54,-3.55 -9.93,-6.01 -15.81,-9.5l-49.08 -28.97c-62.98,-36.35 -147.16,-77.15 -216.6,-97.72 -54.64,-16.19 -112.49,-28.76 -182.19,-28.76 5.7,8.52 14.38,9.11 30.4,20.23 32.69,22.71 52.92,43.04 80.87,71 14.81,14.81 38.15,35.3 50.27,50.99l36.19 39.76c4.94,5.13 8.71,8.63 13.75,13.67 8.04,8.04 18.4,17.11 25.11,25.53 15.09,18.93 33.69,33.27 50.84,50.41l27.41 25.33c45.2,39.93 89.89,79.9 142.52,112.73 11.02,6.87 20.19,12.16 31.19,19.44 29.78,19.69 103.37,54.91 134.96,67.54 65.35,26.13 89.13,31.43 156.17,48.46 14.8,3.76 26.23,5.63 42.14,8.49l90.06 13.3c33.1,4.1 112.37,6.9 147.09,6.9l0 -0z"/>
  <path class="fil3" d="M4292.19 5188.58l15.61 -0.59c5.69,8.09 2.5,160.97 2.5,169.04 0,57.16 -0.65,114.7 0.09,171.81l103.17 0c-3.12,-13.7 -3.16,-340.61 0.01,-354.74 11.28,-3.01 338.19,-3.17 352.9,0.05l-0.01 -100.71 -352.22 -0.01 0 -356.81 -107.16 0.08 0 359.15c-46.68,0 -339.55,4.34 -356.95,-2.2l-0.27 113.14 321.78 -0.01c6.1,-0.04 15.56,-1.31 20.56,1.8l0 0.01z"/>
  <path class="fil0" d="M5722.96 9474.78l0 48.52c12.04,0 14.59,2.11 27.42,2.11l137.12 0c0,167.21 2.11,328.11 2.11,495.73l26.08 9.78c38.54,12.54 81.53,13.42 123.69,13.42l2.11 -518.94 156.1 -2.11 -2.1 -145.56 -282.68 0c-64.94,0 -122.86,-2.11 -187.74,-2.11 0,35.48 -2.11,63.54 -2.11,99.15l-0.01 0z"/>
  <path class="fil2" d="M3950.97 5190.26l0.01 6.45 2.07 353.05 355.48 0 1.06 -14.11 0 -4.29c-5.24,-10.12 -0.69,-302.61 -1.79,-343.35l-15.61 0.59c-24.91,2.22 -58.02,0.43 -83.86,0.43 -28.83,0 -57.65,0 -86.49,0 -28.18,0 -155.09,-3.26 -170.87,1.24l0 -0.01z"/>
  <polygon class="fil2" points="4415.05,5531.49 4412.95,5534.98 4768.77,5535.8 4769.52,5175.04 4414.49,5175.06 "/>
  <polygon class="fil2" points="4418.75,5061.7 4418.84,5069.37 4764.98,5069.37 4765.09,5061.7 4765.06,4717.96 4419.02,4717.96 "/>
  <polygon class="fil2" points="3957.55,5072.36 4303.85,5072.36 4303.83,4720.94 3958.35,4720.94 "/>
  <path class="fil1" d="M6024.61 6262c71.17,0 130.61,0.35 188.26,-12.14 34.85,-7.56 45.8,-10.01 79.91,-21.34 33.81,-11.22 107.82,-45.25 137.26,-63.15 6.02,-3.67 10.5,-5.72 16.49,-8.82 6.26,-3.24 9.15,-5.63 16.14,-9.17 28.57,-14.5 67.04,-39.4 94.38,-57.51 28.51,-18.89 26.94,-27.26 47.53,-28.42 9.73,-0.54 11.83,-1.97 23.35,-1.97 -29.03,-43.35 -108.61,-80.43 -158.01,-90.91 -52.02,-11.02 -104.27,-16.41 -157.09,-0.57 -10.16,3.04 -20.33,6.19 -29.99,10.09l-28.28 13.9c-23.78,12.35 -52.67,34.26 -71.26,53.21 -7.77,7.93 -11.07,14.61 -20.09,22.1 -36.63,30.41 -10.09,23.3 -49.1,75.35l-89.51 119.34 0.01 -0z"/>
  <path class="fil1" d="M2058.74 6036.29c2.19,8.17 15.59,12.06 29.95,20.67 21.16,12.7 12.28,8.07 35.42,17.32l28.83 9.15c9.71,3.09 4.11,-0.16 7.78,4.88 11.7,16.06 -8.89,6.6 28.84,23.89 10.29,4.72 19.38,15.31 28.01,22.61 24.23,20.5 37.18,26.76 63.07,42.41 26.01,15.72 80.81,37.12 110.5,45.59 86.69,24.75 179.24,41.3 270.91,41.3 -24.18,-50.41 -52.75,-87.52 -92.26,-127.13 -3.43,-3.44 -3.84,-3.8 -7.86,-6.9 -8.87,-6.81 -7.46,-2.16 -7.46,-24.18 -9.27,0.2 -6.57,1.43 -14.76,2.11 5.35,-22.38 -3.04,-7.87 -15.52,-33 -2.69,-5.4 -4.12,-8.93 -7,-14.11 -10.8,-19.44 -32.18,-47.67 -49.17,-60.53 -67.13,-50.77 -128.79,-50.4 -209.44,-34.27 -53.84,10.76 -114.46,37.31 -165.79,57.82 -7.22,2.89 -26.09,11.69 -34.05,12.35l0 0z"/>
  <path class="fil0" d="M1744.01 6369.59l0.17 -24.43c10.83,1.14 16.07,4.7 25.91,7.94 -2.46,-13.67 -2.28,-14.08 -13,-19.8 -10.5,7.32 -19.01,14.02 -27.59,23.04 -2.46,-0.94 -35.14,-17.11 -37.33,-18.83 2.87,-14.08 3.66,-7.26 -0.5,-37.44 -26.27,7.09 -46.96,18.81 -68.79,26.02 -12.34,4.07 -20.41,7.56 -31.71,12.59l-29.52 14.78c-18.96,9.55 -38.71,21.41 -54.98,33.62l-61.26 48.43c-4.07,3.76 -6.43,6.71 -10.48,10.61l-65.34 67.56c-21.78,25.75 -37.77,50.15 -55.9,77 -25.37,37.57 -57.23,104.42 -69.22,150.17 -11.78,45 -20.68,104.13 -7.59,155.31 17.12,66.9 53.46,116.16 112.41,151.28 10.77,6.42 47.69,27.85 59.74,28.85 -4.3,-8.13 -10,-14.1 -15.95,-22.02 -6.02,-8 -10.48,-13.25 -16.6,-21.38 -23.8,-31.59 -42.99,-58.93 -52.3,-99.58 -5.26,-22.98 -5.84,-42.91 -5.86,-72.2 -0.07,-112.71 44.57,-178.7 97.04,-246.81 5.99,-7.78 11.98,-11.89 18.07,-19.89 10.04,-13.16 62.96,-58.85 79.85,-72.03 15.46,-12.07 29.75,-21.38 45.2,-32.86 14.66,-10.88 30.08,-19.73 45.87,-30.08 26.22,-17.19 120.56,-79.23 139.67,-89.84l0 0.01zm-52.34 -69.52c4.17,30.18 3.36,23.36 0.5,37.44 2.19,1.72 34.87,17.9 37.33,18.84 8.58,-9.03 17.09,-15.72 27.59,-23.04 10.73,5.72 10.54,6.13 13,19.8 -9.85,-3.24 -15.07,-6.8 -25.91,-7.94l-0.17 24.44c12.46,-2.65 15.56,-10.06 36.51,-16.65l290.89 -82.5c-9.4,-12.83 -79,-19.84 -92.93,-20.99 -29.57,-2.42 -86.49,-0.8 -112.93,2.87 -57.74,8.02 -93.04,13.22 -150.48,37.05 -11.75,5.25 -15.63,5.57 -23.41,10.69l0.01 0z"/>
  <path class="fil0" d="M7097.03 6426.04l20.96 -4.92 -0.21 20.2c5.32,9.92 91,74.27 110.48,89.49 7.13,5.57 11.6,9.27 18.97,14.78l35.18 30.21c30.89,31.07 52.88,53.36 76.64,92.13 5.04,8.24 7.54,12.99 12.14,21.62 4.35,8.15 8.2,13.4 11.93,21.82 13.59,30.68 26.47,62.01 31.8,101.09 6.39,46.91 4.46,77.62 -7.33,119.51 -10.85,38.59 -47.51,97.26 -77.81,122.59l-37.35 30.16c73.19,0 152.43,-88.38 185.54,-145.64 9.07,-15.69 17.8,-38.83 22.41,-59.86l7.35 -56.07c0,-19.52 -8.69,-71.23 -14.13,-89.37 -6.63,-22.11 -13.41,-42.18 -22.56,-61.82 -8.98,-19.26 -18.17,-35.86 -28.12,-54.15 -9.96,-18.32 -21.07,-33.79 -32.38,-49.89 -11.09,-15.78 -24.04,-31.18 -35.83,-46.44l-40.63 -43.75c-40.06,-40.05 -47.52,-45.36 -89.86,-76.79l-51.07 -31.2c-24.28,-12.62 -46.11,-26.48 -70.13,-32.79 -3.2,2.26 9.7,11.31 2.89,13.96l-10.41 2.38c-4.9,0.87 -10.73,1.9 -14.85,3.57 8.31,2.34 8.22,0.16 13.85,4.79 -3.62,8.13 -11.16,13.14 -23.99,15.2 -13.14,2.13 -20.98,1.37 -22.65,-9.99 -5.34,4.55 -12.1,15.09 -16.72,18.93 7.69,6.67 18.82,9.14 29.31,14.24 8.29,4.03 12.93,16.19 16.58,26.04l0 0zm0 0c-3.66,-9.86 -8.29,-22.01 -16.58,-26.04 -10.49,-5.1 -21.62,-7.56 -29.31,-14.24 4.62,-3.83 11.39,-14.37 16.72,-18.93 1.68,11.36 9.53,12.11 22.66,9.99 12.83,-2.07 20.37,-7.07 23.99,-15.2 -5.63,-4.63 -5.53,-2.45 -13.85,-4.79 4.13,-1.67 9.95,-2.69 14.85,-3.57l10.4 -2.38c6.82,-2.66 -6.08,-11.7 -2.89,-13.96 -15.09,-8.76 -20.33,-8.69 -35.61,-17.57l-53.65 -20.18c-69.62,-23 -129.93,-43.31 -205.61,-49.64 -13.25,-1.11 -21.48,-2.38 -35.66,-2.31 -47.57,0.24 -58,-1.11 -105.5,4.23 -10.18,1.14 -24.13,4.01 -33.74,4.22 19.22,26.23 185.1,56.46 230.86,75.02 45.5,18.44 186.33,92.72 212.91,95.34l0 -0zm0 0c1.98,2.84 -0.31,0.62 3.76,4.4 1.76,1.63 2.63,2.11 4.74,3.7 6.03,4.54 5.38,5.52 12.24,7.19l0.22 -20.2 -20.96 4.92 0.01 -0.01z"/>
  <path class="fil0" d="M3332.89 10556.96l61.17 0 0 -151.89c4.92,7.07 36.26,119.21 41.38,135.83 6.13,19.92 -5.24,16.06 53.55,16.06 6.87,0 7.37,-7.04 9.26,-13.95 1.86,-6.78 2.94,-11.67 4.67,-18.54 2.83,-11.36 25.3,-105.76 30.37,-113.07l0 113.91c-0.03,39.06 -13.48,31.64 71.72,31.64l0 -282.68 -105.47 0c-3.1,13.28 -29.54,131.03 -29.54,143.45l-27 -105.9c-2.72,-10.89 -8,-27.15 -8.86,-37.54l-101.26 0 0 282.67 -0.01 -0z"/>
  <path class="fil1" d="M866.87 4914.04c0,85.58 60.82,148.83 145.87,150.43 36.25,0.68 80.02,-20.11 100.44,-39.12 27.65,-25.72 44.8,-54.65 44.8,-102.87 0,-36.5 -19.22,-76.69 -37.4,-95.5 -11.2,-11.59 -22.27,-22.45 -37.11,-30.4 -94.56,-50.6 -216.6,32.23 -216.6,117.45l-0.01 0z"/>
  <path class="fil1" d="M7532.91 4909.82c0,24.42 3.55,43.81 13.34,64.71 10.16,21.71 13.85,24.53 27.59,42.02l17.8 15.95c29.35,23.58 58.5,29.2 95.26,29.2 59.8,0 128.68,-61.69 128.68,-122.35 0,-48.74 -4.31,-78.29 -39.56,-118.65 -58.05,-66.47 -156.89,-38.92 -209.94,16.82 -16.41,17.24 -33.17,46.18 -33.17,72.3l0 0z"/>
  <path class="fil0" d="M4227.31 7437c0,42.28 19.96,73.83 41.63,95.49 39.35,39.35 100.77,52.46 155.21,29.63 17.34,-7.28 28.72,-18.54 41.03,-30.69 35.8,-35.37 58.76,-110.37 29.21,-158.98 -8.72,-14.36 -17.99,-26.93 -30.48,-37.02 -58.17,-47.02 -151.47,-54.62 -200.13,3.05 -19.01,22.54 -36.48,58.09 -36.48,98.54l-0 -0.01z"/>
  <path class="fil0" d="M4235.75 1009.34c0,29.74 -0.21,39.89 13.33,66.83 8.66,17.22 14.65,23.28 27.26,36.03 40.74,41.19 110.55,49.89 162.85,24.64 22.25,-10.74 57.19,-44.64 68.71,-70.52 14.99,-33.66 10.76,-80.14 -6.43,-109.63 -30.24,-51.89 -76.91,-80.24 -139.15,-80.24 -24.33,0 -52.43,11.15 -69.94,24.98 -32.06,25.36 -56.63,64.33 -56.63,107.91l-0 0z"/>
  <path class="fil0" d="M4010.04 10556.96c89.6,0 76.01,7.28 75.94,-29.53l0 -113.91 59.06 143.45 92.82 0 0 -282.68c-88.19,0 -76.14,-6.65 -75.95,25.31l0.01 94.93c-4.64,-5.34 -10.18,-22.28 -12.96,-29.23 -6.83,-17.08 -34.76,-81.45 -35.56,-91.01l-103.37 0 0 282.68 -0 0z"/>
  <path class="fil0" d="M2130.47 1530.39c25.3,47.81 247.93,362.08 280.56,383.93 18.52,-12.41 35.81,-36.42 69.61,-44.3 -1.67,-7.2 -8.35,-19.63 -12.02,-28.07l-78.79 -132.16c-4.91,-8.21 -10.69,-17.46 -16.36,-25.84l-83.11 -127.83c-5.87,-8.82 -10.68,-16.67 -17.05,-25.15 -6.59,-8.78 -10.65,-16.07 -17.17,-25.02l-34.97 -49.41c-3.86,2.59 -7.3,4.54 -11.06,7.93 -17.78,16.05 -45.39,34.59 -56.99,46.38l-22.67 19.52 0.01 0z"/>
  <path class="fil0" d="M6254.55 1853.15c5.18,7.73 66.02,54.53 75.94,61.18 27.52,-41.09 109.39,-145.11 141.33,-187.74 27.24,-36.35 78.7,-107.1 106.13,-140.68 12.25,-15 24.69,-31.36 35.21,-47.07 -9.94,-6.65 -63.93,-66.11 -97.04,-73.83l-229.09 338.36c-10.72,16.07 -23.9,33.56 -32.49,49.78l0 -0.01z"/>
  <path class="fil0" d="M5301.05 10386.09l-6.33 0 0 -73.83c16.72,0 23.2,4.41 23.2,21.09l0 31.64c0,12.58 -4.3,21.09 -16.88,21.09l0 0zm-86.49 170.87l80.16 0 0 -135.01c40.64,3.38 12.2,31.6 24.05,108.85 3.39,22.07 7.17,18.75 9.71,28.26l78.05 0c-3.63,-13.56 -6.18,-0.31 -10.73,-39.9 -4.27,-37.15 3.94,-80.2 -9.77,-95.71 -7.34,-8.32 -19.95,-18.06 -34.35,-18.39l0 -4.22c17.21,-0.38 42.19,-18.93 42.19,-35.86l0 -44.3c0,-32.5 -44.25,-46.42 -78.06,-46.42l-101.25 0 0 282.68 0 0.01z"/>
  <path class="fil0" d="M3801.2 10367.1c0,22.75 8.44,56 8.44,73.83l-18.98 0c0,-16.57 4.41,-40.38 6.11,-57.18l2.11 -12.65c1.23,-3.02 1.22,-2.4 2.32,-4.01l0 0zm-109.69 189.85l78.05 0c1.52,-18.24 12.66,-60.26 12.66,-75.94l33.76 0c2.9,12.45 4.93,25.29 7.23,39.18 7.81,47.13 -7.62,36.76 79.26,36.76 9.43,0 4.17,-7.63 -0.17,-29.35l-52.56 -253.32 -101.26 0c-0.24,10.92 -10.93,55.52 -13.89,70.49 -4.22,21.35 -42.81,200.83 -43.06,212.19l-0.01 0z"/>
  <path class="fil0" d="M4442.48 10369.21c0.29,0.45 0.52,0.71 0.6,1.51 1.22,13.17 9.56,52.47 9.95,70.21l-21.09 0c4.49,-9.36 7.04,-56.67 10.55,-71.72l-0.01 0zm-107.58 187.74l78.06 0c1.52,-18.24 12.66,-60.26 12.66,-75.94l33.75 0c2.87,12.34 4.67,25.7 7.22,39.2 8.87,46.9 -10.73,36.75 83.49,36.75 0,-15.9 -23.8,-122.19 -27.6,-141.16l-29.35 -141.51 -101.25 0c-0.27,11.88 -44.26,216.02 -50.1,245.24 -2.2,10.98 -6.63,27.01 -6.86,37.44l-0.01 -0.01z"/>
  <path class="fil0" d="M4661.87 10333.35l0 172.97c0,51.5 62.41,58.98 99.96,47.24 10.31,-3.23 17.89,-10.65 26.6,-11.37 9.62,18.18 1.89,14.76 46.41,14.76l0 -141.33 -86.49 0 0 44.3 14.76 0 0 50.63c0,9.81 -21.09,10.24 -21.09,0l0 -191.96c0,-10.51 21.09,-8.29 21.09,2.11l0 54.84 71.72 0 0 -54.84c0,-58.2 -109.83,-56.54 -149.14,-35.23 -15.91,8.63 -23.84,24.24 -23.84,47.89l0 -0z"/>
  <path class="fil0" d="M5520.44 10335.46c0,32.85 -2.39,36.66 18.45,57.48 30.5,30.48 82.8,55.96 82.8,88.07 0,30.98 6.02,41.55 -27.43,33.76l0 -71.72 -73.83 0c0,71.26 -10.44,102.85 55.98,114.89 30.66,5.56 75.19,2.22 98.72,-10.81 29.38,-16.28 26.71,-40.57 26.71,-72.43 0,-34.58 -16.64,-43.24 -38.52,-62.74 -6.01,-5.36 -12.38,-10.28 -18.74,-15.02l-30.11 -24.74c-9.17,-9.1 -15.17,-16.52 -16.03,-30.44 -0.82,-13.16 -2.56,-17.61 2.13,-27.39 26.56,-6.19 21.09,-2.03 21.09,56.96l73.83 0c0,-69.68 5.22,-99.15 -90.71,-99.15 -45.67,0 -84.38,13.17 -84.38,63.28l0.01 0z"/>
  <path class="fil0" d="M2299.23 10518.98l0 46.41c6.36,-3.06 22.1,-6.29 30.85,-9.23 11.53,-3.87 20.08,-6.7 31.63,-10.54l126.05 -42.71c52.13,-17.38 140.88,-46.51 191.61,-59.41 22.55,-5.74 43.93,-12.42 66.62,-17.77l70.06 -14.32 0 -82.27c-9.2,0.2 -24.52,6.1 -32.86,9.33 -64.25,24.88 -167.26,52.78 -234.78,75.32 -44.37,14.81 -87.37,29.54 -130.47,46.72l-90.6 42.3c-9.97,5.37 -18.59,11.15 -28.11,16.18l0 0.01z"/>
  <path class="fil0" d="M7028.74 7042.52c0,32.85 8.56,57.99 25.8,75.46 61.21,62.07 178.83,22.31 178.83,-62.8 0,-151.77 -204.62,-147.53 -204.62,-12.66l-0 0z"/>
  <path class="fil0" d="M1501.83 7038.31c0,31.76 7.02,61.32 31.59,80.21 42.87,32.96 82.99,37.48 129.44,9.11 20.43,-12.47 43.58,-51.78 43.58,-78.77 0,-33.68 -8.88,-55.57 -34.19,-77.61 -29.89,-26.05 -78,-40.33 -114.25,-22.31 -33.28,16.54 -56.18,57.15 -56.18,89.38l0.01 0z"/>
  <path class="fil0" d="M6830.44 10571.73l0 -54.85c-7.79,-3.74 -22.49,-8.04 -31.64,-10.54 -11.07,-3.03 -21.67,-6.87 -31.91,-10.28l-257.36 -84.38c-21.59,-7.2 -43.37,-15.42 -65.13,-21.37l-128.68 -42.19 -0.21 67.72c1.18,10.67 2.58,7.67 13.97,9.23 93.19,12.78 262.04,75.11 355.67,106.31 22.78,7.59 121.29,38.35 145.29,40.35l0.01 -0.01z"/>
  <path class="fil1" d="M7018.19 2416.38c0,28.94 1.61,50.74 22.55,76.59l5.06 5.48c29.81,28.25 42.46,29.72 79.96,29.72 41.92,0 88.59,-38.14 88.59,-84.39 0,-31.65 -3.68,-58.86 -26.85,-82.84 -20.32,-21.04 -37.04,-28.96 -70.19,-28.96 -47.45,0 -99.15,42.36 -99.15,84.38l0.02 0.01z"/>
  <path class="fil1" d="M1617.86 2538.73c25.73,0 56.32,-14.13 69.44,-27.59 0.17,-0.17 2.6,-2.96 2.96,-3.36 6.39,-7.09 10.5,-11.25 14.76,-21.1 14.35,-33.22 7.83,-66.34 -8.35,-96.38 -47.99,-89.12 -191.05,-42.53 -182.46,51.52 4.79,52.43 49.24,96.91 103.64,96.91l-0.01 0z"/>
  <polygon class="fil0" points="4938.22,10556.96 5092.21,10556.96 5092.21,10518.98 5018.39,10518.98 5018.39,10421.95 5083.77,10421.95 5083.77,10386.09 5018.39,10386.09 5018.39,10312.26 5090.1,10312.26 5090.1,10274.29 4938.22,10274.29 "/>
  <path class="fil1" d="M5530.98 1258.26c0,-52.41 -40.36,-103.37 -80.16,-103.37 -37.62,0 -47.33,4.35 -77.7,25.67 -7.24,5.08 -20.65,21.65 -25.33,29.52 -9.39,15.77 -12.59,35.83 -7.88,57.83 7.02,32.78 37.7,65.57 69.58,73.87 29.45,7.66 61.28,3 84.7,-12.72 7.97,-5.35 13.25,-9.22 18.7,-17.17 10.05,-14.69 18.09,-29.98 18.09,-53.64l0 0z"/>
  <path class="fil1" d="M3197.87 1241.39c0,82.51 95.37,135.45 161.83,79.56 36.99,-31.11 38.5,-88.31 14.76,-127.47 -8.04,-13.26 -19.94,-24.12 -33.8,-31.59 -57.3,-30.87 -142.8,24.39 -142.8,79.5l0 -0z"/>
  <path class="fil1" d="M3958.35 4720.94l345.48 0 0.02 351.42 -346.31 0 0.81 -351.42 0 0zm460.66 -2.97l346.05 0 0.02 343.74 -0.11 7.67 -346.13 0 -0.09 -7.67 0.27 -343.74zm-470.89 352.17l0.73 118.6 2.11 1.51c15.78,-4.49 142.7,-1.24 170.87,-1.24 28.83,0 57.65,0 86.49,0 25.84,0 58.95,1.78 83.86,-0.43 -5.01,-3.11 -14.46,-1.83 -20.56,-1.8l-321.78 0.01 0.27 -113.14c17.4,6.55 310.26,2.21 356.94,2.21l0 -359.15 107.16 -0.08 0 356.81 352.22 0.02 0.02 100.71c-14.71,-3.22 -341.62,-3.06 -352.9,-0.05 -3.17,14.13 -3.12,341.03 -0.01,354.74l-103.16 0c-0.74,-57.11 -0.09,-114.65 -0.09,-171.81 0,-8.07 3.2,-160.95 -2.5,-169.04 1.1,40.75 -3.46,333.24 1.8,343.35l105.46 0.15 -0.56 -356.43 355.03 -0.02 -0.75 360.76c5.67,-6.71 2.57,-89.59 2.57,-98.61l-0.14 -257.15c-1.81,-12.44 -0.76,1.83 -2.77,-10.77l-0.33 -453.54c-8.54,-2.94 -2.69,-1.14 -6.26,-4.22l-468.53 0.61c-20.04,5.02 -0.43,3.62 -34.36,3.6l-307.98 0 -2.84 354.4 -0.01 -0z"/>
  <path class="fil1" d="M5849.52 1492.42c0,21.88 17.34,45.99 28.17,62.53 9.56,14.61 21.26,10.3 43.5,9.28 26.82,-1.23 40.65,-4.29 57.94,-16.04 42.83,-29.11 31.75,-102.36 -15.64,-125.44 -56.37,-27.46 -113.97,13.8 -113.97,69.67l0.01 -0z"/>
  <path class="fil1" d="M7444.31 3089.31c0,-33.68 -25.3,-78.05 -69.61,-78.05 -30.14,0 -60.17,26.74 -72.19,45.93 -17.88,28.55 -13.88,61.22 9.41,84.36 56.34,55.93 132.39,9.27 132.39,-52.24l0 -0.01z"/>
  <path class="fil1" d="M2735.9 1431.24c-0.49,21.94 -21.22,77.38 13.87,112.7 30.96,31.16 123.25,46.95 123.25,-68.41 0,-18.07 0.61,-20.35 -28.61,-43.11 -6.39,-4.97 -9.66,-8.48 -17.07,-12.47 -36.3,-19.52 -66.01,5.36 -91.44,11.28l0.01 0.01z"/>
  <path class="fil1" d="M1305.66 3070.33c0,40.33 31.59,75.94 69.61,75.94l16.88 0c35.78,0 67.51,-29.72 67.51,-65.39 0,-27.46 -6.58,-44.33 -32.03,-60.8 -18.7,-12.11 -75.13,-23 -89.96,-8.44 -2.83,2.78 -4.04,5.27 -6.43,8.33 -2.59,3.31 -4.08,4.84 -6.62,8.15 -7.31,9.5 -18.96,25.75 -18.96,42.21l-0 0.01z"/>
  <path class="fil1" d="M6313.62 5797.91l151.9 -10.53c12.87,-0.62 20.34,-1.98 31.61,-2.14 20.04,-0.28 40.94,-4.21 61.18,-4.21 -12.48,-17.04 -44.59,-28.93 -68.97,-32.31 -13.3,-1.85 -78.86,1.49 -93.45,4.89l-23.21 -44.3c-6.09,4.09 -11.23,12.96 -16.01,19.85 -9.17,13.24 -21.26,25.09 -31.09,42.74 -5.07,9.09 -7.49,17.54 -11.96,26l-0 0.02z"/>
  <path class="fil1" d="M2136.8 5785.26c60.24,0 118.97,6.33 179.31,6.33 -7.17,-13.55 -16.24,-23.96 -29.37,-31.81 -47.09,-28.19 -123.22,-14.43 -149.94,25.48l0 0z"/>
 </g>
</svg>
