<?xml version="1.0" encoding="UTF-8"?>
<!DOCTYPE svg PUBLIC "-//W3C//DTD SVG 1.1//EN" "http://www.w3.org/Graphics/SVG/1.1/DTD/svg11.dtd">
<!-- Creator: CorelDRAW -->
<svg xmlns="http://www.w3.org/2000/svg" xml:space="preserve" width="8.5in" height="11in" version="1.1" style="shape-rendering:geometricPrecision; text-rendering:geometricPrecision; image-rendering:optimizeQuality; fill-rule:evenodd; clip-rule:evenodd"
viewBox="0 0 8500 11000"
 xmlns:xlink="http://www.w3.org/1999/xlink"
 xmlns:xodm="http://www.corel.com/coreldraw/odm/2003">
 <defs>
  <style type="text/css">
   <![CDATA[
    .fil0 {fill:#FEFEFE}
   ]]>
  </style>
 </defs>
 <g id="Layer_x0020_1">
  <metadata id="CorelCorpID_0Corel-Layer"/>
  <g id="_2614296623232">
   <path class="fil0" d="M3068.07 3058.81c152.85,-13.6 257.3,102.84 261.07,247.02 2.14,81.78 -29.76,145.7 -68.34,187.87 -36.28,39.65 -100.54,72.88 -178.02,78.07 -242.14,16.21 -341.57,-283.24 -196.62,-436.81 45.05,-47.74 113.92,-70.09 181.92,-76.15l-0 -0zm161.54 -480.64c2.61,-31.65 70.13,-98.87 97.54,-118.6 8.52,-6.12 20.72,-9.19 30.94,-12.87 10.19,-3.67 22.06,-8.09 32.78,-10.91 10.56,-2.76 10.39,1.17 15.22,-6.71 2.19,-3.57 5.08,-11.09 6.99,-14.92 19.17,-38.42 42.76,-75.63 63.82,-111.26 21.09,-35.71 62.35,-57.44 96.83,-76.3 82.47,-45.12 189.86,-52.61 285.05,-16.95 43.32,16.23 79.84,40.53 109.75,65.43 20.19,16.81 66.52,65.96 77.66,95.4 103.85,-2.25 137.5,-7.14 204.42,48.32 45.39,37.63 85.48,102.07 91.46,162.33l-1112.48 -2.97 0.01 0zm-1521.72 1702.8l6.81 180.25c2.65,17.67 1.41,35.98 3.97,53.74 5.04,35.01 6.55,69.46 11.46,103.96 11.72,82.33 24.59,165.65 41.93,246.61 3.15,14.69 7.94,32.41 10.96,46.74 23.37,111.05 67.18,249.33 109.39,354.28 5.88,14.62 10.46,27.73 16.42,41.29 17.73,40.38 34.73,81.24 54.45,120.67 3.34,6.69 6.53,12.41 9.25,18.61 8.57,19.46 20.33,38.37 29.88,57.68 27.84,56.28 63.13,108.78 97.93,160.77 10.2,15.25 24.19,41.72 43.36,46.19l40.93 -54.58c5.57,-7.37 8.81,-12.06 13.99,-19.84 17.67,-26.54 34.82,-53.57 50.45,-80.89 3.06,-5.35 91.28,-158.99 93.63,-169.05l49.74 3.99c18.7,0.98 33.16,1.98 51.75,1.98 -10.46,-21.8 -13.75,-36.64 -27.88,-63.65 -2.06,-3.92 -3.96,-7.97 -5.94,-11.96 -21.37,-43 -51.56,-89.47 -78.27,-142.61l-34.6 -76.84c-7.64,-17.7 -14.61,-33.72 -21.61,-52.02 -7.26,-18.95 -12.27,-35.13 -19.59,-54.05 -33.49,-86.63 -58.87,-198.92 -77.27,-290.87 -12.78,-63.87 -19.43,-129.66 -28.53,-194.35 -6.57,-46.67 -4.91,-90.35 -8.89,-138.38 -2.19,-26.52 0.46,-66.28 -2.18,-89.36 -2.76,-24.13 0.39,-60.34 0.29,-87.85l3.98 -87.56c2.66,-50.63 10.09,-103.51 15.76,-153.39 2.43,-21.38 6.26,-44.21 9.54,-64.09 3.63,-22.03 7.06,-40.75 11.36,-62.26 16.37,-81.83 37.42,-157.24 57.28,-237.23l22.69 -88.76c2.35,-9.39 6.56,-21.76 6.77,-31.04 39.69,9.25 60.65,7 106.74,22.61 41.99,14.23 28.28,17.86 19.48,57.83 -3.4,15.42 -6.09,27.22 -9.3,42.44l-20.2 83.27c-24.61,98.51 -48.92,199.82 -60.72,301.45 -1.82,15.63 -2.68,30.39 -5,46.74 -7.47,52.8 -9.1,189.17 -9.1,239.65l7.11 148.11c3.39,23.46 4.81,47.38 7,70.6 2.12,22.46 6.26,48.06 9.42,70.18l44.13 270.28c11,-2.93 66.08,-55.12 78.11,-67.16l60.73 -60.65c5.38,-5.43 6.66,-8.61 11.86,-14.01 8.58,-8.91 16.38,-15.88 24.96,-24.79 4.98,-5.17 5.89,-7.85 10.86,-13.02l61.73 -61.64c8,-8 15.6,-16.56 23.89,-23.86 5.24,-4.61 7.64,-5.6 12.95,-10.93 4.8,-4.82 8.11,-8.16 12.9,-12.96 16.85,-16.85 32.83,-30.84 49.75,-47.76l100.49 -96.51c16.72,-16.75 32.02,-32.02 48.75,-48.75 23.16,-23.16 81.44,-77.29 98,-99 27.3,-35.76 68.98,-64.41 97.21,-99.8 16.16,-20.26 43,-40.76 59.7,-61.69 14.44,-18.1 33.28,-33.44 49.58,-49.91 5.13,-5.18 6.17,-7.9 10.89,-13l145.33 -149.18c4.98,-5.17 5.89,-7.85 10.86,-13.02l36.85 -36.77c9.15,-9.14 14.89,-16.97 23.88,-25.87l59.68 -61.71c4.11,-4.44 7.62,-7.57 11.96,-11.92l85.55 -87.59c4.11,-4.44 7.62,-7.57 11.96,-11.91 12.13,-12.13 23.61,-25.92 37.02,-36.61 27.81,-22.19 236.9,-235.32 283.37,-281.78l295.51 -293.52c16.19,-16.29 34.12,-30.81 49.78,-47.73l22.86 -24.9c8.77,-8.76 16.22,-16.05 24.91,-24.83 5.13,-5.18 6.17,-7.9 10.89,-13 4.41,-4.78 8.29,-8.24 12.96,-12.91l96.51 -98.51c4.35,-4.35 7.47,-7.86 11.91,-11.97 5.42,-5.02 8.43,-6.26 13.98,-11.89 12.56,-12.74 70.87,-64.26 85.63,-58.99 13.3,4.75 62.96,56.6 75.33,72.11 23.76,29.78 113.81,111.39 149.45,147.05 16.74,16.74 32.01,31.98 48.72,48.78 5.31,5.33 7.71,6.32 12.95,10.93 21.4,18.84 40.11,40.94 60.67,60.72l25.91 23.84c16.13,16.13 33.05,35.01 49.76,49.73 29.71,26.16 73.33,69.38 100.48,96.52 61.18,61.18 124.29,119.65 185.05,181.1 5.61,5.68 8.32,7 13.93,11.94 20.83,18.33 40.41,41.22 60.67,60.72l38.84 36.77c51.91,51.91 41.31,54.73 41.3,-29.35 -0.01,-18.67 2.11,-31.03 2.01,-47.74 -0.09,-15.92 -0.03,-31.86 -0.03,-47.78 0,-18.38 2.1,-31.85 2.04,-47.72 -0.07,-16.59 -0.05,-33.2 -0.05,-49.79 0,-18.47 1.99,-31.67 1.99,-47.76 249.72,0 497.37,-3.98 748.22,-3.98 0,59.56 3.11,311.63 -1.7,354.5 -2.42,21.56 7.59,39 -9.99,39.76 -15.79,0.68 -34.15,-1.45 -49.89,-0.15 -15.21,1.25 -29.79,1.88 -47.87,1.88l-7.86 69.76c-2.65,32.09 -3.86,160.55 -0.94,179.83 4.61,30.49 -2.83,73.36 1.39,104.09 8.69,63.44 -6.48,141.43 9.38,201.56 10.97,41.61 37.37,61.2 66.23,88.99 37.34,35.95 105.16,95.74 134.19,130.46 15.7,18.78 34.57,34.33 51.83,51.65l263.47 263.87c11.48,14.41 25.53,26.39 36.67,40.94l53.07 52.39c5.02,5.04 8.05,10.47 15.42,12.43 2.09,-8.96 7.39,-15.76 11.12,-24.7 27.25,-65.43 47.76,-174.62 52.5,-246 0.7,-10.47 1.13,-24.16 2.6,-35.2 1.06,-7.91 2.98,-25.63 3.44,-34.37 0.31,-5.8 -0.32,-12.13 -0.01,-17.93 0.46,-8.74 1.78,-8.31 2.06,-17.83l3.92 -147.32c0,-38.67 -2.11,-71.73 -1.94,-111.48 0.05,-12.2 -1.8,-15.39 -2.1,-25.76 -0.28,-9.08 0.56,-18.92 0.07,-27.93 -0.82,-15.23 -3.21,-38.5 -3.99,-53.71 -3.71,-72.11 -9.76,-144.09 -19.29,-209.56 -14.02,-96.36 -38.66,-185.42 -60.7,-279.58 -3.46,-14.77 -6.89,-31.96 -9.56,-48.15 -1.64,-9.94 -4.7,-42.94 -7.96,-49.75 28.28,-0.63 99.68,-21.23 129.35,-21.89 5.94,12.39 10.2,30.58 14.18,43.52 106.09,345.31 137.97,730.6 86.97,1092.39 -7.41,52.5 -17.3,102.79 -28.02,153.07 -5.18,24.33 -11.61,48.89 -17.81,73.72 -27.04,108.26 -67.51,213.64 -115.71,314.13 -21.77,45.4 -46.12,88.83 -74.13,130.83 -14.47,21.7 -62.3,92.4 -64.48,118.59 26.17,0 47.17,-4.06 73.67,-3.94 11.62,0.05 13.79,-2.04 23.84,-2.04 2,7.48 103.09,154.63 107.46,161.19 8.73,13.1 17.16,26.64 25.89,39.78 14.59,21.99 68.38,106.94 73.61,129.37 8.72,-5.84 19.24,-18.26 27.36,-26.37 46.12,-46.09 79.44,-101.7 108.59,-160.05l73.65 -143.26c85.51,-170.89 152.41,-385.59 188.88,-567.3 17.81,-88.73 31.06,-188.48 40.95,-281.41 0.92,-8.64 1.94,-16.51 2.29,-23.59 1.22,-24.89 1.67,-55.27 5.17,-78.41 2.63,-17.35 2.83,-88.02 2.83,-104.63l-0.55 -156.66c-4.51,-32.91 -1.58,-68.94 -5.97,-101.49l-9.46 -99.99c-9.42,-109.15 -31.48,-218.83 -54.52,-323.57 -12.78,-58.1 -28.81,-114.13 -44.49,-170.43 -7.8,-28 -16.43,-54.53 -25.55,-81.9 -45.33,-135.94 -96.59,-254.39 -160.61,-382.65l-18.6 -35.13c-40.09,-71.72 -115.91,-205.57 -159.83,-271.99 -7.18,-10.86 -13.09,-21.69 -20.69,-33.04l-42.6 -64.86c-29.28,-43.92 -58.71,-85.16 -89.63,-127.27l-145.28 -177.1c-7.83,-9.81 -18.64,-17.46 -26.46,-27.27 -11.94,-14.97 -66.37,-70.52 -81,-82.19 -10.88,-8.68 -17.99,-17.81 -28.16,-25.57l-22.18 -19.61c-3.19,-2.56 -4.15,-4 -7.2,-6.72 -3.4,-3.03 -3.63,-2.72 -6.73,-5.22 -3.18,-2.57 -4.15,-4 -7.2,-6.73l-198.91 -153.31 -126.31 -88.6c-11.63,-7.72 -22.22,-14.15 -33.83,-21.89 -51.56,-34.39 -145.09,-93.35 -201.23,-121.14l-218.81 -105.55 -115.69 -45.5c-75.44,-28.96 -210.36,-66.46 -292.86,-87.22 -15.5,-3.91 -27.31,-7.04 -43.43,-10.3 -55.61,-11.25 -101.8,-8.35 -147.07,28.4 -26.16,21.24 -34.71,37.09 -53.16,62.26 -4.31,5.87 -5.21,3.72 -5.91,12 64.7,0 198.76,28.1 266.16,42.28 80.09,16.85 160.17,44.63 236.56,71.89 64.79,23.11 127.28,49.61 188.44,80.2 9.5,4.76 18.23,8.07 27.22,12.57l49.72 25.9c3.97,2.06 8.03,3.85 11.99,5.92l38.44 21.26c9.24,4.98 15.66,8.21 24.6,13.2 9.39,5.26 15.92,9.59 25.17,14.62 9.04,4.92 15.13,8.78 23.82,13.99l48.49 29.12c8.84,5.22 14.32,9.43 23.16,14.64 8.63,5.1 14.79,9.66 23.15,14.66 4.12,2.46 8.01,5.31 12.13,7.77 51.47,30.72 165.6,113.45 213.29,152.86 7.66,6.33 14.28,11.21 22.29,17.51l63.69 51.73c5.03,3.91 5.2,4.25 9.59,8.33 4.56,4.24 6.37,4.71 10.93,8.96 4.43,4.11 4.56,4.37 9.61,8.3l61.12 56.28c3.22,3.85 6.27,6.46 9.86,10.04l188.05 200c38.67,38.55 70.43,83.91 103.97,126.86l33.83 43.78c55.3,73.8 104.4,152.65 152.09,231.96l28.59 49.02c31.28,52.17 61.08,106.93 86.61,162.13l67.56 147.35c23.81,55.18 44.24,110.29 63.35,167.48l54.63 176.21c11.54,40.37 22.22,82.56 30.85,124.36 4.11,19.89 8.77,42.71 13.41,62.21 14.37,60.5 40.83,237.35 44.13,304.11l5.72 71.89c5.73,51.15 4.27,117.45 4.27,168.85 0,141.76 -18.92,292.06 -46.59,429 -5.59,27.66 -11.57,52.56 -16.94,78.58 -15.76,76.31 -37.44,150.56 -61.58,222.98l-24.4 71.12c-19.41,58.64 -42.33,115.53 -66.23,172.56 -4.81,11.48 -10.51,22.35 -14.81,32.94l-14.86 32.9c-18.68,40.3 -61.61,124.98 -92.88,145.92 -8.46,-5.67 -13.68,-13.17 -20.48,-21.31 -27.5,-32.88 -49.16,-46.12 -49.16,-98.09 0,-30.92 70.37,-157.5 88.13,-202.41 28.24,-71.44 53.76,-143.63 74.62,-217.9 28.77,-102.45 55.75,-207.98 73.8,-314.23 9.66,-56.83 16.33,-114.74 22.48,-172.53 7.57,-71.09 7.39,-113.43 9.55,-185.46l2.07 -45.71c0.09,-17.5 -2.01,-28.9 -2,-47.75l-2.1 -69.54c-0.72,-8.67 -1.9,-12.52 -1.84,-24.02 0.06,-13.65 -2.88,-31.13 -3.87,-43.89 -11.85,-152.25 -42.56,-303.78 -85.48,-449.82 -23.28,-79.24 -46.86,-142.53 -73.64,-216.89 -24.91,-69.15 -58.69,-136.54 -91.13,-201.39 -26.68,-53.31 -54.49,-106.64 -84.32,-158.45 -6,-10.44 -11.91,-20.41 -18.44,-31.31 -24.02,-40.15 -47.46,-80.74 -73.4,-119.63 -6.66,-9.98 -12.67,-18.58 -19.12,-28.64 -32.57,-50.79 -83.51,-125.47 -121.31,-171.21l-110.39 -134.38c-8.15,-8.71 -14.43,-16.47 -22.92,-24.84 -5.43,-5.36 -6.31,-7.23 -11.02,-12.86 -19.61,-23.46 -90.72,-91.44 -111.15,-107.75l-25.05 -22.7c-5.17,-5.04 -7.82,-5.86 -12.99,-10.89l-64.6 -58.78c-16.85,-16.39 -36.99,-27.78 -55.69,-41.81l-174.48 -118.04c-10.49,-6.99 -17.86,-12.63 -28.25,-19.51l-144.87 -97.9c-44.79,-29.9 -92.74,-54.46 -141.17,-77.72 -6.1,-2.93 -9.84,-4.96 -15.9,-7.98 -44.03,-22.01 -89.94,-41.4 -136.34,-58.67l-144.33 -50.68c-111.69,-37.26 -240.5,-67 -356.05,-83.73 -59.71,-8.65 -116.63,-16.52 -178.5,-16.52 -7.89,0 -30.34,9.94 -36.23,13.51 -15.53,9.44 -29.47,18.84 -42.85,30.78 -19.84,17.69 -48.44,42.76 -64.49,62.87 -22.22,27.84 -47.4,54.06 -67.37,83.87 -5.78,-1.54 -10.94,-6.7 -15.63,-10.24l-31.29 -24.43c-46.2,-35.9 -88.81,-104.7 -120.19,-128.55 -50.75,-38.57 -116.56,-28.74 -176.79,-21.49 -41.85,5.03 -86.34,15.15 -127.57,23.67 -191.56,39.57 -335.82,87.79 -515.26,161.33 -69.88,28.64 -137,64.08 -204.61,97.86 -32.36,16.17 -64.51,35.13 -95.53,53.72l-182.29 120.18c-7.52,5.66 -14.78,10.23 -21.78,16.03 -34.13,28.28 -71.06,53.31 -104.55,82.51l-80.89 70.35c-8.41,6.5 -12.26,11.11 -19.52,18.29l-47.78 45.76c-10.22,9.45 -20.25,17.56 -29.08,28.63 -5.2,6.52 -12.5,12.9 -18.7,19.11 -25.07,25.07 -50.67,50.62 -72.83,78.4l-69.33 79.92c-12.17,14.46 -22.05,26.77 -33.57,42.04l-156.48 219.62c-69.22,103.76 -146.85,250.63 -197.18,367.96 -19.17,44.7 -37.77,86.56 -53.92,133.14 -16.5,47.59 -34.05,92.46 -48.27,140.78 -14.41,48.96 -30,98.02 -42.11,146.93 -30.85,124.61 -52,254.15 -65.76,385.96l-4.29 51.43c-2.74,53.37 -5.96,111.09 -5.96,165.17 0,29.67 2.13,53.04 1.96,83.61 -0.09,15.56 2.15,23.35 2,39.79 -0.37,39.17 14.21,165.06 18.79,196.12 7.64,51.75 15.55,97.58 25.18,145.97 9.48,47.63 21.26,92.2 33.65,139.48 41.67,158.97 103.96,284.33 166.02,432.96 27.39,65.59 34.89,49.76 15.06,94.34 -9.17,20.59 -22.57,39.33 -37.29,56.24 -6.51,7.48 -18.21,15.94 -26.36,21.4 -17.59,-11.78 -64.13,-92.19 -76.29,-116.73 -55.19,-111.44 -99.37,-226.11 -138.89,-344.69 -7.84,-23.53 -16.87,-49.18 -23.62,-73.87 -13.91,-50.89 -29.1,-101.05 -39.96,-153.06 -16.43,-78.63 -34.69,-167.89 -41.68,-248.85l-9.06 -88.45c-1.92,-12.89 -2.49,-31.96 -2.79,-44.96 -0.24,-10.08 -2.01,-11 -2.1,-21.78 -0.09,-10.73 -0.28,-16.52 -1.37,-24.5 -1.78,-12.98 -0.46,-33.42 -0.48,-47.28 -0.02,-10.93 -1.58,-12.8 -2.07,-21.81 -2.87,-53.08 4.6,-138.69 5.93,-193.09 0.24,-9.58 1.61,-9.06 2.03,-17.87 0.64,-13.47 0.89,-24 2.31,-37.49 20.79,-197.68 53.78,-395.02 116.85,-583.61 13.07,-39.1 25.4,-78.02 40.05,-115.17l86.26 -206.26 57 -118.11c31.98,-64.48 111.36,-198.26 142.91,-247.13 42.94,-66.52 78.5,-119.92 128,-182.43l106.06 -128.75c17.08,-21.72 32.38,-44.33 50.44,-64.98 31.69,-36.25 78.84,-89.02 113.39,-119.44l50.7 -46.81c4.57,-4.22 6.44,-4.67 11,-8.91 3.5,-3.26 5.28,-5.76 9.02,-8.89 4.8,-4.02 6.19,-4.31 10.89,-9.02 7.5,-7.52 13.33,-11.46 20.83,-18.96 4.64,-4.65 6.08,-5.03 10.85,-9.04l208.13 -162c35.96,-26.9 149.13,-100.65 190.47,-121.96l100.16 -55.06c24.65,-13.28 51.33,-27.7 77.24,-38.18 35.62,-14.43 71.16,-33.14 107.48,-47.73 137.56,-55.29 237.98,-90.74 380.96,-126.47 51.76,-12.94 105.63,-26.32 157.97,-35.06 33.87,-5.65 68.63,-10.21 101.52,-17.88l-22.26 -37.44c-11.75,-17.34 -27.2,-35.04 -44.56,-46.98 -20.89,-14.38 -39.64,-25.03 -68.5,-25.03 -62.59,0 -111.65,17.09 -166.37,30.63 -12.03,2.97 -19.72,6.18 -30.63,9.17 -94.29,25.83 -204.47,67.34 -293.08,102.92 -38.33,15.39 -74.29,29.08 -111.56,45.65 -68.46,30.43 -134.08,61.3 -198.96,97.55 -5.45,3.04 -6.64,4.24 -12.62,7.28 -17.62,8.94 -33.91,19.43 -50.3,29.3l-96.43 60.77c-45.41,30.27 -98.39,64.02 -139.87,98.92 -29.04,24.44 -56.35,47.54 -85.72,71.48 -38.62,31.48 -92.28,74.56 -129.29,107.52l-42.79 36.81c-28.13,24.78 -54,52.07 -80.61,78.59 -3.31,3.3 -5.92,5.54 -8.94,8.97l-45.89 53.62c-17.65,20.87 -36.18,44.63 -57.95,61.44 -20.01,15.45 -41,40.02 -56.89,60.52 -23.2,29.95 -46.88,59.44 -68.44,90.75l-83.34 113.66c-45.48,60.58 -89.13,124.32 -125.49,190.91l-42.46 76.94c-5.28,9.43 -8.88,15.84 -13.91,25.89 -26.79,53.59 -52.13,105.18 -76.33,160.47 -16.33,37.31 -32.72,74.04 -46.46,112.74 -6.94,19.55 -14.48,36.98 -21.39,56.21 -113.39,315.55 -188.8,663.5 -188.8,1001.2l-0.02 0.02z"/>
   <path class="fil0" d="M4874.69 4495.88c3.37,2.91 -2.14,1.21 5.91,3.98l0.3 427.84c1.9,11.88 0.9,-1.58 2.61,10.15l0.13 242.57c0,8.5 2.92,86.69 -2.43,93.02l-335.65 -0.77c-13.7,-1.89 -86.13,-2.34 -97.51,0.63l-1 13.31 -335.33 0 -1.95 -333.04c-2.53,-2.72 -2.01,0.42 -2.01,-7.51l-0.69 -111.88c-3.89,-15.35 -1.31,-66.27 -1.3,-85.57 0.02,-28.58 -1.98,-54.84 -1.98,-85.57 0,-57.37 -2,-111.98 -2,-171.13l533.33 -2.01c16.71,-0.1 29.07,2.02 47.74,2.01 43.57,-0.02 141.58,-1.95 183.42,-0.26 11.39,0.46 8.78,-1.59 8.39,4.24l0.01 -0.02zm-1429.56 187.06c0,17.97 0.7,58.35 3.14,74.47 2.95,19.5 4.72,123.64 4.75,150.47 0.02,13.44 2.09,22.12 2.06,37.74 -0.05,22.26 -4.22,102.9 3.37,114.04 10.88,15.96 169.7,90.59 204.28,108.15l100.18 55.04c32.69,19.37 62.7,41.31 93.03,64.17 15.36,11.59 28.57,22.59 43.19,34.42l188.28 181.85c17.13,19.45 72.84,73.75 86.05,91.06 10.26,13.43 25.96,26.39 36.96,40.64 19.76,25.58 43.07,48.97 62.22,75.09 44.65,60.89 86.79,123.4 122.35,190.06 2.9,5.44 4.65,7.44 7.31,12.59 22.91,44.38 30.42,56.17 49,108.21 7.38,20.69 33.72,97.87 48.5,108.7 0.54,-6.6 4.5,-18.3 6.72,-25.12 3.06,-9.4 4.52,-16.76 8.05,-25.78 6.46,-16.54 11.3,-31.68 17.67,-48 21.81,-55.89 37.81,-87.1 62.44,-136.55 7.72,-15.49 15.04,-27.47 23.22,-42.45 30.76,-56.3 66.95,-108.89 104.47,-160.19 30.69,-41.98 63.87,-78.76 96.12,-118.79 3.6,-4.46 3.94,-5.31 8.16,-9.74l63.64 -69.69c15.85,-16.02 32.45,-35.72 50.13,-49.37 17.94,-13.86 61.34,-58.41 86.44,-78.73 48.96,-39.64 97.61,-81.26 149.9,-116.75 7.27,-4.94 12.99,-8.42 20.09,-13.74 37.05,-27.83 80.52,-52.68 121.44,-75.56 15.37,-8.6 27.7,-15.7 43.82,-23.83 14.54,-7.33 30.95,-14.39 45.37,-20.3 16.64,-6.82 31.19,-12.87 48.07,-19.59 15.44,-6.15 31.37,-12.48 45.87,-19.8l43.1 -24.56c0,-27.64 2,-47.98 2,-75.61l0 -238.8c0,-45.13 8.31,-114.98 -7.36,-147.85 -14.29,-29.97 -54.82,-56.31 -78.71,-80.48l-39.8 -37.82c-23.56,-23.56 -103.94,-100.3 -118.9,-119.9 -10.19,-13.35 -26.75,-27.75 -39.3,-40.3l-242.43 -233.17c-14.32,-11.06 -26.4,-27.33 -40.16,-39.44 -35.09,-30.91 -68.31,-64.3 -101.47,-97.52l-20.94 -18.86c-94.26,-90.72 -186.04,-184.12 -278.55,-276.65l-83.08 -76.11c-6.5,9.7 -103.46,102.38 -118.89,117.91l-17.93 15.89c-22.98,21.26 -43.32,48.25 -68.13,67.18 -22.46,17.14 -47.29,46.59 -68.12,67.2 -6.38,6.31 -11.27,9.1 -17.96,15.87 -19.38,19.61 -38.03,40.48 -58.71,58.7l-146.2 142.33c-6.38,6.31 -11.28,9.1 -17.96,15.87 -56.11,56.77 -114.62,110.66 -171.13,167.16 -11.75,11.75 -22,22.2 -33.79,33.87l-222.88 216.91c-6.37,6.31 -11.27,9.1 -17.95,15.87l-50.74 50.76c-5.14,5.17 -13.62,11.45 -17.13,16.7 -17.03,25.49 -23.17,70.3 -23.17,112.15l-0 -0.01z"/>
   <path class="fil0" d="M6756.4 6153.15c-194.56,-18 -398.25,10.74 -584,61.51 -148.73,40.66 -216.08,70.88 -344.17,147.16l-65.28 42.01c-12.43,8.15 -20.91,14.1 -31.65,22.17 -5.53,4.14 -9.37,7.88 -15.09,12.68 -5.31,4.44 -10.11,8.19 -15.38,12.54l-135.07 109.63c-21.04,16.94 -54.08,48.88 -78.93,54.94 -6.29,0.56 -24.93,7.8 -32.42,10.76 -49.74,19.67 -180.34,65.65 -227.85,78.6 -214.63,58.5 -369.4,8.45 -537.13,-116.39l-127.63 -113.16c-22.9,-18.28 -26.98,-24.74 -55.25,-44.26l-6.73 -5.2c-18.05,12.09 -82.37,81.75 -110.03,104.88 -25.09,20.98 -44.53,38.41 -72.19,59.14 -91.4,68.52 -151.2,94.29 -267.45,122.59 -10.94,2.66 -25.55,4.19 -37.59,6.19 -77.77,12.94 -166.95,8.49 -237.89,-9.43 -73.48,-18.56 -95.55,-30.26 -162.07,-54.83l-64.72 -22.83c-8.6,-2.87 -24.74,-10.74 -33.08,-8.72l-20.56 4.37 0.04 -20.43c-22.5,-8.78 -44.34,-26.99 -59.67,-44.96 -17.14,-20.09 -34.94,-34.56 -55.15,-50.23l-250.98 -170.84c-78.97,-45.62 -124.78,-70.17 -215.74,-100.39 -150.85,-50.12 -282.16,-70.89 -440.61,-86.78 -24.35,-2.44 -196.15,-8.8 -199.4,-10.3 -99.95,0 -189.76,52.65 -276.24,95.54 -10.63,5.27 -24.4,15.23 -35.83,17.89l0 3.98c12.04,2.8 42.17,16.61 57.94,21.66 57.83,18.51 110.98,21.78 169.46,29.53 43.3,5.74 155.49,4.52 198.45,4.52l199 -1.99c37.66,-0.09 74.52,5.17 111.1,10.28 92.83,12.99 189.68,47.85 269.61,92.56 76.67,42.89 147.36,92.86 219.43,142.74l194.53 127.85c62.31,34.05 126.78,67.47 195.15,87.43l164.53 36.46c12.88,1.19 23.78,3.3 35.71,4.09 11.79,0.78 26.92,0.96 39.44,2.35 35.6,3.97 76.35,1.58 113.72,1.7 16.38,0.06 25,-1.99 39.8,-1.99 -17.49,26.12 -41.68,44.2 -66.52,62.83 -37.33,27.98 -77.88,54.91 -118.63,78.38 -14.06,8.1 -28.02,15.07 -42.09,23.58 -13.69,8.26 -28.39,14.86 -42.76,22.91 -36.47,20.43 -102.11,44.56 -141.91,55.1 -87.13,23.05 -149.59,21.55 -240.85,21.92l-123.33 -8c4.16,6.22 26.85,23.28 33.93,27.76 53.26,33.77 115.87,60.28 179.54,71.2 39.61,6.8 74.13,12.54 114.88,12.48 10.63,-0.01 21.28,0.08 31.91,0.07 12.63,-0.01 16.5,-2.17 29.78,-2.06 16.08,0.13 40.65,-3.45 55.23,-6.46 81.91,-16.85 157.83,-46.74 232.01,-84.39 8.09,-4.11 12.06,-7.13 20.52,-11.31 47.85,-23.66 93.33,-53.93 137.58,-83.3l36.52 -25.18c77.2,-57.33 147.23,-109.14 220.1,-173.91 3.98,-3.54 4.93,-3.46 8.92,-7 3.27,-2.91 4.64,-4.97 8.07,-7.85l90.43 -82.7c6.3,-6.33 10.67,-8.54 16.97,-14.87l63.66 -63.71c8.67,-8.67 25.38,-23.43 31.34,-32.34 49.09,32.88 97.17,69.52 145.28,103.46l89.84 63.39c75.09,55.73 84.55,55.53 153.46,127.13 25.17,26.14 49.83,54.15 77.66,77.56 55.21,46.44 109.26,72.65 170.94,109.64 90.56,54.3 155.12,95.92 278.2,95.91 26.6,0 94.91,1.6 118.25,5.13 64.29,9.72 147.13,-17.41 203.48,-45.57 17,-8.49 68.07,-36.89 76.26,-49.11l-60.24 3.44c-10.16,1.39 -21.02,0.46 -31.37,0.48 -12.8,0.01 -17.8,2.16 -31.74,2.09 -149.03,-0.85 -204.89,-1.2 -339.74,-54.32 -8.97,-3.54 -13.52,-5.9 -21.78,-10.06 -7.94,-4.01 -14,-5.95 -21.93,-9.91 -15.4,-7.7 -27.47,-14.61 -43.12,-22.55l-30.52 -17.24c-51.8,-28.77 -166.72,-95.93 -195.65,-150.61 11.3,0.25 20.17,4.66 33.65,6.15 10.24,1.13 25.29,3.54 35.94,3.86 25.36,0.76 53.83,0.05 76.54,-3.18 104.94,-14.92 131.85,-21.41 231.54,-49.04 87.98,-24.39 172.81,-62.98 248.77,-113.4 87.83,-58.31 165.24,-131.1 254.72,-187.05 9.17,-5.73 16.36,-10.66 25.62,-16.17 66.2,-39.44 138.52,-76.94 217.28,-103.1 76.44,-25.39 156.72,-41.36 239.13,-41.46 13.7,-0.01 23.63,-2.07 39.73,-2.06 28.4,0.04 49.45,2.12 77.62,1.98l75.71 3.89c27.86,2.31 125.89,1.6 157.97,-3.01l70.46 -9.13c21.65,-3.04 46.09,-9.24 67.81,-13.79 21.45,-4.48 42.6,-10.54 64.69,-14.91 12.48,-2.47 21.33,-3.65 33.83,-5.97 8.27,-1.54 28.71,-2.96 32.99,-8.8 -11.54,-3.08 -44.65,-31.34 -55.7,-39.81 -20.6,-15.76 -114.02,-48.63 -135.57,-55.46 -12.43,-3.94 -65.39,-20.14 -77.37,-16.52l-0.01 0.01z"/>
   <path class="fil0" d="M4808.24 6352.51c16.73,-11.2 64.57,-95.88 81.57,-121.41 27.19,-40.83 51.46,-83.3 78.81,-124.16 14.11,-21.07 27.11,-39.57 40.99,-60.5 6.83,-10.28 13.1,-19.12 20.64,-29.11l88.87 -116.1c16.74,-20.52 52.37,-64.55 70.67,-82.55 5.54,-5.45 6.28,-7.13 11.05,-12.84l100.42 -104.54 69.55 -57.81c29.15,-21.66 59.09,-44.3 90.22,-63.01 10.52,-6.33 20.57,-11.93 31.35,-18.4 31.73,-19.03 71.42,-38.88 107.85,-47.37l-81.09 86.06c-28.4,28.36 -54.15,58.44 -82.59,86.55l-60.69 64.69c-14.53,14.47 -26.49,30.21 -39.68,45.89l-95.67 115.26c-31.73,38.88 -61.93,78.48 -87.17,121.77 -6.02,10.3 -10.16,17.63 -16.14,27.65l-95.02 157.71c-5.7,9.48 -10.06,16.68 -15.69,26.1 -4.8,8.05 -13.26,19.79 -15.29,28.48 44.14,-3.67 90.41,-14.16 129.35,-23.87 98.46,-24.55 191.62,-61.24 285.43,-98.64l105.94 -47.29c18.25,-9.2 33.75,-17 52.37,-25.24l50.61 -26.99c51.39,-30.68 89.03,-47.96 141.58,-89.26l111.81 -99.12c20.55,-18.1 37.79,-39.26 56.72,-58.7l58.78 -78.52c25.58,-38.38 49.52,-79.06 71.38,-119.65l63.01 -130.02c25.74,-51.41 52.46,-101.56 82.05,-150.77 47.38,-78.79 53.94,-74.94 94.81,-136.03 5.44,-8.14 9.74,-14.28 14.87,-22.94 4.32,-7.31 12.56,-17.72 14.56,-25.24 -12.68,0 -22.56,-0.1 -32.38,-1.44l-69.11 -2.52c-14.48,0.07 -21.62,-1.93 -33.74,-2.07 -47.2,-0.58 -89.15,-3.91 -137.39,-3.91 -135.91,0 -215.11,3.17 -343.07,35.02 -20.39,5.08 -38.81,10.61 -57.16,16.47 -56.13,17.94 -111.2,37.76 -164.95,61.91 -83.37,37.44 -164.25,82.45 -238.77,135.34 -7.62,5.41 -14.46,9.85 -22.17,15.64 -7.48,5.63 -14.35,10.78 -21.6,16.21 -28.81,21.56 -55.35,44.4 -81.09,70.14 -31.13,31.13 -62.09,63.91 -83.42,103.64l-9.17 18.44c-6.2,9.56 -31.6,32.79 -41.7,44.12 -3.6,4.04 -4.22,5.66 -8,9.91 -32.65,36.55 -57.76,83.46 -79.75,127.2l-33.76 77.68c-3.84,9.78 -6.08,18.13 -9.93,27.87 -21.43,54.14 -35.81,121.27 -47.36,179.5 -4.07,20.55 -7.4,43.04 -10.13,65.49 -9.92,81.77 -11.57,132.5 -11.57,215.28l-0 0z"/>
   <path class="fil0" d="M2675.01 5142.62c4.21,18.06 47.02,71.91 59.99,89.26l37.93 53.61c47.17,75.25 83.93,156.02 122.28,235.91 24.16,50.34 52.09,97.11 80.38,144.48 8.87,14.86 20.04,30.61 30.13,45.49 24.4,36 72.69,93.39 105.39,119.48 13.69,10.92 25.93,25.03 39.02,36.59l60.18 51.26c6.91,5.4 13.43,11.44 21.07,16.74 29.85,20.68 60.35,41.54 92.35,58.88l47.37 26.25c15.01,9.14 34.29,17.57 50.14,25.49 103.07,51.54 207.4,95.32 319.15,132.58 59.17,19.73 179.36,56.46 244.02,56.46 -4.49,-8.49 -9.7,-15.81 -15.06,-24.74l-44.75 -74.65c-10.04,-16.77 -45.11,-70.55 -52.23,-87.07 -6.02,-13.97 -12.36,-27.67 -21.85,-39.66l-160.11 -202.24c-25.11,-28.2 -47.67,-57.85 -74.63,-84.56 -40.74,-40.38 -77.59,-83.91 -118.41,-124.36 -7.64,-7.56 -11.46,-13.58 -18.88,-20.92l-59.22 -62.17c72.6,16.92 156.93,75.88 216.59,119.71 6.81,5 13.02,8.63 19.6,14.23 30.41,25.87 62.43,50.26 90.65,78.49 22.26,22.27 47.31,41.34 69.65,63.68 11.76,11.76 22.13,22.04 33.81,33.85 6.63,6.7 11.46,9.3 17.94,15.89 16.89,17.17 38,30.67 59.83,41.66 8.58,4.32 15.3,6.97 23.6,10.23 10.11,3.98 12.07,8.04 17.86,15.96l39.59 61.9c4.43,7.78 10.54,13.91 13.83,21.98 -11.28,-4.7 -14.27,-4.69 -19.88,-13.94 -15.96,-26.31 -30.78,-55 -50.52,-78.82 -7.09,-8.56 -49.71,-24.14 -63.24,-34.27 -24.93,-18.68 -46.96,-38.63 -68.84,-60.51l-48.85 -46.67c-5.76,-4.87 -11.98,-12.56 -19.3,-14.52 3.32,4.96 9.93,12.69 14.43,17.42l62.03 69.3c14.54,18.79 31.3,34.63 46.07,53.43 4.94,6.28 9.26,11.69 14.33,17.5 5.99,6.85 9.25,11.79 14.99,18.84 59.87,73.51 113.67,151.59 164.17,231.83l102.68 161.98c8.2,12.48 17.71,31.02 29.04,38.61l-2 -127.35c-0.42,-8.79 -1.76,-8.26 -2,-17.89 -1.78,-69.52 -24.58,-184.69 -45.02,-253.47 -19.35,-65.1 -43.74,-126.51 -73.69,-186.99 -4.78,-9.67 -8.48,-14.87 -13.26,-24.56 -4.39,-8.91 -8.58,-14.44 -13.37,-22.44l-47.37 -66.06c-14.43,-17.87 -24.63,-21.88 -31.36,-42.28 -2.87,-8.7 -7.79,-18.04 -12.06,-25.74 -58.42,-105.19 -195.85,-201.28 -298.28,-262.88 -16.45,-9.9 -31.19,-18.24 -47.98,-27.64 -33,-18.46 -67.01,-33.69 -101.45,-49.78 -8.52,-3.98 -16.87,-7.76 -24.81,-11 -9.39,-3.84 -17.15,-7.54 -26.84,-10.97 -149.78,-53.08 -260.26,-90.78 -434.57,-90.78l-77.6 0c-48.23,0 -90.19,3.31 -137.39,3.91 -11.89,0.14 -17.78,2.16 -31.75,2.08 -36.93,-0.21 -66.6,3.96 -103.49,3.96l0.01 0.02z"/>
   <path class="fil0" d="M2947.63 4539.67c8.42,-0.7 23.85,-8.79 31.83,-11.94 19.79,-7.81 59.56,-27.38 77.7,-31.74 30.31,-7.27 58.93,-12.63 88.17,-21.27 33.32,-9.85 66.7,-21.33 96.8,-36.53 57.08,-28.83 109.81,-64.54 156.73,-107.94 8.08,-7.47 14.61,-15.85 22.95,-22.82 27.55,-23.02 51.93,-50.46 77.48,-75.75 5.18,-5.13 7.9,-6.17 13,-10.88 14.56,-13.46 29.17,-31.81 43.95,-43.61 16.88,-13.46 30.33,-28.58 45.56,-43.99l213.89 -205.99c4.93,-4.88 7.08,-5.63 11.96,-9.92 15.77,-13.89 29.04,-30.86 44.81,-44.75 18.89,-16.64 37.43,-38.81 55.9,-53.54 24.14,-19.25 75.82,-73.27 101.25,-97.74l56.84 -54.59c5.2,-4.35 6.83,-4.93 11.88,-10.01 15.31,-15.39 28.63,-30.52 45.54,-44 15.37,-12.26 28.67,-30.61 44.07,-43.49 24.19,-20.22 128.78,-120.93 137.21,-129.44 8.12,-8.19 14.78,-12.69 22.9,-20.88 22.04,-22.24 46.35,-43 65.87,-67.46 13.61,-17.06 41.43,-42.96 62.25,-69.09 6.56,-8.24 13.23,-18.52 21.63,-24.13 29.66,44.3 174.44,177.44 218.39,221.39l89.55 85.57c15.57,15.57 30.18,28.19 45.77,43.78 58.72,58.71 121.36,113.4 180.09,172.13 44.09,44.09 91.29,85.31 135.32,129.34l22.8 20.98c11.92,9.96 22.6,22.93 33.88,33.78l33.87 31.8c4.12,4.12 6.8,6.91 10.91,10.99l33.87 31.8c4.09,4.09 6.73,6.96 10.91,10.98l79.64 75.58c4.02,4.02 6.81,7.17 10.92,10.96 4.83,4.47 7.1,5.16 12,9.88 7.86,7.57 14.12,14.2 21.85,21.93 4.09,4.09 6.74,6.97 10.91,10.98l80.13 75.08c16.58,12.65 74.01,74.07 90.39,86.72l47.36 40.2c69.53,60.72 160.04,92.61 252.21,102l62.51 25.05c20.88,7.43 43.39,19.61 64.93,24.63 -8.38,-12.51 -81.37,-83.7 -95.82,-95.22 -34.27,-27.34 -63.76,-67.26 -96.73,-96.3 -5.24,-4.61 -7.64,-5.59 -12.94,-10.93l-132.3 -130.37c-16.74,-16.74 -32.02,-32.02 -48.75,-48.76l-145.26 -141.28c-24.07,-24.07 -47.1,-50.12 -72.65,-72.62 -5.24,-4.61 -7.64,-5.6 -12.94,-10.93 -4.47,-4.49 -7.44,-7.51 -11.92,-11.97 -16.74,-16.74 -32.02,-32.02 -48.75,-48.75l-36.62 -35.03c-18.56,-14.81 -43.32,-42.93 -60.89,-60.5 -16.41,-16.41 -31.35,-31.32 -47.73,-47.79l-217.91 -213.92c-5.09,-4.72 -7.82,-5.75 -13,-10.88 -32.16,-31.81 -62.7,-66.66 -97.38,-95.65 -33.2,-27.75 -87.42,-92.5 -120.57,-120.22 -29.08,-24.31 -218.74,-215.19 -229.1,-228.59 -6.08,-7.88 -41.96,-43.95 -48.91,-48.6 -5.37,1.43 -9.86,6.09 -14.22,9.67 -19.22,15.8 -36.99,34.55 -50.04,45.47l-171.95 164.35c-21.07,17.6 -133.64,133.45 -157.3,157.11l-348.28 348.2c-5.13,5.18 -6.17,7.9 -10.88,13 -8.13,8.78 -16.34,16.28 -24.9,24.85 -64.5,64.5 -127.54,127.54 -192.04,192.03l-498.5 490.5c-15.73,15.91 -33.31,30.71 -47.65,47.87 -10.78,12.89 -24.35,25.93 -32.43,41.2l0 0.02z"/>
   <path class="fil0" d="M6071.86 8605.14l236.81 0c9.75,0 5.97,-22.6 5.97,-41.79l3.98 -716.39c2.49,10.7 14.1,34.83 19.04,46.62l141.59 332.03c27.46,63.65 54.46,125.27 81.3,189.34l80.45 190.19 278.59 0 0 -1038.76 -240.79 0 0 620.87c-8.53,-2.28 -12.13,-18.65 -19.22,-34.51 -30.83,-68.98 -69.26,-163.2 -99.32,-234.99l-131.63 -312.12c-2.96,-6.85 -5.72,-13.15 -8.46,-19.4 -2.37,-5.41 -6.74,-14.39 -8.01,-19.84l-340.28 0 0 1038.75 0 0.01z"/>
   <path class="fil0" d="M3240.16 8599.17c0,4.59 1.39,5.97 5.97,5.97l236.8 0 0 -758.18c4.73,1.71 1.61,-0.17 4.57,3.4l38.54 88.82c7.34,16.43 12.96,31.17 20.02,47.63l143.15 334.44c37.7,84.76 74.57,176.36 112.06,262.05 2.58,5.89 6.57,21.84 13.98,21.84l272.62 0 0 -1038.75 -240.78 0 0 620.86c-7.5,-2 -3.69,1.17 -11.1,-16.77l-140.7 -332.91c-5.94,-13.85 -10.84,-25.01 -16.5,-39.22 -5.55,-13.95 -11.22,-26.15 -16.48,-39.24l-66.24 -156.64c-4.2,-10.26 -12.71,-36.08 -19.64,-36.08l-336.3 0 0 1032.79 0.01 -0z"/>
   <path class="fil0" d="M4225.18 820.44c11.75,0.26 17.91,7.3 32.26,-15.5 12.08,-19.19 22.78,-32.55 38.88,-48.68 7.03,-7.04 10.21,-9.61 17.82,-16.01 3.78,-3.17 5.39,-5.67 9.11,-8.81 7.27,-6.14 28.13,-17.63 32.8,-24.91 10.07,-15.71 -4.35,-7.32 26.82,-38.85 6.87,-6.94 12.08,-9.93 18.94,-16.88 5.91,-5.98 10.77,-11.29 16.87,-16.96l30.26 -23.47c0.29,-0.3 0.69,-0.72 0.96,-1.03 0.38,-0.43 1.43,-1.74 1.77,-2.2 1.55,-2.03 2.63,-3.83 3.98,-5.97 29.08,-46.49 71.93,-78.7 99.31,-9.04 1.72,4.36 2.01,5.41 3.67,10.27 5.94,17.5 9.7,4.99 23.32,18.46l99.44 95.57c9.72,9.83 18.08,18.1 27.85,27.87 5.13,5.13 8.82,8.79 13.93,13.94 6.06,6.11 8.37,7.61 14.84,13.02 18.81,15.72 36.31,37.57 54.79,54.66 5.69,5.26 9.11,6.98 14.96,12.89l41.77 41.81c9.87,9.93 18.77,16.76 28.86,26.87l41.75 41.83c5.7,5.64 9.49,7.23 15.04,12.82 11.83,11.92 12.47,13.87 20.98,26.78 2.48,3.76 0.75,1.67 3.32,4.63 -10.09,15.07 -6.05,12.64 -21.62,32.11 -22.82,28.58 -43.01,49 -64.54,74.76 -4.22,5.06 -9.07,9.3 -13.85,14.01l-94.52 98.5c-6.11,6.06 -7.61,8.37 -13.02,14.84l-183.01 175.17c-7.42,7.48 -40.1,36.35 -47.23,36.35 -15.8,0 -34.5,2.46 -47.88,-7.86 -9.07,-7 3.17,-4.99 -4.95,-18.85 -4.52,-7.7 -9.28,-6.1 -17.48,-10.44 -15.84,-8.37 -34.13,-24.97 -45.59,-37.99l-12.97 -14.9c-27.2,-29.08 -36.56,-41.61 -70.42,-68.87 -19.03,-15.31 -41.07,-37.21 -53.85,-57.59 -20.95,-33.41 -43.66,-44.17 -69.77,-69.52 -12.07,-11.72 -34.01,-28.42 -42.77,-40.81 -5.1,-7.23 -4.2,-12.87 -10.04,-17.81 -3.3,-2.8 -17.16,-9.06 -32.74,-22.98 -18.44,-16.47 -57.06,-54.62 -59.18,-80.11 5.35,-1.43 58.85,-48.06 66.19,-55.2l26.88 -22.92c9.22,-7.43 5.36,-6.3 4.44,-17.39 6.06,0.14 7.25,0.89 11.94,1.99 -0.64,-7.73 -1.8,-5.18 -1.99,-13.93 8.49,0.7 9.42,3.28 17.91,3.98 -1.81,-3.79 -3.54,-10.63 -3.98,-15.92 8.49,0.7 9.42,3.28 17.91,3.98 -1.5,-6.43 -3.39,-8.73 -3.98,-15.92 7.19,0.59 9.48,2.48 15.92,3.98 -0.6,-7.19 -2.48,-9.49 -3.98,-15.92 8.97,0.2 10.52,2.25 17.91,3.98 -2.08,-4.33 -3.83,-11.45 -3.98,-17.91 4.74,1.11 10.01,2.09 13.94,3.98 -0.13,-5.49 -2.29,-14.14 -3.98,-17.91l-0.03 0.01zm-429.83 167.15c13.29,25.11 35.66,56.83 56.2,77.13l148.29 142.25c22.52,19.83 40.12,40.28 58.48,54.94l111.64 111.24c8.5,8.53 15.65,13.55 23.88,21.88l134.52 134.13c16.34,13.04 71.36,69.78 90.34,88.76 15.41,15.41 29.38,29.35 44.77,44.77l46.27 43.28 309.98 -300.94c15.11,-14.96 28.67,-28.76 43.74,-43.82l110.44 -108.45c8.12,-8.2 14.77,-12.69 22.89,-20.88l171.13 -179.1c7.78,-7.78 14.13,-14.09 21.89,-21.89 4.16,-4.17 6.43,-6.87 11.3,-10.6 5.9,-4.51 7.14,-4.89 11.09,-10.79 -9.62,-18.19 -23.76,-35.06 -37.3,-50.26l-217.91 -229.83c-30.33,-30.33 -59.21,-59.22 -89.55,-89.55 -7.78,-7.78 -14.1,-14.1 -21.89,-21.89 -4.09,-4.09 -6.73,-6.96 -10.91,-10.98 -4.91,-4.73 -7.18,-5.42 -12,-9.89l-66.64 -66.69c-8.5,-8.53 -15.65,-13.55 -23.88,-21.88l-196.03 -184.05c-10.13,-9.02 -26.92,-23.38 -38.28,-29.38 -11.05,7.4 -54.21,47.87 -69.06,60.28 -16.93,14.15 -96.76,94.59 -110.53,108.37 -14.75,14.74 -28.04,28.04 -42.78,42.79 -12.92,12.92 -32.82,30.37 -43.43,44.12l-269.01 276.24c-4.61,4.99 -4.94,7.45 -9.9,11.99 -37.5,34.31 -65.07,65.31 -100.5,96.5l-21.99 21.79c-5.25,4.38 -6.79,4.87 -11.86,10.02l-23.37 20.41 -0.02 -0.02z"/>
   <path class="fil0" d="M7498.66 7747.46l33.67 127.52c12.41,60.13 31.54,129.09 44.43,190.38l45.28 193.52 -240.79 0c39.71,-170.45 77.75,-341.17 117.41,-511.41zm-449.73 857.67l250.74 0c3.1,-13.3 45.43,-193.98 49.75,-202.98l306.45 0 47.76 202.98 270.64 0c-0.81,-9.74 -5.57,-22.15 -7.96,-31.84l-61.29 -227.25c-10.87,-44.19 -23.93,-85.76 -35.03,-130.13 -11.1,-44.37 -23.55,-86.52 -35.01,-130.16l-139.3 -519.37 -368.15 0c-0.76,9.21 -5.54,22.69 -7.95,31.85l-52.46 194.3c-3.32,11.4 -6.33,22.69 -8.85,32.94 -10.87,44.2 -23.97,85.57 -35.01,130.15l-52.53 194.22c-6.04,22.2 -10.83,42.04 -17.17,64.42l-104.63 390.87 -0.01 0z"/>
   <path class="fil0" d="M2635.22 7747.46c7.93,2.11 5.94,2.97 11.1,26.71 15.9,73.08 38.14,155.1 52.74,225.85 12.37,59.94 33.06,133.36 45.44,193.35 2.35,11.37 5.49,22.01 7.63,32.17 2.33,11.06 6.46,22.19 6.46,33.34l-238.79 0c0,-17.82 115,-492.46 115.42,-511.41l0 -0zm-443.76 857.67l240.79 0c8.27,0 12.41,-31.73 16.32,-47.36 4.07,-16.25 7.9,-33.64 12.33,-51.34l18.7 -76.82c2.12,-8.5 5.69,-19.19 6.37,-27.45l306.45 0 43.4 179.47c2.02,8.19 2.22,23.5 10.33,23.5l264.66 0c0,-12.16 -4.35,-21.45 -7.15,-32.65 -18.81,-75.22 -42.62,-152.62 -61.68,-228.85 -5.51,-22 -11.11,-42.54 -17.43,-64.16 -30.2,-103.37 -57.77,-220.49 -87.69,-326.22l-35.22 -129.95c-2.93,-9.85 -5.27,-20.55 -8.43,-31.38l-17.61 -65.96c-10.58,-38.82 -31.19,-109.36 -39.35,-145.72 -1.51,-6.72 -0.9,-13.89 -8,-13.89l-358.19 0c-7.32,0 -8.53,13.96 -11.94,27.86l-70.49 261.83c-33.47,118.26 -64.53,241.92 -97.08,360.62 -28.19,102.76 -62.76,225.72 -88.32,327.58l-13.3 48.62c-1.72,5.81 -6.06,12.25 2.53,12.25l-0 0z"/>
   <polygon class="fil0" points="5182.35,8605.14 5918.63,8605.14 5918.63,8455.89 5452.98,8455.89 5452.98,8137.5 5823.12,8137.5 5823.12,7988.25 5452.98,7988.25 5452.98,7715.63 5918.63,7715.63 5918.63,7566.38 5182.35,7566.38 "/>
   <polygon class="fil0" points="4217.22,7715.63 4499.8,7715.63 4499.8,8605.14 4770.43,8605.14 4770.43,7715.63 5053.01,7715.63 5053.01,7566.38 4217.22,7566.38 "/>
   <polygon class="fil0" points="1403.43,8605.14 2117.83,8605.14 2117.83,8455.89 1674.06,8455.89 1674.06,7566.38 1403.43,7566.38 "/>
   <path class="fil0" d="M3229.61 2578.17l1112.48 2.97c-5.99,-60.26 -46.06,-124.7 -91.46,-162.33 -66.92,-55.46 -100.57,-50.57 -204.42,-48.32 -11.13,-29.43 -57.47,-78.6 -77.66,-95.4 -29.91,-24.9 -66.43,-49.2 -109.75,-65.43 -95.19,-35.65 -202.58,-28.17 -285.05,16.95 -34.47,18.86 -75.74,40.59 -96.83,76.3 -21.04,35.63 -44.65,72.84 -63.82,111.26 -1.91,3.83 -4.8,11.35 -6.99,14.92 -4.83,7.89 -4.66,3.95 -15.22,6.71 -10.73,2.81 -22.59,7.24 -32.78,10.91 -10.22,3.68 -22.43,6.74 -30.94,12.87 -27.41,19.72 -94.93,86.94 -97.54,118.6l-0.01 -0z"/>
   <path class="fil0" d="M5486.81 6615.79c24.85,-6.07 57.89,-38 78.93,-54.94l135.08 -109.63c5.27,-4.35 10.07,-8.09 15.38,-12.54 5.73,-4.8 9.57,-8.54 15.09,-12.68 10.74,-8.06 19.22,-14.01 31.65,-22.17l65.28 -42.01c128.09,-76.28 195.44,-106.5 344.17,-147.16 185.74,-50.77 389.44,-79.5 584,-61.51l-10.73 -8.86c-5.19,-3.37 -6.08,-4.21 -11.41,-6.44 -75.86,-31.81 -121.2,-40.01 -208.1,-52.59 -20.51,-2.97 -42.81,-5.04 -65.68,-7.95l-84.15 -7.39c-8.67,-0.42 -7.28,-1.53 -15.93,-1.98 -5.8,-0.31 -12.13,0.32 -17.93,0.02 -8.75,-0.46 -8.31,-1.79 -17.84,-2.06 -72.87,-2.14 -145.76,-3.65 -217.08,1.94 -73.69,5.78 -142.84,16.1 -211.51,49.17 -30.37,14.63 -68.47,34.84 -96.44,52.81l-67.65 43.79c-15.58,9.77 -30.2,18.13 -45.75,27.88l-142.99 79.89c-9.54,4.84 -16.31,8.3 -24.67,13.15l-269.12 138.81 -256.68 111.46c-3.71,2.38 -1.41,0.78 -3.43,2.54 40.98,9.55 139.01,20.85 181.13,21.85 11.03,0.27 18.04,2.11 31.8,2.04 13.71,-0.08 21.1,1.42 31.83,2 17.24,0.93 112.76,0.19 132.8,-2.54 20.03,-2.73 40.24,-3.63 60.06,-7.6 16.42,-3.29 45.39,-8.76 59.88,-1.8l0 14.54 -0.01 -0.02z"/>
   <path class="fil0" d="M2272.69 6143.56c3.25,1.5 175.05,7.86 199.4,10.3 158.45,15.89 289.77,36.65 440.61,86.78 90.95,30.22 136.77,54.77 215.73,100.39l250.98 170.84c20.21,15.67 38.01,30.14 55.15,50.23 15.33,17.98 37.18,36.18 59.67,44.96l-0.04 20.43 20.56 -4.37c4.88,-15.96 5.91,-18.28 0,-23.87 24.1,0 39.08,2.15 59.76,3.92l59.08 6.59c20.19,2.6 38.95,2.14 62.27,3.4 10.19,0.56 16.82,2.01 29.86,2.04 13.91,0.03 19,-2.07 31.75,-2.09 64.77,-0.09 144.85,-9.83 210.42,-18.42 9.13,-1.2 18.74,-3.4 30.43,-3.4l-49.44 -26.17c-17.16,-6.87 -34.74,-13.45 -52.9,-20.73 -17.96,-7.21 -34.02,-12.59 -51.47,-20.17 -63.07,-27.43 -131.62,-64.69 -194.44,-96.09l-262.78 -137.2c-34.46,-19.84 -109.12,-65.24 -137.19,-79.71l-47.39 -26.24c-46.8,-28.26 -125.29,-62.97 -175.73,-78.98 -76.31,-24.22 -106.81,-24.46 -181.68,-35.23 -9.44,-1.35 -24.96,-2.05 -33.11,-2.7 -5.77,-0.47 -12.03,0.2 -17.81,-0.1 -8.74,-0.45 -8.31,-1.78 -17.84,-2.06 -48.31,-1.44 -97.37,0.61 -143.41,1.99l-134.41 10.85c-65.2,8.89 -146.25,19.14 -203.85,48.88 -6.25,3.22 -17.81,10.79 -22.21,15.95l-0.01 0.01z"/>
   <path class="fil0" d="M2726.75 9245.9l0 -210.94c76.62,0 181.08,-9.63 181.08,91.54 0,24.15 1.49,28.24 -5.69,52.02 -7.91,26.18 -26.48,41.45 -53.23,50.24 -33.41,10.99 -81.99,13.78 -122.17,17.13l0.01 0.01zm-147.26 491.52c24.38,-2.04 145.26,-54.84 145.26,-71.64l0 -282.57 35.82 1.99c82.04,0 175.44,-21.22 235.31,-81.09 89.04,-89.04 79.35,-263.22 -3.94,-343.31 -75.66,-72.75 -232.64,-63.2 -334.85,-63.13 -26.52,0.01 -49.28,-2 -77.61,-2l0 841.75 0 -0z"/>
   <path class="fil0" d="M3275.98 9034.97c93.71,0 163.17,-17.31 163.17,71.64 0,29.51 -14.62,49.67 -33.91,59.62 -31.52,16.27 -86.32,14 -125.29,14 0,-26.51 -2,-46.59 -1.99,-71.64 0.01,-27 -1.98,-48.53 -1.98,-73.63l0 0.01zm-143.28 -137.31l0 638.77c0,8.11 6.3,4.97 15.79,3.99 21.14,-2.18 43.15,-4.56 64.22,-9.54 66.65,-15.76 62.54,-38.33 68.4,-76.89 2.26,-14.93 -2.72,-52.12 -3.21,-68.74 -0.24,-8.37 0.7,-17.38 -0.23,-25.64 -1.67,-14.85 -1.7,-30.37 -1.7,-48.05l71.64 1.99c2.45,10.51 29.39,64.73 35.82,77.61 4.46,8.93 8.52,15.67 13.27,24.53 5,9.3 8.32,15.46 13.28,24.53l41.11 72.32 145.26 -1.99c0,-32.39 -71.05,-138.08 -97.51,-197.01 -4.62,-10.29 -6.69,-21.91 -11.94,-31.83l27.24 -20.52c32.84,-26.73 48.5,-47.04 59.94,-89.31 8.05,-29.69 12.43,-77.6 7.27,-110 -12.62,-79.1 -55.57,-117.39 -127.43,-145.19 -46.86,-18.13 -119.55,-25.02 -181.94,-25.02 -25.5,0 -46.31,2.15 -69.66,1.98 -23.44,-0.18 -46.4,3.99 -69.63,3.99l0.01 -0.01z"/>
   <path class="fil0" d="M3068.07 3058.81c-68,6.06 -136.86,28.41 -181.92,76.15 -144.95,153.57 -45.52,453.01 196.62,436.8 77.49,-5.19 141.75,-38.41 178.02,-78.07 38.58,-42.17 70.48,-106.09 68.34,-187.87 -3.78,-144.17 -108.23,-260.62 -261.07,-247.02l0 0z"/>
   <path class="fil0" d="M5427.12 9030.99c8.7,0.19 12.42,2.08 23.83,2.04 9.31,-0.04 18.6,-0.05 27.91,-0.05 43.26,-0.01 105.47,3.19 105.47,59.7 0,31.64 -4.02,56.16 -36.92,70.54 -28.94,12.65 -82.44,11.05 -118.3,11.05l-2 -143.28 0 0.01zm-143.28 -133.33l0 612.91c26.51,0 46.6,-2 71.64,-1.99 11.96,0.01 23.93,0.08 35.89,0.07 13.14,-0.02 20.69,-2.06 35.75,-2.06 0,-69.09 2,-131.73 2,-200.98l35.81 0c14.41,0 19.93,2 33.83,2 8.91,16.83 17.36,34.63 25.87,51.74 8.8,17.7 18.7,33.63 28.47,51.13 9.87,17.66 19.57,33.74 29.14,50.46 9.23,16.13 18.17,37.03 27.96,51.64 12.62,0 25.24,-0.01 37.85,0.05 14.13,0.06 20.61,-2.12 35.76,-2.05l55.79 0.07c9.7,-0.28 9.22,-1.85 17.85,-2.06l-87.59 -169.12c-33.72,-64.79 -33.43,-54.74 -14.37,-76.11 3.19,-3.58 4.37,-4.2 7.58,-8.34 13.05,-16.8 24.48,-23.11 38.05,-45.52 51.41,-84.86 30.95,-209.17 -48.56,-268.64 -63.25,-47.31 -149.96,-47.11 -239.39,-47.17 -16.59,-0.01 -27.7,2.04 -41.72,2.06 -14.61,0.02 -29.27,-0.01 -43.88,-0.1 -16.02,-0.09 -26.2,2.02 -43.75,2.02l0.02 0z"/>
   <path class="fil0" d="M3801.32 9231.97c0,-47.59 -0.36,-126.61 19.23,-161.86 23.52,-42.31 150,-91.11 191.74,22.54 14.34,39.06 20.03,159.1 7.47,212.48 -7.13,30.34 -24.76,56.69 -53.78,69.59 -54.72,24.33 -113.58,10.79 -139.43,-32.66 -8.76,-14.72 -14.22,-29.86 -18.11,-49.55 -3.87,-19.56 -7.11,-38.06 -7.11,-60.55l0 -0zm-139.3 -57.71c0,97.47 -10.03,179.99 49.72,258.73l30.37 31.31c111.02,104.07 369.52,78.26 410.97,-117.39 12.81,-60.51 17.67,-241.12 -4.32,-299.21 -6.81,-18 -12.22,-29.54 -21.17,-44.51 -3.98,-6.66 -8.18,-11.74 -13.02,-18.81 -10.06,-14.7 -36.57,-37.33 -51.4,-48.09 -84.54,-61.4 -221.39,-63.32 -309.07,1.7 -77.54,57.52 -92.08,139.36 -92.08,236.26l0 0z"/>
   <path class="fil0" d="M1174.59 3514.84l19.31 16.5c6.33,5.29 12.03,11.85 18,17.82 30.78,30.78 77.46,78.07 98.01,116.91l-137.31 139.29c-5.4,-20.21 -44.37,-61.21 -60.18,-75.13 -12.07,-10.62 -63.85,-57.82 -66.37,-70.96 -1.09,-5.7 7.46,-16.62 10.7,-21.49 4.87,-7.32 9.38,-12.22 15.85,-17.97 3.82,-3.4 4.86,-3.63 9.28,-6.63 33.85,-23.09 53.94,-58.77 75.29,-79.93 6.32,-6.26 12.67,-11.31 17.41,-18.41l0 0zm-388.04 151.24c10.43,0.23 33.04,7.41 43.05,10.67 7.62,2.49 14.26,4.79 20.89,6.96 43.74,14.39 87.02,40.31 123.15,67.89 27.94,21.32 40.29,38.78 61.19,62.19 14.11,15.8 7.16,9.02 18.07,23.72 16.32,21.99 27.85,42.87 40.77,68.69 25.41,50.82 44.58,104.06 60.19,158.71 4.34,15.2 22.48,77.57 22.73,88.71l27.36 -88.06c17.76,-84.41 48.14,-170.65 104.43,-233.85l41.79 -41.79c48.94,-43.61 101.08,-67.77 161.3,-91.42 24.75,-9.72 39.95,-13.41 63.33,-20.25 4.7,-1.38 5.39,-1.53 11.01,-2.93 9.38,-2.32 6.27,0.72 10.65,-5.27 -20.09,-4.68 -136.55,-59.43 -164.33,-76.46l-26.63 -17.15c-22.24,-14.41 -52.35,-45.41 -71.24,-64.09 -6.18,-6.1 -8.18,-10.08 -13.87,-15.97 -72.93,-75.52 -95.8,-174.86 -118.36,-273.66 -7.42,-32.48 -11.81,-68.96 -19.48,-101.91 -1.51,2.37 -0.31,-0.22 -1.86,4.11 -7.29,20.35 -31.16,135.17 -46.62,182.22 -33.76,102.74 -51.37,147.91 -132.13,220.09 -10.56,9.44 -21.43,16.2 -32.88,24.83 -12.6,9.49 -22.13,15.62 -35.63,24.07 -6.19,3.87 -10.36,7.01 -16.7,11.16l-37.25 22.44c-13.57,7.53 -89.39,51.53 -92.92,56.34l-0.02 -0z"/>
   <path class="fil0" d="M4772.42 9506.58c0,11.53 24.74,3.7 47.47,6.26l103.76 3.69c59.85,-0.14 230.01,4.4 264.67,-13.94l-2 -131.33 -266.65 1.99 0 -109.45 222.87 -2c0,-12.62 2,-16.61 2,-29.85l0 -83.58c0,-7.23 -2.36,-6.98 -3.98,-13.93 -11.35,0 -13.76,-1.99 -25.87,-1.99l-191.03 0 -1.99 -97.51c23.79,0 44.28,1.59 69.73,1.91 12.09,0.15 19.29,2.13 33.74,2.07 31.47,-0.11 136.02,2.6 155.94,-7.24 17.79,-8.79 13.2,-104.35 13.2,-122.11 0,-6.87 -1.46,-7.7 -1.99,-13.93l-419.88 0 0 610.92 0.01 0z"/>
   <path class="fil0" d="M7697.65 3626.28c10.13,-5.36 10.45,-8.09 18.39,-15.45 4.29,-3.98 5.71,-4.21 9.96,-7.95 14.9,-13.12 59.06,-61.01 70.86,-70.43l38.93 -32.71c5.16,-3.94 5.41,-5.27 11.12,-6.79 8.63,12.89 20.19,27.22 31.34,38.31 6.47,6.43 11.47,11.44 17.91,17.91 26.79,26.96 66.9,52.9 78.11,100.99 -48.08,25.44 -78.72,74.25 -103.18,93.82l-38.11 27.56 -9.1 -6.81c-40.05,-30.13 -103.63,-95.76 -126.22,-138.44l-0.01 -0.01zm-274.61 19.9c28.2,6.57 147.73,54.15 162.06,62.81 40.61,24.54 93.96,69.26 122.21,104.65l25.57 30.15c7.84,9.63 15.56,22.52 21.88,33.84 7.58,13.6 12.12,22.88 18.47,37.25 20.57,46.56 35.4,123.17 62.33,192.38 3.2,8.23 3.7,13.99 9.35,20.5l48.51 -170.39c12.84,-38.55 23.14,-62.26 41.67,-95.64 4.12,-7.43 5.35,-10.69 10.1,-17.76 15.81,-23.5 26.79,-41.36 47.47,-61.97 39.04,-38.92 44.56,-44.77 91.9,-73.26 58.84,-35.41 83.42,-34.03 115.91,-49.26 9.63,-4.51 28.58,-16.45 38.44,-17.27 -3.85,-5.27 -27.39,-10.13 -41.04,-14.69 -15.42,-5.15 -27.13,-9.2 -40.6,-15.11 -26.59,-11.66 -48.93,-23.48 -72.39,-39.05 -89.53,-59.43 -152.54,-157.6 -188.47,-257.27 -9.75,-27.04 -18.37,-54.91 -26.78,-84.65 -3.64,-12.84 -20.74,-79.53 -20.74,-92.69 -18.61,13.64 -47.51,139.63 -59.98,172.85 -10.01,26.68 -21.11,54.89 -35.94,79.48l-22.31 35.4c-57.46,83.02 -137.37,137.53 -227.37,182.56l-80.26 37.14 -0 0z"/>
   <path class="fil0" d="M2378.5 4858.06c1.77,3.69 25.66,98.08 25.87,107.46 16.3,0 35.2,-4.28 51.57,-6.14 17.3,-1.96 34.7,-4.48 52.73,-6.97 36.16,-5 69.65,-6.61 105.78,-11.63 15.63,-2.18 37.76,-4.64 52.61,-5.1l55.64 -4.06c38.08,-0.38 76.78,-3.91 115.5,-3.91l107.16 4.27c143.17,15.63 147.93,17.55 284.86,49.45l1.99 -137.31c-0.01,-17.87 2.1,-30.22 2.04,-45.72 -0.27,-64.69 1.94,-123.93 1.94,-187.11 -18.25,4.25 -37.09,7.23 -56.55,11.11 -20.13,4.03 -39.11,8.39 -57.38,12.27 -37.52,7.98 -74.31,16.84 -110.53,26.78 -35.17,9.64 -71.01,19.73 -107.18,30.13l-419.84 133.36c-18.21,5.95 -34.91,10.27 -53.24,16.42l-52.96 16.69 -0 0z"/>
   <path class="fil0" d="M5763.42 4979.44l92.07 -21.34c91.55,-15.83 215.56,-29.15 309.98,-30.31 11.37,-0.14 13.95,-2.35 25.8,-2.22 11.25,0.13 13.78,2.19 25.79,2.2 53.88,0.07 104.39,5.48 158.11,13.02 51.99,7.3 156.61,22.73 206.11,22.73 1.56,-6.7 7.98,-15.72 11.54,-22.3 20.31,-37.47 15.75,-55.07 22.3,-83.17 -36.36,-17.45 -270.06,-89.55 -309.13,-100.8 -36.5,-10.51 -69.87,-20.75 -106.35,-30.96 -112.95,-31.61 -208.46,-58.36 -322.79,-87.13 -18.2,-4.59 -34.9,-9.22 -54.55,-13.1l-58.88 -10.78 0 364.16 0 -0.01z"/>
   <path class="fil0" d="M1262.15 7343.51c0,8.78 -4.64,15.86 0.73,18.8l715.65 -0.89c18.83,0.02 29.59,-2.07 47.76,-2l593.01 0.01c67.99,0 130.3,-2 197,-2l2.09 -75.52c3.63,-43.84 9.81,-35.93 -37.91,-35.93l-1518.33 -1.98 0 99.5 0.01 0z"/>
   <path class="fil0" d="M4394.33 9084.71c0,-48.37 -2.85,-44.93 25.82,-51.79 24.17,-5.78 37.31,-5.93 61.74,-5.93 16.91,0 17.19,7.76 26.32,11.49 7.76,3.17 17.39,3.17 29.1,10.69 28.72,18.45 37.41,58.6 17.07,88.11 -25.37,36.8 -52.93,30.5 -74.49,38.94 -12.04,4.71 -72.04,9.58 -77.22,-4.35 -4.15,-11.18 -8.34,-74.71 -8.34,-87.19l-0 0.01zm-111.44 -189.04l-27.86 0 1.99 614.89 143.26 -2.47 0.01 -196.52 69.65 0c77.01,0 159.76,-23.47 197.81,-80.79 70.25,-105.81 54.15,-311.62 -155.83,-331.32 -10.42,-0.98 -25.11,-3.54 -35.94,-3.85 -6.48,-0.19 -13.53,0.42 -19.98,0.07 -8.74,-0.47 -8.31,-1.78 -17.83,-2.06 -24.81,-0.74 -54.41,-0.65 -75.97,1.77 -21.3,2.39 -56.51,0.3 -79.31,0.3l-0 -0.01z"/>
   <path class="fil0" d="M6473.83 9629.96c18.31,4.89 87.3,58.61 110.12,70.96l41.11 20.57c0,-84.9 -0.1,-169.81 0,-254.72 0.09,-71.64 -13.61,-132.03 19.2,-199.69l139.35 -276.54c9.2,-18.39 35.16,-77.23 36.46,-92.89l-149.25 0c-34.48,51.49 -92.21,234.5 -125.37,256.7 -5.01,-9.46 -9.42,-21.69 -13.96,-31.81l-92.83 -209.64c-3.36,-6.95 -4.78,-9.28 -6.63,-17.24 -45.05,0 -90.34,0.47 -135.35,-0.04 -24.77,-0.28 -25.16,-9.05 3.17,58.6 15.31,36.56 36.48,80.46 55.22,113.92l46.46 90.85c15.37,30.73 30.29,59.27 45.13,90.19 11,22.9 23.05,52.93 23.22,78.26 0.09,13.64 2.06,18.41 2.01,31.83l-0.05 203.02c0,25.19 1.99,42.86 1.99,67.66l0.02 0z"/>
   <path class="fil0" d="M6203.2 7253.96l2.45 95.5c65.04,0.02 127.39,2.01 194.55,2.01 65.67,0 131.34,0 197,0 34.38,0 61.66,2 95.52,2l296.5 0c32.78,0 61.21,1.98 95.52,1.98l296.52 -0.02c17.15,-0.09 27.51,2.03 45.76,2l348.24 0 0 -85.57c0,-29.63 21.77,-23.87 -71.64,-23.87 -33.17,0 -66.33,0 -99.5,0 -33.93,0 -62.45,1.99 -97.51,1.99l-451.73 -0.01c-17.87,-0.09 -30.31,2 -49.73,2 -269.48,-0.07 -533.74,2 -801.96,2l0 -0z"/>
   <path class="fil0" d="M5490.8 6977.35c14.98,0 31.23,4.12 47.76,3.98 11.68,-0.1 14.54,1.49 23.87,2 118.09,6.38 253.96,-18.96 361.44,-54.48 20.18,-6.67 92.67,-36.39 113.54,-47.64l73.87 -43.54c18.84,-12.58 36.64,-26 54.15,-39.38l86 -75.19c5.18,-5.13 7.9,-6.17 12.99,-10.88 38.92,-35.99 157.78,-162.3 186.13,-186l36.73 -32.91c5.28,-5.25 7.59,-6.4 12.87,-11.01 24.14,-21.07 31.92,-23.63 50.03,-37.53 3.62,-2.78 1.37,-1.07 3.26,-2.71 -107.58,0 -222.73,32.97 -318.37,79.61 -62.04,30.26 -131.91,71.94 -185.94,112.56 -20.02,15.04 -38.84,28.11 -58.56,42.93l-113.72 85.28c-9.56,7.15 -18.41,13.89 -28.41,21.34 -46.72,34.85 -99.5,70.78 -149.83,100.91 -59.11,35.39 -69.3,39.47 -134.75,64.24l-55.72 19.89c-6.5,2.55 -12.17,4.03 -17.35,8.53l0 -0.02z"/>
   <path class="fil0" d="M3449.11 6983.32l39.8 -1.99c-6.78,-9.24 -48.49,-28.75 -62.34,-35.17 -23.65,-10.96 -44.66,-20.33 -67.67,-31.83 -11.09,-5.54 -21.15,-9.97 -31.81,-15.94 -96.6,-54.07 -124.83,-72.01 -210.3,-135.95 -37.67,-28.19 -73.41,-56.78 -112.28,-84.73 -10.07,-7.24 -18.04,-12.45 -27.88,-19.89l-58.82 -40.67c-5,-3.32 -9.2,-5.47 -14.77,-9.11 -5.96,-3.89 -9.72,-6.69 -15.48,-10.39 -5.22,-3.35 -9.36,-5.67 -14.91,-8.96l-46.3 -27.33c-59.41,-34.29 -138.82,-72.77 -204.33,-92.18 -51.54,-15.28 -106.11,-27.13 -171.86,-27.13 5.38,8.04 13.57,8.59 28.67,19.08 30.84,21.42 49.92,40.6 76.29,66.98 13.97,13.97 35.99,33.3 47.42,48.1l34.13 37.5c4.66,4.84 8.21,8.14 12.97,12.89 7.58,7.58 17.35,16.15 23.68,24.08 14.24,17.85 31.78,31.38 47.96,47.56l25.86 23.9c42.63,37.67 84.8,75.37 134.44,106.34 10.4,6.48 19.05,11.47 29.43,18.33 28.09,18.57 97.51,51.8 127.31,63.72 61.64,24.65 84.07,29.65 147.32,45.71 13.96,3.55 24.74,5.31 39.75,8.01l84.96 12.54c31.23,3.87 106,6.51 138.76,6.51l0 0z"/>
   <path class="fil0" d="M4431.65 4945.91l14.72 -0.56c5.37,7.63 2.35,151.85 2.35,159.46 0,53.93 -0.61,108.2 0.09,162.07l97.32 0c-2.94,-12.93 -2.98,-321.31 0.01,-334.63 10.64,-2.84 319.02,-2.99 332.9,0.05l-0.02 -95 -332.26 -0.02 0 -336.59 -101.08 0.07 0 338.8c-44.04,0 -320.31,4.09 -336.72,-2.08l-0.25 106.73 303.55 -0.01c5.75,-0.04 14.67,-1.24 19.39,1.7l0 0.01z"/>
   <path class="fil0" d="M5781.33 8989.2l0 45.77c11.36,0 13.76,1.99 25.87,1.99l129.35 0c0,157.74 1.99,309.52 1.99,467.64l24.6 9.22c36.36,11.83 76.91,12.66 116.69,12.66l1.99 -489.53 147.26 -2 -1.98 -137.3 -266.66 0c-61.26,0 -115.9,-2 -177.1,-2 0,33.46 -2,59.94 -2,93.53l-0.01 0z"/>
   <path class="fil0" d="M4109.77 4947.49l0.01 6.09 1.95 333.04 335.33 0 1 -13.31 0 -4.05c-4.94,-9.54 -0.65,-285.46 -1.69,-323.89l-14.72 0.55c-23.49,2.1 -54.73,0.41 -79.1,0.41 -27.2,0 -54.39,0 -81.59,0 -26.58,0 -146.3,-3.07 -161.18,1.17l-0 -0.01z"/>
   <polygon class="fil0" points="4547.54,5269.39 4545.56,5272.67 4881.22,5273.44 4881.93,4933.14 4547.02,4933.15 "/>
   <polygon class="fil0" points="4551.04,4826.22 4551.13,4833.46 4877.64,4833.46 4877.74,4826.22 4877.72,4501.96 4551.29,4501.96 "/>
   <polygon class="fil0" points="4115.97,4836.27 4442.64,4836.27 4442.63,4504.76 4116.73,4504.76 "/>
   <path class="fil0" d="M6065.89 5958.5c67.14,0 123.21,0.33 177.59,-11.45 32.87,-7.12 43.21,-9.44 75.39,-20.13 31.89,-10.59 101.71,-42.69 129.48,-59.57 5.69,-3.46 9.91,-5.4 15.56,-8.32 5.91,-3.06 8.63,-5.31 15.22,-8.65 26.96,-13.67 63.24,-37.17 89.03,-54.25 26.89,-17.81 25.41,-25.72 44.84,-26.8 9.18,-0.51 11.16,-1.86 22.02,-1.86 -27.38,-40.89 -102.45,-75.87 -149.06,-85.76 -49.07,-10.4 -98.36,-15.48 -148.19,-0.54 -9.58,2.87 -19.17,5.84 -28.29,9.52l-26.68 13.12c-22.43,11.65 -49.68,32.31 -67.22,50.2 -7.33,7.48 -10.44,13.78 -18.95,20.85 -34.55,28.69 -9.51,21.98 -46.32,71.09l-84.43 112.57 0 -0z"/>
   <path class="fil0" d="M2324.78 5745.57c2.06,7.7 14.7,11.38 28.26,19.5 19.96,11.98 11.59,7.61 33.41,16.34l27.2 8.63c9.16,2.92 3.88,-0.15 7.34,4.6 11.03,15.15 -8.39,6.23 27.2,22.54 9.71,4.45 18.28,14.45 26.43,21.33 22.86,19.34 35.07,25.25 59.49,40.01 24.54,14.83 76.23,35.02 104.24,43.01 81.77,23.35 169.08,38.96 255.56,38.96 -22.81,-47.55 -49.76,-82.56 -87.03,-119.93 -3.24,-3.25 -3.63,-3.59 -7.42,-6.51 -8.37,-6.42 -7.04,-2.04 -7.04,-22.81 -8.74,0.19 -6.2,1.34 -13.93,1.98 5.05,-21.11 -2.87,-7.42 -14.65,-31.12 -2.53,-5.1 -3.88,-8.43 -6.6,-13.31 -10.19,-18.34 -30.35,-44.97 -46.38,-57.1 -63.32,-47.89 -121.49,-47.54 -197.57,-32.33 -50.79,10.16 -107.97,35.19 -156.39,54.54 -6.81,2.72 -24.61,11.03 -32.12,11.66l0 0z"/>
   <path class="fil0" d="M2027.88 6059.98l0.17 -23.05c10.22,1.07 15.16,4.43 24.44,7.49 -2.32,-12.9 -2.15,-13.28 -12.26,-18.68 -9.91,6.91 -17.93,13.22 -26.03,21.73 -2.33,-0.89 -33.15,-16.15 -35.22,-17.77 2.7,-13.28 3.45,-6.85 -0.47,-35.32 -24.78,6.69 -44.29,17.74 -64.89,24.55 -11.64,3.84 -19.25,7.13 -29.91,11.87l-27.85 13.94c-17.89,9.01 -36.52,20.2 -51.87,31.71l-57.79 45.68c-3.83,3.55 -6.07,6.33 -9.88,10.01l-61.63 63.73c-20.55,24.3 -35.63,47.31 -52.73,72.64 -23.93,35.44 -53.99,98.5 -65.29,141.66 -11.11,42.45 -19.51,98.22 -7.17,146.5 16.15,63.11 50.43,109.57 106.04,142.7 10.16,6.05 44.99,26.27 56.36,27.22 -4.06,-7.68 -9.43,-13.3 -15.05,-20.77 -5.68,-7.55 -9.88,-12.5 -15.66,-20.17 -22.46,-29.8 -40.55,-55.59 -49.33,-93.94 -4.96,-21.67 -5.51,-40.48 -5.53,-68.11 -0.06,-106.33 42.04,-168.57 91.54,-232.83 5.65,-7.34 11.3,-11.22 17.05,-18.77 9.48,-12.41 59.4,-55.51 75.32,-67.95 14.58,-11.39 28.07,-20.17 42.64,-30.99 13.83,-10.26 28.37,-18.62 43.27,-28.37 24.73,-16.22 113.73,-74.74 131.75,-84.75l-0 0.01zm-49.37 -65.59c3.93,28.47 3.17,22.04 0.47,35.32 2.07,1.63 32.89,16.89 35.22,17.77 8.09,-8.52 16.12,-14.83 26.03,-21.74 10.12,5.4 9.94,5.78 12.26,18.68 -9.29,-3.06 -14.22,-6.41 -24.44,-7.49l-0.17 23.05c11.75,-2.5 14.68,-9.49 34.44,-15.71l274.4 -77.82c-8.87,-12.1 -74.52,-18.72 -87.66,-19.8 -27.9,-2.29 -81.59,-0.76 -106.53,2.7 -54.47,7.56 -87.76,12.48 -141.95,34.95 -11.08,4.96 -14.75,5.26 -22.08,10.08l0.01 0z"/>
   <path class="fil0" d="M7077.52 6113.23l19.78 -4.64 -0.2 19.06c5.02,9.35 85.85,70.06 104.22,84.41 6.72,5.26 10.94,8.75 17.9,13.94l33.19 28.5c29.14,29.3 49.88,50.33 72.3,86.91 4.76,7.77 7.11,12.26 11.45,20.39 4.1,7.69 7.73,12.64 11.25,20.59 12.82,28.94 24.97,58.5 30,95.36 6.03,44.25 4.2,73.22 -6.91,112.74 -10.24,36.41 -44.81,91.74 -73.4,115.65l-35.23 28.45c69.04,0 143.8,-83.37 175.03,-137.39 8.56,-14.8 16.79,-36.63 21.14,-56.47l6.93 -52.9c0,-18.42 -8.2,-67.19 -13.33,-84.3 -6.25,-20.85 -12.65,-39.79 -21.28,-58.32 -8.47,-18.17 -17.14,-33.83 -26.53,-51.08 -9.4,-17.29 -19.88,-31.87 -30.54,-47.07 -10.46,-14.89 -22.68,-29.41 -33.8,-43.81l-38.33 -41.28c-37.78,-37.78 -44.83,-42.79 -84.77,-72.44l-48.18 -29.43c-22.91,-11.91 -43.5,-24.98 -66.15,-30.94 -3.02,2.14 9.15,10.67 2.72,13.17l-9.81 2.24c-4.62,0.83 -10.12,1.8 -14.01,3.36 7.84,2.21 7.75,0.16 13.06,4.52 -3.41,7.67 -10.53,12.39 -22.63,14.34 -12.39,2.01 -19.79,1.29 -21.37,-9.43 -5.04,4.3 -11.41,14.23 -15.77,17.85 7.25,6.29 17.76,8.62 27.65,13.43 7.82,3.8 12.19,15.26 15.64,24.57l0 0zm0 0c-3.44,-9.3 -7.82,-20.76 -15.64,-24.57 -9.89,-4.81 -20.39,-7.13 -27.65,-13.43 4.36,-3.62 10.74,-13.56 15.77,-17.85 1.58,10.72 8.99,11.43 21.37,9.43 12.1,-1.95 19.22,-6.67 22.63,-14.34 -5.31,-4.36 -5.22,-2.31 -13.06,-4.52 3.89,-1.57 9.39,-2.54 14.01,-3.36l9.81 -2.24c6.44,-2.51 -5.74,-11.04 -2.72,-13.17 -14.24,-8.26 -19.18,-8.2 -33.59,-16.57l-50.61 -19.03c-65.67,-21.7 -122.57,-40.85 -193.95,-46.83 -12.5,-1.05 -20.27,-2.24 -33.64,-2.17 -44.87,0.22 -54.71,-1.05 -99.52,3.99 -9.6,1.07 -22.76,3.78 -31.83,3.98 18.13,24.74 174.61,53.26 217.78,70.77 42.93,17.4 175.77,87.46 200.84,89.94l0 -0zm0 0c1.87,2.68 -0.29,0.59 3.55,4.15 1.66,1.54 2.48,1.99 4.47,3.48 5.69,4.28 5.08,5.21 11.55,6.78l0.2 -19.05 -19.78 4.64 0 -0z"/>
   <path class="fil0" d="M3526.72 10010.04l57.7 0 0 -143.28c4.64,6.67 34.21,112.45 39.04,128.13 5.79,18.8 -4.94,15.15 50.52,15.15 6.47,0 6.94,-6.64 8.73,-13.16 1.76,-6.39 2.78,-11 4.4,-17.49 2.67,-10.71 23.86,-99.77 28.65,-106.66l0 107.46c-0.03,36.85 -12.72,29.85 67.66,29.85l0 -266.65 -99.5 0c-2.92,12.52 -27.86,123.6 -27.86,135.32l-25.47 -99.9c-2.56,-10.28 -7.55,-25.62 -8.36,-35.42l-95.51 0 0 266.66 -0.01 -0.01z"/>
   <path class="fil0" d="M1200.46 4686.92c0,80.73 57.38,140.4 137.61,141.9 34.2,0.65 75.48,-18.97 94.75,-36.9 26.08,-24.27 42.26,-51.56 42.26,-97.04 0,-34.43 -18.13,-72.34 -35.28,-90.08 -10.56,-10.93 -21,-21.18 -35.01,-28.67 -89.19,-47.73 -204.32,30.4 -204.32,110.8l-0.01 0z"/>
   <path class="fil0" d="M7488.7 4682.94c0,23.04 3.35,41.33 12.59,61.05 9.58,20.48 13.07,23.14 26.03,39.64l16.8 15.05c27.69,22.24 55.19,27.54 89.86,27.54 56.41,0 121.39,-58.19 121.39,-115.42 0,-45.98 -4.07,-73.85 -37.32,-111.93 -54.76,-62.7 -148,-36.71 -198.05,15.86 -15.48,16.26 -31.3,43.56 -31.3,68.2l0 0z"/>
   <path class="fil0" d="M4370.45 7066.9c0,39.88 18.83,69.64 39.27,90.08 37.12,37.12 95.06,49.49 146.41,27.95 16.36,-6.87 27.09,-17.49 38.71,-28.96 33.77,-33.36 55.43,-104.11 27.56,-149.97 -8.23,-13.55 -16.97,-25.4 -28.75,-34.93 -54.87,-44.36 -142.89,-51.52 -188.79,2.88 -17.93,21.26 -34.41,54.8 -34.41,92.95l0 -0.01z"/>
   <path class="fil0" d="M4378.41 1003.52c0,28.06 -0.2,37.63 12.57,63.05 8.17,16.24 13.82,21.96 25.72,33.98 38.43,38.85 104.28,47.06 153.61,23.24 20.99,-10.13 53.94,-42.11 64.81,-66.52 14.14,-31.76 10.15,-75.6 -6.06,-103.41 -28.52,-48.95 -72.55,-75.7 -131.26,-75.7 -22.95,0 -49.45,10.52 -65.98,23.57 -30.24,23.92 -53.43,60.69 -53.43,101.8l-0 0z"/>
   <path class="fil0" d="M4165.48 10010.04c84.52,0 71.7,6.87 71.64,-27.85l0 -107.46 55.72 135.32 87.56 0 0 -266.65c-83.19,0 -71.82,-6.27 -71.64,23.87l0.01 89.55c-4.37,-5.04 -9.6,-21.02 -12.22,-27.58 -6.44,-16.11 -32.8,-76.83 -33.55,-85.85l-97.51 0 0 266.65 -0 0z"/>
   <path class="fil0" d="M2392.44 1495.04c23.87,45.1 233.87,341.56 264.67,362.17 17.47,-11.7 33.78,-34.36 65.67,-41.79 -1.58,-6.79 -7.88,-18.51 -11.33,-26.48l-74.33 -124.67c-4.63,-7.75 -10.08,-16.47 -15.43,-24.38l-78.4 -120.59c-5.54,-8.32 -10.07,-15.72 -16.08,-23.72 -6.22,-8.28 -10.05,-15.15 -16.2,-23.59l-32.99 -46.61c-3.64,2.44 -6.89,4.28 -10.43,7.48 -16.77,15.14 -42.81,32.63 -53.76,43.75l-21.38 18.42 0.01 0.01z"/>
   <path class="fil0" d="M6282.79 1799.5c4.89,7.3 62.28,51.44 71.64,57.71 25.96,-38.77 103.19,-136.89 133.33,-177.11 25.69,-34.29 74.24,-101.03 100.11,-132.7 11.55,-14.15 23.29,-29.58 33.21,-44.4 -9.38,-6.28 -60.31,-62.36 -91.54,-69.65l-216.11 319.19c-10.11,15.16 -22.55,31.66 -30.65,46.96l0 -0.01z"/>
   <path class="fil0" d="M5383.33 9848.85l-5.97 0 0 -69.65c15.77,0 21.89,4.16 21.89,19.9l0 29.85c0,11.87 -4.06,19.9 -15.92,19.9l0 -0zm-81.59 161.19l75.62 0 0 -127.35c38.34,3.19 11.51,29.81 22.68,102.68 3.2,20.83 6.76,17.69 9.16,26.67l73.62 0c-3.42,-12.8 -5.83,-0.3 -10.12,-37.64 -4.03,-35.04 3.71,-75.66 -9.21,-90.29 -6.93,-7.85 -18.82,-17.04 -32.41,-17.35l0 -3.98c16.23,-0.36 39.8,-17.86 39.8,-33.83l0 -41.79c0,-30.65 -41.74,-43.78 -73.63,-43.78l-95.51 0 0 266.65 0 0.01z"/>
   <path class="fil0" d="M3968.48 9830.94c0,21.46 7.96,52.82 7.96,69.65l-17.91 0c0,-15.63 4.16,-38.09 5.76,-53.94l1.99 -11.93c1.16,-2.85 1.15,-2.27 2.19,-3.78l0 0zm-103.47 179.09l73.62 0c1.43,-17.21 11.94,-56.84 11.94,-71.64l31.84 0c2.74,11.74 4.65,23.86 6.83,36.96 7.37,44.46 -7.19,34.68 74.76,34.68 8.89,0 3.93,-7.19 -0.17,-27.69l-49.59 -238.96 -95.51 0c-0.23,10.3 -10.31,52.37 -13.1,66.49 -3.98,20.14 -40.39,189.45 -40.63,200.16l-0 0z"/>
   <path class="fil0" d="M4573.43 9832.93c0.28,0.43 0.49,0.67 0.57,1.43 1.15,12.43 9.02,49.5 9.39,66.23l-19.9 0c4.24,-8.83 6.64,-53.45 9.95,-67.66l-0.01 0zm-101.49 177.11l73.63 0c1.43,-17.21 11.94,-56.84 11.94,-71.64l31.84 0c2.71,11.63 4.4,24.24 6.81,36.97 8.37,44.24 -10.12,34.67 78.76,34.67 0,-15 -22.45,-115.26 -26.03,-133.16l-27.69 -133.49 -95.52 0c-0.25,11.2 -41.75,203.77 -47.26,231.33 -2.07,10.36 -6.25,25.48 -6.47,35.32l-0.01 -0.01z"/>
   <path class="fil0" d="M4780.38 9799.11l0 163.17c0,48.58 58.88,55.64 94.3,44.56 9.72,-3.04 16.87,-10.05 25.09,-10.73 9.07,17.15 1.79,13.93 43.78,13.93l0 -133.33 -81.59 0 0 41.79 13.93 0 0 47.76c0,9.25 -19.9,9.66 -19.9,0l0 -181.08c0,-9.91 19.9,-7.82 19.9,2l0 51.73 67.66 0 0 -51.73c0,-54.91 -103.6,-53.34 -140.69,-33.24 -15.02,8.14 -22.5,22.87 -22.5,45.18l0.01 -0z"/>
   <path class="fil0" d="M5590.29 9801.09c0,30.99 -2.25,34.59 17.41,54.23 28.77,28.75 78.11,52.78 78.11,83.07 0,29.22 5.68,39.19 -25.87,31.84l0 -67.66 -69.65 0c0,67.22 -9.85,97.02 52.81,108.37 28.92,5.25 70.92,2.1 93.13,-10.2 27.71,-15.35 25.2,-38.27 25.2,-68.33 0,-32.62 -15.7,-40.79 -36.33,-59.19 -5.67,-5.06 -11.68,-9.7 -17.68,-14.17l-28.4 -23.34c-8.65,-8.59 -14.31,-15.58 -15.13,-28.71 -0.77,-12.41 -2.41,-16.61 2.01,-25.83 25.06,-5.84 19.9,-1.92 19.9,53.73l69.65 0c0,-65.73 4.93,-93.53 -85.57,-93.53 -43.09,0 -79.6,12.42 -79.6,59.7l0 -0z"/>
   <path class="fil0" d="M2551.64 9974.22l0 43.78c6,-2.88 20.85,-5.93 29.1,-8.71 10.88,-3.66 18.94,-6.32 29.84,-9.95l118.91 -40.29c49.17,-16.39 132.89,-43.87 180.75,-56.05 21.27,-5.41 41.44,-11.71 62.84,-16.76l66.09 -13.51 0 -77.61c-8.68,0.19 -23.14,5.75 -31,8.8 -60.6,23.47 -157.78,49.79 -221.47,71.05 -41.85,13.97 -82.42,27.87 -123.08,44.08l-85.46 39.9c-9.4,5.06 -17.54,10.52 -26.52,15.26l0 0.01z"/>
   <path class="fil0" d="M7013.11 6694.78c0,30.98 8.07,54.7 24.33,71.18 57.74,58.56 168.69,21.04 168.69,-59.24 0,-143.17 -193.02,-139.17 -193.02,-11.94l0 0.01z"/>
   <path class="fil0" d="M1799.43 6690.8c0,29.96 6.63,57.85 29.8,75.67 40.44,31.09 78.28,35.35 122.11,8.59 19.27,-11.76 41.11,-48.85 41.11,-74.31 0,-31.77 -8.38,-52.42 -32.25,-73.22 -28.2,-24.57 -73.58,-38.04 -107.78,-21.04 -31.39,15.6 -53,53.91 -53,84.31l0.01 0z"/>
   <path class="fil0" d="M6826.06 10023.97l0 -51.74c-7.35,-3.53 -21.22,-7.59 -29.85,-9.95 -10.44,-2.85 -20.44,-6.47 -30.1,-9.69l-242.78 -79.6c-20.37,-6.79 -40.92,-14.54 -61.44,-20.15l-121.39 -39.8 -0.2 63.88c1.11,10.07 2.44,7.23 13.18,8.71 87.91,12.05 247.19,70.85 335.51,100.29 21.48,7.16 114.41,36.17 137.06,38.06l0.01 -0.01z"/>
   <path class="fil0" d="M7003.16 2330.81c0,27.31 1.52,47.87 21.27,72.25l4.78 5.17c28.11,26.65 40.06,28.04 75.43,28.04 39.54,0 83.57,-35.98 83.57,-79.6 0,-29.86 -3.47,-55.53 -25.32,-78.15 -19.17,-19.84 -34.94,-27.31 -66.22,-27.31 -44.76,0 -93.53,39.95 -93.53,79.59l0.02 0.01z"/>
   <path class="fil0" d="M1908.88 2446.24c24.27,0 53.13,-13.33 65.51,-26.03 0.16,-0.17 2.45,-2.79 2.8,-3.17 6.03,-6.69 9.91,-10.61 13.92,-19.91 13.54,-31.34 7.39,-62.58 -7.87,-90.92 -45.27,-84.07 -180.22,-40.12 -172.11,48.6 4.52,49.46 46.45,91.41 97.77,91.41l-0.01 0.01z"/>
   <polygon class="fil0" points="5041.06,10010.04 5186.33,10010.04 5186.33,9974.22 5116.69,9974.22 5116.69,9882.69 5178.37,9882.69 5178.37,9848.85 5116.69,9848.85 5116.69,9779.21 5184.34,9779.21 5184.34,9743.39 5041.06,9743.39 "/>
   <path class="fil0" d="M5600.24 1238.33c0,-49.44 -38.07,-97.51 -75.62,-97.51 -35.48,0 -44.65,4.11 -73.3,24.21 -6.82,4.79 -19.48,20.43 -23.9,27.84 -8.86,14.88 -11.88,33.8 -7.43,54.56 6.62,30.92 35.56,61.86 65.63,69.68 27.78,7.22 57.8,2.83 79.9,-12 7.52,-5.04 12.5,-8.7 17.64,-16.19 9.48,-13.85 17.06,-28.28 17.06,-50.6l0 0.01z"/>
   <path class="fil0" d="M3399.35 1222.41c0,77.83 89.97,127.77 152.66,75.05 34.89,-29.34 36.31,-83.31 13.93,-120.24 -7.59,-12.52 -18.81,-22.75 -31.88,-29.8 -54.05,-29.12 -134.7,23.01 -134.7,75l0 -0z"/>
   <path class="fil0" d="M4116.73 4504.76l325.9 0 0.01 331.5 -326.68 0 0.76 -331.5 0 0zm434.56 -2.8l326.43 0 0.02 324.26 -0.1 7.24 -326.52 0 -0.09 -7.24 0.25 -324.26zm-444.2 332.21l0.69 111.88 2 1.43c14.89,-4.24 134.61,-1.17 161.18,-1.17 27.2,0 54.39,0 81.59,0 24.37,0 55.61,1.68 79.1,-0.41 -4.72,-2.93 -13.64,-1.73 -19.39,-1.7l-303.55 0.01 0.25 -106.73c16.41,6.18 292.68,2.08 336.72,2.08l0 -338.8 101.08 -0.07 0 336.59 332.26 0.01 0.01 95.01c-13.87,-3.04 -322.26,-2.88 -332.9,-0.05 -2.99,13.33 -2.94,321.7 -0.01,334.64l-97.32 0c-0.69,-53.87 -0.09,-108.15 -0.09,-162.07 0,-7.61 3.02,-151.83 -2.35,-159.46 1.04,38.44 -3.26,314.35 1.69,323.89l99.49 0.14 -0.53 -336.24 334.91 -0.01 -0.71 340.31c5.35,-6.33 2.43,-84.52 2.43,-93.02l-0.13 -242.57c-1.7,-11.74 -0.72,1.73 -2.61,-10.16l-0.3 -427.84c-8.06,-2.77 -2.54,-1.07 -5.91,-3.98l-441.97 0.58c-18.91,4.74 -0.41,3.41 -32.41,3.4l-290.53 0 -2.68 334.32 -0.01 -0.01z"/>
   <path class="fil0" d="M5900.72 1459.22c0,20.64 16.36,43.38 26.57,58.99 9.02,13.78 20.06,9.72 41.03,8.76 25.3,-1.16 38.35,-4.05 54.65,-15.13 40.4,-27.46 29.95,-96.56 -14.75,-118.33 -53.18,-25.91 -107.51,13.02 -107.51,65.72l0 -0z"/>
   <path class="fil0" d="M7405.13 2965.61c0,-31.78 -23.86,-73.63 -65.67,-73.63 -28.43,0 -56.76,25.23 -68.1,43.33 -16.87,26.93 -13.09,57.75 8.88,79.58 53.15,52.76 124.89,8.74 124.89,-49.28l-0 -0.01z"/>
   <path class="fil0" d="M2963.56 1401.51c-0.46,20.7 -20.02,73 13.08,106.32 29.2,29.39 116.26,44.29 116.26,-64.53 0,-17.05 0.57,-19.2 -26.99,-40.67 -6.03,-4.69 -9.11,-8 -16.1,-11.76 -34.24,-18.42 -62.27,5.06 -86.26,10.64l0.01 0z"/>
   <path class="fil0" d="M1614.37 2947.7c0,38.05 29.8,71.64 65.67,71.64l15.92 0c33.76,0 63.68,-28.03 63.68,-61.69 0,-25.91 -6.21,-41.81 -30.21,-57.36 -17.64,-11.42 -70.87,-21.7 -84.86,-7.96 -2.67,2.62 -3.81,4.97 -6.07,7.86 -2.44,3.13 -3.85,4.57 -6.24,7.69 -6.89,8.96 -17.89,24.29 -17.89,39.82l-0 0.01z"/>
   <path class="fil0" d="M6338.52 5520.7l143.29 -9.93c12.15,-0.58 19.19,-1.87 29.82,-2.02 18.91,-0.26 38.62,-3.97 57.72,-3.97 -11.77,-16.07 -42.06,-27.29 -65.06,-30.48 -12.55,-1.74 -74.4,1.4 -88.16,4.61l-21.89 -41.79c-5.75,3.86 -10.6,12.23 -15.1,18.73 -8.65,12.49 -20.06,23.67 -29.33,40.31 -4.79,8.58 -7.06,16.55 -11.29,24.53l-0 0.01z"/>
   <path class="fil0" d="M2398.41 5508.77c56.83,0 112.23,5.97 169.15,5.97 -6.76,-12.78 -15.31,-22.6 -27.7,-30.01 -44.42,-26.59 -116.23,-13.61 -141.45,24.04l0 0z"/>
  </g>
 </g>
</svg>
