<?xml version="1.0" encoding="UTF-8"?>
<!DOCTYPE svg PUBLIC "-//W3C//DTD SVG 1.1//EN" "http://www.w3.org/Graphics/SVG/1.1/DTD/svg11.dtd">
<!-- Creator: CorelDRAW -->
<svg xmlns="http://www.w3.org/2000/svg" xml:space="preserve" width="8.5in" height="11in" version="1.1" style="shape-rendering:geometricPrecision; text-rendering:geometricPrecision; image-rendering:optimizeQuality; fill-rule:evenodd; clip-rule:evenodd"
viewBox="0 0 8500 11000"
 xmlns:xlink="http://www.w3.org/1999/xlink"
 xmlns:xodm="http://www.corel.com/coreldraw/odm/2003">
 <defs>
  <style type="text/css">
   <![CDATA[
    .fil0 {fill:#0D4157}
   ]]>
  </style>
 </defs>
 <g id="Layer_x0020_1">
  <metadata id="CorelCorpID_0Corel-Layer"/>
  <path class="fil0" d="M870.15 5417.43c-21.03,0 -43.12,-8.31 -56.26,-21.12 -22.06,-21.51 -22.85,-10.2 -42.15,-38.84 -11.3,-16.76 -7.56,-19.46 -10.2,-30.42 -1.93,-7.98 -6.41,-14.33 -8.92,-24.77 -2.56,-10.67 -2.1,-18.61 -2.05,-29.78l0.18 -1774.38c0,-585.82 4.62,-1189.39 -0.07,-1774.3 -0.19,-24.34 5.17,-67.27 17.55,-84.73l13.53 -13.06c21.28,-16.07 17.64,-16 40.74,-27.82 42.24,-21.6 24.44,0.96 34.87,-23.67 577.22,0 1154.43,0 1731.65,0l1083.34 -0.03c34.48,-0.22 62.52,2.93 88.19,22.22 51.97,39.06 16.48,2.87 38.63,44.37 8.57,16.06 -0.52,-5.09 11.19,13.8 24.54,39.57 15.54,143.63 15.54,205.39l0 3237.29c0,43.69 6.65,222.13 -18.09,258.82 -10.91,16.18 -24.13,31.54 -42.13,40.47 -8.52,4.23 -12.67,4.65 -18.76,7.32 -9.09,3.99 -10.08,6.5 -15.64,8.83 -12.8,5.35 -10.54,4.42 -24.78,4.42l-2836.36 0zm5962.8 -2048.55c-85.31,5.57 -186.04,0.91 -273.02,0.91l-682.43 0c-19.41,0 -117.28,5.44 -126.19,-6.23 -12.5,-16.37 -5.15,-483.46 -5.15,-543.61 0,-71.36 -7.73,-508.68 5.11,-539.81 15.89,-0.43 6.86,-1.31 19.34,11.13l758.85 759.57c0.61,0.61 1.48,1.53 2.1,2.13 0.63,0.61 1.57,1.46 2.21,2.05 0.65,0.59 1.64,1.39 2.31,1.97 0.93,0.83 3.8,3.04 4.74,3.87 0.68,0.59 1.67,1.37 2.32,1.98 0.66,0.6 1.59,1.45 2.24,2.07 32.29,31 55,58.94 90.3,89.43l138.63 141.96c27.78,26.28 56.35,48.67 58.63,72.57zm-6337.18 -1653.62l0 3565.7c0,25.49 1.87,51.64 2.91,77.14l9.24 25.71c7.08,17.84 -0.13,21.59 7.73,35.37l13.15 24.67c3.16,7.48 9.79,22.66 13.76,30 18.75,34.73 46.36,70.46 75.27,97.55 0.59,0.56 1.49,1.45 2.1,1.99l58.63 43.44c111.97,73.95 253.57,55.25 387.8,55.25 54.02,0 286.56,-6.54 319.89,2.92 11.93,8.37 7.92,36.84 7.8,49.54l-0.07 3275.69 5888.22 0.49 -0.08 -1565.83c0,-44.13 9.69,-194.34 -7.78,-221.8 -23.04,-4.48 -230.78,-3.24 -237.23,3.02 -16.87,11.43 -9.03,59.06 -9.03,82.29 0.01,473.5 4.22,947.19 0.36,1420.66 -0.23,28.09 2.47,30.7 -24.93,30.7l-5331.5 0c-29.78,0 -24.57,-4.99 -24.57,-35.31l0 -3006.96c0,-48.49 14.94,-35.49 62.96,-35.4l1804.17 0c70.93,0 262.13,10.07 326.55,-26.89l70.61 -36.31c3.69,-2.28 1.94,-0.55 7.2,-4.96l4.16 -4.09c0.88,-0.85 5.38,-5.79 6.33,-6.65 11.41,-10.31 3.75,-4.22 16.38,-10.31l14.64 -9.43c31.21,-34.38 64.12,-83.13 86.19,-126.75 46.82,-92.57 34.57,-231.98 34.57,-344.88l0 -2938.72c-0.01,-34.74 -11.59,-78.01 21.97,-78.01 182.07,0 1302.31,-6.72 1386.5,3.75 9.12,38.44 2.54,666.11 2.54,760.95 0,73.32 -5.52,753.26 2.85,765.12 9.48,13.44 177.72,6.87 190.5,6.87l1155.87 0c58.84,0 132.02,-6.41 183.43,4.29l2.24 1787.62c62.37,6.06 191.2,6.81 251.14,0.64 8.36,-36.57 2.49,-924.28 2.49,-986.4 0,-329.84 0,-659.67 0,-989.51 -22.85,-15.3 -30.94,-30.58 -49.92,-48.68 -17.83,-17 -35.12,-32.92 -52.64,-49.55l-128.78 -131.28c-44.93,-46.48 -98.33,-91.39 -141.76,-139.84 -55.43,-61.83 -170.6,-171.01 -229.78,-230.55l-402.22 -403.35c-18.46,-19.42 -80.19,-73.05 -94.78,-92.75l-106.32 -108.3c-10.06,-10.5 -12.57,-14.61 -22.32,-24.07l-348.17 -347.01c-0.63,-0.63 -1.52,-1.53 -2.16,-2.16l-29.12 -30.44 -1590.9 0c-0.03,-51.74 5.92,-110.68 -1.96,-161.75 -3.17,-20.46 -8.79,-31.46 -10.68,-48.06 -3.56,-31.33 -7.65,-46.25 -21.31,-71.11l-14.32 -32.56c-14.67,-31.37 -38.79,-58.22 -62.91,-82.67 -28.35,-28.74 -64.98,-53.89 -98.79,-72.91 -22.5,-12.65 -56.84,-24.84 -80.85,-29.4 -43.46,-8.26 -52.1,-12.43 -101.59,-12.43l-2802.24 0c-31.4,0 -61.82,0.78 -87.81,8.71 -35,10.68 -75.04,20.47 -106.3,39.03 -53.61,31.82 -105.56,75.66 -137.95,129.9l-4.61 8.29c-4.84,8.1 -1.43,1.81 -5,7.76l-16.73 34.35c-26.54,61.67 -33.05,93.11 -33.05,167.67z"/>
  <path class="fil0" d="M5378.49 8087.44c0.47,-1.59 1.21,-3.25 1.73,-4.69l8.29 -25.77c7.7,-24.87 20.08,-44.04 29.13,-66.3 18.46,-45.37 42.31,-86.15 61.41,-129.28 6.99,-15.79 -1.5,2.44 3.08,-6.11 0.47,-0.88 1.23,-1.85 1.71,-2.7 0.44,-0.81 1.22,-1.75 1.65,-2.54l33.58 -77.37c5.84,-8.67 1.99,-4.45 9.17,-9.95l149.98 -152.34c8.62,-8.24 8.75,-9.36 16.58,-17.2 3.16,-3.15 4.59,-4.18 8.97,-8.28 0.63,-0.59 1.57,-1.42 2.19,-2.01 0.61,-0.58 1.5,-1.47 2.11,-2.06l20.17 -17.89c6.61,-6.64 -0.26,0.29 7.38,-9.28l196.35 -196.7c0.84,-0.81 3.27,-2.94 4.11,-3.77l59.92 -60.54c1.95,-2.02 6.4,-7.05 8.09,-8.8l75.07 -73.88c0.61,-0.58 1.52,-1.46 2.11,-2.06 0.61,-0.6 1.47,-1.52 2.06,-2.14 0.6,-0.63 1.44,-1.57 2.03,-2.21 1.22,-1.32 5.53,-6.41 5.99,-6.91l8.61 -8.59c33.44,-30.63 62.25,-66.15 96.94,-95.48l64.87 -66.64c0.6,-0.65 1.49,-1.56 2.09,-2.2l19.21 -18.98c4.4,-3.94 11.08,-9.74 15.9,-14.83l100.57 -102.94c0.61,-0.67 1.49,-1.59 2.12,-2.25 22.88,-23.78 52.7,-46.17 72.48,-68.66l333.49 -336.01c2.75,-3.17 6.26,-6.53 8.76,-8.88l110.76 -110.65c3.72,-3.96 4.96,-5.6 8.21,-8.92 6.41,-6.58 7.09,-6.52 14.83,-14.74l190.3 -189.38c9.86,-8.87 6.37,-13.35 24.15,-10.16 14.87,2.68 24.42,20.46 34.97,30.46l137.96 141.07c-4.22,7.13 -5.57,7.76 -11.37,15.51 -23.48,31.45 -292.8,293.48 -327.63,329.25l-142.68 143.54c-11.4,9.93 -18.04,17.86 -28.5,27.51l-50.94 50.3c-0.9,0.9 -3.57,3.51 -4.47,4.41l-10.65 10.86c-1.41,1.54 -5.07,5.84 -5.73,6.55l-4.06 4.32c-0.61,0.62 -1.52,1.5 -2.16,2.11 -0.64,0.62 -1.58,1.46 -2.24,2.07l-49.48 48.91c-0.56,0.59 -1.33,1.6 -1.87,2.2 -0.57,0.63 -1.37,1.61 -1.94,2.25 -0.58,0.64 -1.43,1.6 -2.02,2.24l-377.59 377.57c-36.39,36.49 -78.85,77.31 -113.05,112.71l-485.31 486.86c-15.73,18.74 -15.12,10.02 -36.2,20.94 -62.67,32.44 -129.35,67.8 -196.92,86.49 -21.29,5.89 -1.21,12.11 -44.57,12.11 -12.55,22.78 -29.5,29.86 -59.69,29.86zm2111 -2165.98c3.87,4.72 3.42,4.2 8.06,7.98l81.36 76.32c15.08,11.84 20,15.83 30.11,34.4 -9.32,13.52 -12.27,15.85 -22.3,24.93 -0.63,0.57 -1.57,1.41 -2.2,1.98l-8.71 8.37c-49.98,49.25 -47.24,61.61 -80.72,27.64 -4.43,-4.5 -6.16,-6.14 -10.57,-10.54l-61.9 -62.08c-0.62,-0.61 -1.5,-1.51 -2.13,-2.11 -0.62,-0.61 -1.52,-1.49 -2.15,-2.09l-23.68 -23.46c-0.59,-0.64 -1.45,-1.57 -2.05,-2.21l-8.42 -8.53c-4.36,-4.37 -5.15,-5.28 -10.58,-10.53 -18.41,-17.8 -21.71,-18.19 -29.81,-36.58l48.5 -49.23c33.41,-30.69 15.23,-29.04 37.42,-29.68 24.44,-0.7 46,38.63 59.77,55.41zm307.34 -68.99c-21.82,-4.05 -17.16,-3.67 -29.75,-16.92l-98.92 -101.41c-41.69,-38.23 -59.63,-45.31 -43.63,-70.02l79.04 -79.76c0.61,-0.59 1.53,-1.46 2.16,-2.05 9.72,-8.93 12.33,-10.89 23.78,-15.84 50.81,-21.98 78.43,-25.39 125.12,1.11l18.38 11.84c39.56,29.23 56.09,75.45 44.71,123.02 -14.49,60.57 -33.8,62.21 -70.61,101.95l-14.71 15.74c-12.84,12.21 -23.02,26.02 -35.57,32.34zm371.85 -106.61c0.7,-1.23 3.56,-4.56 4.11,-5.58 10.25,-19.25 3.59,-66.74 3.7,-88.34 0.1,-21.02 3.14,-25.71 -4.84,-43.35 -7.6,-16.83 -5.45,-44.99 -13.22,-58.78 -0.61,-1.09 -2.79,-4.31 -3.42,-5.49 -0.52,-0.97 -1.08,-2.1 -1.57,-3.1 -17.66,-35.54 -33.59,-67.48 -59.84,-100.47 -26.77,-33.63 -35.28,-38.12 -65.14,-62.36 -28.45,-23.09 -3.04,-8.13 -41.99,-29.78l-52.28 -25.11c-22.96,-11.38 -37.12,-10.48 -57.62,-18.2 -13.72,-5.16 -19.25,-7.41 -36.84,-7.52 -34.13,-0.2 -68.89,-0.27 -103,-0.07 -32,0.18 -11.4,0.78 -35.94,10.78 -24.27,9.87 -50.7,12.61 -75.26,24.26l-5.49 2.97c-0.85,0.45 -1.91,1.1 -2.78,1.55 -6.56,3.43 -2.74,1.46 -8.71,4.36 -3.67,1.78 -9.76,4.76 -15.44,8.86 -0.76,0.55 -1.72,1.39 -2.49,1.95l-74.78 60.28c-0.57,0.72 -1.28,1.79 -1.85,2.53l-106.82 106.63c-0.59,0.74 -1.35,1.74 -1.96,2.46l-99.89 96.67c-0.62,0.63 -1.51,1.52 -2.13,2.14l-178.01 179.3c-0.52,0.69 -1.22,1.78 -1.76,2.49 -36.95,49.5 -90.36,88.13 -134.68,135.12 -18.1,19.2 -30.94,29.25 -49.14,48.63l-39.47 41.75c-0.57,0.59 -1.52,1.44 -2.11,2.02l-90.52 89.2c-0.71,0.69 -1.61,1.59 -2.3,2.28l-15.91 17.11c-0.61,0.61 -1.54,1.49 -2.18,2.1l-23.52 23.55c-35.37,30.91 -67.67,68.44 -100.24,100.57 -46.39,45.76 -109.85,101.59 -154.24,153.37 -0.8,0.94 -5.1,5.63 -5.93,6.49l-189.02 186.28c-10.74,9.92 -13.71,15.44 -24.07,26.88l-102.76 98.74c-9.81,8.75 -13.93,13.39 -23.68,25.55l-373.72 373.9c-19.39,17.15 -35.76,32.88 -49.05,48.86 -15.2,18.26 -32.52,34.68 -50.22,52.09l-299.13 298.04c-8.64,9.74 -15.62,16.76 -25.13,26.06l-24.92 22.43c-0.88,0.83 -3.41,3.26 -4.28,4.08l-8.15 7.92c-32.74,36.12 -74.24,136.1 -94.68,183.78 -8.39,19.56 -20.38,46.3 -30.9,67.19l-37.93 92.18c-10.97,32.91 -33.57,66.2 -41.55,79.83 -21.89,37.42 -37.93,79.44 -52.57,117.38 -11.73,30.42 -31.49,58.26 -42.26,87.57 -24.32,66.19 -73.83,123.44 -36.28,194.9 25.98,49.44 94.72,88.99 139.24,64.33 0.76,-0.43 1.64,-1.3 2.37,-1.69l30.19 -6.33c30.96,-8.77 73.54,-32.1 104.13,-46.49 39.74,-18.69 80.33,-41.26 121.6,-56.71 22.56,-8.45 5.13,-1.63 14.6,-7.79l274.79 -126.06c50.19,-19.8 91.12,-42.98 135.43,-62.78 50.63,-22.63 71.78,-53.43 109.03,-89.95l128.57 -127.35c0.65,-0.66 1.6,-1.52 2.25,-2.17l198.27 -201.62c17.53,-11.17 103.89,-98.22 122.43,-117.38 9.73,-10.05 17.03,-25.27 28.97,-34.35l16.99 -13.16c28.65,-23.67 51.79,-51.78 79.59,-78.2l297.31 -300c8.05,-8.48 13.11,-12.51 24.56,-23.06 69.56,-64.13 133.76,-135.7 199.46,-200.86l114.71 -114.93c0.61,-0.54 1.63,-1.28 2.27,-1.82l9.5 -8.37c5.07,-4.82 8.11,-7.89 13.11,-12.61l112.08 -113.94c4.68,-4.42 8.13,-6.99 13.33,-12l287.58 -288.17c23.88,-19.37 51.18,-50.58 72.09,-73.54 12.77,-14.02 14.95,-12.83 27.07,-23.91l6.18 -6.15c2.91,-3.1 3.37,-3.78 5.7,-6.56l359.32 -361.96c41.35,-39.03 83.97,-89.69 103.37,-143.81l13.8 -35.94c2.48,-8.63 1.11,-31.11 5.92,-39.59z"/>
  <path class="fil0" d="M4463.8 7268.55c-4.7,42.19 -6.8,133.3 -25.44,167.84l-3.09 4.94c-0.38,0.76 -1.01,1.83 -1.35,2.62 -5.27,12.41 -4.62,26.91 -6.8,42.8 -3.57,26.03 -7.89,27.27 -13.94,51.13l-54.68 121.38c-3.93,6.86 -0.76,-1.01 -4.09,11.19 -7.56,27.67 -17.35,40.84 -32.02,64.19l-86.36 118.18c-30.72,48.59 -11.84,10.72 -36.63,48.45 -6.96,10.59 -19.55,22.99 -31.76,33.4l-66.05 60.85c-14.03,11.03 -22.73,17.41 -36.08,28.38 -13.81,11.34 -23.85,17.81 -37.39,26.98l-66.82 43.66c-32.26,25.48 26.94,-12.41 -9.52,6.83l-130.06 62.59c-9.04,5.27 -1.69,0.66 -8.24,5.53 -0.68,0.51 -1.54,1.44 -2.19,1.93l-54.02 20.22c-12.88,4.19 -16.46,1.46 -29.7,3.32 -12.31,1.73 -33.87,9.33 -51.63,13.69 -29.42,7.22 -8.9,8.85 -50.45,12.33 -45.01,3.76 -75.14,16.11 -110.78,15.82 -42.61,-0.34 -85.52,-0.22 -128.14,-0.05 -45.15,0.17 -119.98,-11.51 -163.29,-23.48 -6.83,-1.89 -20.18,-4.14 -23.57,-5.04 -11.07,-2.97 -18.12,-7.01 -24.85,-8.88 -36.02,-9.99 -65.39,-14.87 -99.25,-30.04l-108.89 -48.66c-19.4,-8.03 -8.75,-3.04 -22.55,-12.26l-40.93 -23.55c-89.34,-52.7 -191.07,-140.33 -254.37,-223.8 -24.29,-32.03 -53.69,-63.55 -74,-101.54 -12.03,-22.51 -3.55,-22.67 -26.03,-54.67l-63.54 -128.84c-6.81,-12.78 -1.87,3.8 -5.8,-12.69 -2.97,-12.45 -1.05,-28.68 -7.26,-37.7 -15.3,-22.26 -6.98,13.87 -11.14,-26.46 -4.31,-41.75 -4.39,-17.33 -15.35,-45.87 -28.99,-75.44 -34.12,-214.48 -30.05,-295.64 1.51,-30.08 9.45,-127.51 23.48,-153.74 4.5,-8.42 2.39,0.52 4.41,-10.04 4.99,-26.21 -1.69,-29.57 8.83,-56.6l70.98 -184.46c13.26,-40.84 47.56,-85.35 73.62,-119.69l78.12 -101.73c0.64,-0.65 1.59,-1.52 2.23,-2.16 0.63,-0.62 1.6,-1.48 2.2,-2.09 0.58,-0.59 1.56,-1.42 2.11,-2.03 7.07,-7.68 1.37,-0.98 5.26,-6.56l90.62 -89.67c61.04,-50.04 131.24,-97.39 203.43,-134.04l39.93 -19.89c39.99,-19.76 87.9,-40.34 132.91,-48.23 43.07,-7.54 22.19,-5.93 49.06,-13.79 78.81,-23.06 204.85,-33.67 294.85,-26.61 181.37,14.22 356.3,68.06 505.26,166.44 6.19,4.09 14.75,10.33 20.71,14.91l201.81 181.49 66.76 90.25c0.56,0.76 1.28,1.81 1.84,2.57l59.58 99.58c16.64,37.2 46.35,93.76 57.98,134.74l15 49.71c8.36,31.31 14.17,67.47 23.29,103.59 13.39,53.04 20.28,181 13.82,238.96zm-2211.75 439.31c18.03,3.55 17.74,19.66 24.76,36.44l8.93 28.65c0.39,0.58 1.36,1.35 1.8,1.93 0.47,0.63 1.53,1.35 2.03,2 10.17,12.98 8.41,18.07 18.15,34.17l121.46 185.48c0.88,1.37 6.38,10.21 6.44,10.29 0.5,0.67 1.31,1.63 1.84,2.27 0.53,0.65 1.42,1.56 1.97,2.2 67.05,77.05 177.79,191.85 266.92,245.91l20.42 16.93c17.49,12.88 34.27,19.83 49.93,30.25 30.2,20.07 65.3,39.41 101.83,56.77 80.31,38.15 211.93,90.6 298.94,103.09 14.44,2.07 28.64,1.5 41.57,3.28 10.75,1.48 16.24,6.56 26.82,9.53l144.96 14.65c196.17,7.61 385.11,-34.32 543.68,-100.44 161.44,-67.31 230.42,-122.65 360.01,-226.34 5.28,-4.22 5.91,-4.92 9.53,-8.29 7.58,-7.04 12.94,-12.31 20.11,-18.76l124.37 -135.98c0.63,-0.53 1.72,-1.22 2.32,-1.77 22.95,-21.16 -8.47,18.21 7.06,-8.85l32.82 -48.63c5.23,-7.57 11.19,-15.82 15.85,-23.25 13.44,-21.4 33.33,-43.54 42.38,-66.52l18.13 -31.06c0.56,-0.65 1.52,-1.49 2.06,-2.11 9.95,-11.62 15.01,-33.03 24.21,-51.91 6.38,-13.06 7.46,-15.21 13.04,-29.04 5.67,-14.02 8.86,-15.78 12.88,-25.35 9.89,-23.52 57.65,-152.22 60.95,-176.18 6.09,-44.25 19.77,-90.75 27.57,-136.18 6.6,-38.41 10.52,-105.28 12.5,-145.31 2.81,-56.8 -2.25,-100.53 -5.44,-154.78 -8.48,-144.65 -37.34,-192.78 -48.83,-275.34 -2.35,-16.9 -7.39,-12.55 -13.02,-27.72l-32.34 -82.06c-15.59,-47.61 -49.26,-115.5 -77.95,-155.93 -32.22,-45.39 -57.04,-95.18 -93.13,-136.88l-134.43 -147.27c-4.37,-4.42 -6,-6.28 -10.56,-10.68 -7.31,-7.04 -11.38,-10.29 -20.74,-17.52 -28.38,-21.91 -53.05,-48.56 -82.02,-66.53l-34.61 -24.95c-0.74,-0.49 -1.79,-1.13 -2.54,-1.61l-30.98 -20.92c-0.73,-0.58 -1.65,-1.43 -2.37,-2l-40.47 -26.43c-1.02,-0.5 -2.11,-1.1 -3.09,-1.64l-7.64 -5.43c-0.7,-0.44 -1.66,-1.19 -2.37,-1.6 -0.7,-0.4 -1.75,-1.01 -2.48,-1.38 -2.02,-1.03 -10.46,-3.83 -15.17,-5.87l-36.4 -20c-16.8,-9.95 -73.97,-27.85 -98.01,-43.18 -13.05,-8.32 -14.61,-5.38 -30.19,-12 -14.8,-6.29 -34.38,-8.8 -47.65,-17.77l-21.81 -7.9c-35.81,-3.55 -70.76,-24.61 -91.71,-28.29 -12.87,-2.26 -22.59,0.13 -36.36,-2.72 -27.6,-5.71 -32.92,-15.02 -63.9,-15.35 -51.65,-0.56 -91.3,-13.07 -145.05,-12.8 -60.52,0.31 -142.9,-8.3 -194.11,8.52 -16.86,5.53 -50.13,5.44 -68.58,9.14 -11.67,2.34 -10.67,4.85 -30.85,7.83 -15.22,2.24 -21.83,2.32 -38.45,4.5 -13.67,1.8 -10.69,7.81 -64.05,16.86 -13.61,2.31 -10.54,5.66 -24.15,10.21 -23.46,7.84 -37.01,11.61 -62.96,19.9 -16.11,5.14 -39.03,16.2 -54.08,22.79 -34.07,14.91 -43.64,14.51 -61,20.89 -12.51,4.59 -3.55,2.27 -10.48,8.36 -11.67,10.27 -23.52,14.16 -39.03,20.67 -12.67,5.31 -33.56,19.88 -51.75,29.52l-143.81 100.37c-0.81,0.54 -1.88,1.19 -2.7,1.72 -0.81,0.52 -1.89,1.15 -2.69,1.66l-7.67 4.81c-2.31,1.56 -4.74,3.39 -7.26,5.24 -16.56,12.11 -26.98,28.43 -42.9,41.44 -17.36,14.17 -25.09,26.86 -44.42,38.57 -17.87,10.83 -21.81,26.11 -37.74,41.5 -30.57,29.55 -57.62,62.31 -81.57,96.87l-72.3 107.4 -105.02 213.31c-18.01,40.46 -25.53,96.89 -45.35,134.44 -5.86,11.1 -4.28,30.97 -10.22,45.01 -9.85,23.28 -9.91,41.06 -10.52,72.07 -0.52,26.46 -7.94,49.37 -11.29,70.91 -3.57,22.92 -1.63,49.68 -1.63,73.9 0,47.11 -3.83,114.86 1.11,159.02 8.33,74.52 28.27,201.8 52.6,266.71 5.28,14.07 17.28,46.8 20.5,60.96 8.67,37.99 15.36,28.92 15.36,63.52z"/>
  <path class="fil0" d="M1160.18 2342.93c-26.87,0 -24.89,-6.02 -25.03,-30.06 -0.09,-15.54 0.46,-31.69 0.46,-47.39 0.04,-354.52 -29.96,-306.07 88.55,-306.07l2136.86 0c64.73,-0.01 75.98,-9.09 80.14,19.59 3.91,26.93 -0.24,232.91 -0.22,290.74 0.02,63.73 8.57,73.2 -24.47,73.2l-2256.29 0zm-278.97 -614.87l0 844.51c0,20.66 0.72,25.02 23.06,25.02l2768.12 0c22.62,0 22.79,-4.11 22.79,-25.02l0 -844.51c0,-18.29 -4.52,-23.06 -22.79,-23.06l-2768.12 0c-18.11,0 -23.06,4.94 -23.06,23.06z"/>
  <path class="fil0" d="M3314.11 6579.41c-35.41,22.42 -143.74,30.18 -243.31,109.2 -10.89,8.64 -13.5,12.67 -22.09,20.45 -33.7,30.51 -53.9,59.65 -81.37,96.78 -18.45,24.93 -22.92,63.53 -33.02,95.52 -10.73,33.96 -5.57,131.45 15.86,164.22l7.61 14.34c25.21,57.8 49.46,84.1 92.85,123.48 29.76,27 69.07,52.38 104.21,70.27 17.94,9.14 53.64,20.31 64.55,26.5l33.23 10.55c13.12,3 15.26,7.21 30.3,10.28 109.87,22.38 197.7,14.56 239.17,25.79 43.93,11.88 88.54,24.8 124.97,48.92 15.46,10.24 32.97,24.42 42.17,42.45 11.68,22.89 5.59,57.4 -9.18,72.54 -34.98,35.84 -50.96,43.83 -103.01,64.18 -44.47,17.38 -158.51,25.39 -203.17,16.15 -14.95,-3.09 -19.81,-8.8 -31.35,-10.57l-87.77 -29.64c-0.78,-0.45 -1.91,-1.02 -2.7,-1.48 -25.79,-15 -49.23,-34.17 -63.64,-59.5 -5.08,-8.94 -1.69,-6.81 -10.79,-18.04 -4.54,-2.74 -233.5,-9.17 -244.99,3.63 -18.09,20.15 24.52,121.97 37.32,142.28 38.6,61.23 79.48,106.28 138.14,141.83l5.22 3.29c7.94,5.15 1.71,1.82 7.26,5.11 9.78,5.79 8.93,3.31 17.75,7.9l8.3 5.43c30.02,20.99 153.16,50.5 161.98,60.08 20.72,25.12 -3.6,101.78 12.32,136.46 28.05,6.96 229.71,8.41 242.54,-3.72 14.33,-15.91 4.27,-104.5 8.37,-133.2 15.25,-8.65 104.66,-32.29 128.17,-41.34 32.96,-12.69 80.23,-40.72 110.07,-65.31l38.3 -33.74c3.15,-3.37 2.87,-3.2 6,-6.68 0.83,-0.92 3.18,-3.61 4.03,-4.53l4.18 -4.46c0.62,-0.65 1.48,-1.56 2.13,-2.21 0.88,-0.9 3.48,-3.48 4.38,-4.35l56.75 -87.65c20.97,-45.74 28.57,-93.2 24.18,-146.45 -1.89,-23.03 -5.22,-55.94 -12.97,-75.15l-34.26 -72.61c-7.44,-16.51 -28.63,-32.44 -41.1,-47.12 -5.68,-6.68 -4.17,-5.7 -8.99,-11.57 -15.85,-19.37 -36.29,-29.01 -53.14,-44.94l-4.14 -4.12c-4.53,-4.01 -8.7,-6.69 -15.3,-10.94l-116.81 -57.95c-43.01,-18.93 -100.54,-22.24 -144.44,-32.15 -51.51,-11.63 -118.04,3.48 -163.06,-11.74l-64.95 -19.95c-21.05,-9.13 -11.83,-3.17 -28.33,-13.55 -42.62,-26.83 -106.73,-64.83 -60.31,-128.74 17.51,-24.11 68.67,-55.24 107.26,-67.69 94.33,-30.43 209.39,-27.28 300.8,15.65 21.54,10.11 33.71,17.04 51.33,33.79 22.69,21.56 23.5,19.06 35.46,54.41 33.92,5.08 227.09,11.45 248.3,-1.03 28.12,-29.02 -38.35,-166.52 -72.7,-200.7l-32.92 -34.82c-0.91,-0.83 -5.77,-5.22 -6.67,-6.06l-4.28 -4.2c-0.63,-0.57 -1.51,-1.47 -2.16,-2.02l-83.84 -57.04c-22.89,-13.65 -72.26,-35.53 -96.93,-41.35 -22.7,-5.36 -8.76,-10.02 -33.47,-12.32 -22.58,-2.11 -20.6,0.11 -41.13,-8.72 -3.66,-36.61 5.56,-109.77 -8.19,-137.19 -25.81,-3.98 -221.36,-5.06 -241.72,0.04 -12.94,26.67 -6.81,101.69 -7.23,135.03z"/>
  <path class="fil0" d="M2165.19 5031.35c-11.81,-24.84 -11.54,-231.36 1.24,-256.08l244.02 1.84c9.77,20.59 9.27,230.22 1.23,254.56 -19.12,5.07 -229.12,5.03 -246.49,-0.32zm-258.24 36.36c1.15,24.07 14.31,55.09 23.29,75.4 11.76,26.57 -2.15,19.26 16.23,33.32 26.12,19.99 20.54,44.79 71.81,77.17 10.93,6.9 15.5,12.09 26.38,14.06l19.4 2.95c1.26,0.36 2.3,0.76 3.48,1.17 86.98,29.69 81.88,22 188.79,22 170.09,0 165.8,15.05 286.96,-38.83 0.97,-0.43 2.15,-0.87 3.13,-1.28 0.97,-0.41 2.19,-0.77 3.13,-1.16l30.97 -22.48c22.3,-24.01 19.54,-15.41 32.96,-34.59l11.25 -14.85c0.55,-0.72 1.31,-1.74 1.85,-2.45 0.55,-0.72 1.33,-1.72 1.87,-2.43 0.53,-0.7 1.34,-1.68 1.85,-2.37l10.25 -18.31c5.82,-12.74 11.52,-21.42 14.79,-31.57 20.37,-63.18 16.62,-104.76 16.62,-179.43 0,-105.13 18.74,-238.59 -55.64,-325.62 -12.43,-14.55 -37.72,-41.31 -55.86,-51.86 -11.05,-6.42 -9.54,-3.3 -19.18,-7.57l-42.83 -24.29c-38.7,-15.81 -340.86,-35.02 -444.9,10.46l-13.7 7.76c-24.91,17.55 -15.22,1.81 -43.63,28.25 -21.49,19.98 -36.11,30.98 -46.81,51.92l-29.95 62.16c-23.18,73.32 -16.61,286.93 -12.52,372.49z"/>
  <path class="fil0" d="M1265.67 5025.74c-8.36,-16.11 -9.85,-232.74 0.75,-243.79 12.48,-13.01 218.17,-10.12 247.31,-3.86 8.59,28.01 9.51,230.15 -1.23,253.85 -23.89,5.17 -149.01,2.04 -190.26,2.21 -9.96,0.04 -24.72,0.85 -34.11,0.04 -10.5,-0.91 -6.63,-0.16 -14.03,-3.05 -6.74,-2.63 -4.78,-2.46 -8.43,-5.4zm-257.94 20.65c0.94,70.11 51.84,157.55 106.55,194.06l15.05 11.04c0.73,0.5 1.76,1.24 2.49,1.72 68.76,45.36 313.06,44.13 403.24,34.59 16.21,-1.72 29.71,-4.89 47.67,-6.36 28.69,-2.35 9.17,-1.96 31.3,-12.33l33.87 -16.82c52.87,-29.18 66.2,-57.16 97.92,-98.73 0.51,-0.67 1.43,-1.54 1.91,-2.19 0.46,-0.61 1.36,-1.48 1.78,-2.09 0.41,-0.59 1.2,-1.54 1.56,-2.15 0.37,-0.62 0.98,-1.68 1.3,-2.35l10.04 -28.01c19.81,-41.04 12.47,-324.64 9.63,-360.44 -5.24,-66.05 3.03,-23.57 -12.57,-63.15 -8.48,-21.51 1.36,-7.4 -13.43,-33l-15.47 -26.79c-0.55,-0.67 -1.45,-1.56 -2.01,-2.22 -0.57,-0.69 -1.46,-1.61 -2.03,-2.3 -5.56,-6.72 -4.56,-5.8 -9.34,-12.17l-16.37 -21.52c-0.56,-0.63 -1.41,-1.58 -1.99,-2.2l-30.81 -23.49c-78.69,-49.31 -68.89,-31.35 -100.35,-44.2 -35.66,-14.56 -90.25,-7.82 -130.22,-7.82 -29.5,0 -218.22,-5.95 -233.74,5.17 -25.86,18.52 -13.96,6.13 -36.08,13.38l-30.05 17.89c-39.26,28.73 -72.83,53.34 -97.13,95.78 -50.1,87.48 -34.2,283.81 -32.69,396.69z"/>
  <path class="fil0" d="M3058.21 4841.65c-0.15,-69.07 -4.06,-66.86 33.82,-66.46l188.35 0.11c36.47,1.01 30.86,10.79 32.85,18.78l0.95 188.32c0.21,12.22 2.18,37.17 -8.6,46.38 -11.96,10.21 -147.08,4.44 -183.41,4.52l-47.11 -0.94c-10.19,-1.72 -8.37,-1.89 -12.22,-3.6l-4.63 -187.1zm509.48 217.53c9.2,-69.35 5.67,-304.08 -12.26,-365.13 -5.3,-18.04 -29.11,-64.44 -44.45,-79.35l-34.53 -33.56c-90.02,-76.31 -212.42,-60.43 -324.41,-60.43 -58.05,0 -126.26,-3.54 -179.02,14.92 -39.48,13.81 -60.81,29.49 -89.48,53.78 -22.15,18.76 -7.31,13.27 -24.42,36.78l-23.62 36.28c-6.13,10.5 0.97,-2.4 -9.46,10.36 -45.06,55.09 -24.49,407.78 -7.82,448.05 10.65,25.69 19.35,44.23 33.88,64.07l11.08 13.56c4.22,4.67 7.27,8.15 10.19,11.13l38.76 34.07c12.29,11.52 27.64,16.13 46.25,24.99 83.09,39.59 404.74,21.75 442.46,4.04 49.86,-23.41 73.93,-32.95 111.44,-79.69 25.98,-32.37 48.51,-81.79 55.41,-133.86z"/>
  <path class="fil0" d="M1514.17 2986.31c1.53,3.68 1.87,2.58 3.42,12.48l-2.11 234.98c-0.3,1.21 -0.75,2.8 -1.3,4.13 -1.33,0.55 -3.26,-0.35 -4.13,1.29l-231.23 2.46c-22.75,-4.22 -18.31,-7.07 -17.88,-33.28l0.13 -188.15c-0.77,-38.14 -7.77,-37.99 61.2,-37.7 20.88,0.09 171.45,-3.72 191.91,3.78zm-311.36 -251.69c-32.48,10.09 -86.4,30.79 -108.09,57.42l-54.64 64.74c-6.12,9.84 -1.09,1.88 -5.53,14.77l-23.06 54.02c-9.25,20.68 -9.59,341.54 1.06,367.93 5.26,13.04 2.38,3.81 5.96,15.29l12.31 33.93c6.91,15.25 4.31,19.59 18.93,40.26 0.47,0.67 1.19,1.72 1.69,2.36 0.49,0.63 1.28,1.6 1.8,2.22 0.52,0.62 1.4,1.5 1.94,2.11l18.96 19.91c0.59,0.63 1.49,1.53 2.08,2.15 0.83,0.88 3.17,3.43 4,4.31 38.19,40.9 60.25,50.8 120.54,71.31 41.89,14.25 333.26,19.74 411.94,-8.65l60.12 -34.92c31.42,-26.35 67.49,-58.71 83.3,-108.63 4.35,-13.72 9.51,-22.74 12.34,-37.37 8.82,-45.64 9.37,-330.66 -0.5,-374.8 -6.81,-30.45 -26.94,-69.97 -44.8,-94.54l-49.43 -47.94c-21.51,-16.68 -39.08,-22.18 -58.75,-35.19 -1.05,-0.69 -6.47,-4.67 -7.46,-5.41 -9.67,-7.25 -9.03,-9.07 -25.02,-9.77l-363.08 -0.07c-25.01,1.14 -11.99,3.14 -16.6,4.57z"/>
  <path class="fil0" d="M2354.43 2982.54c9.85,-0.02 20.2,-0.39 29.94,-0.28l25.62 2.89c0.87,-1.26 2.79,0.65 4.14,1.15 0.55,1.33 0.99,2.92 1.28,4.13 5.06,20.94 5.21,214.92 2.09,234.99 -1.5,9.72 -1.87,8.81 -3.38,12.48l-16.76 4.02c-4.09,0.5 -12.91,0.46 -17.32,0.44 -9.93,-0.02 -19.91,-0.24 -29.88,-0.24 -26.33,-0.03 -167.74,3.96 -187.65,-4.22l0 -251.6 191.91 -3.76zm-250.09 -247.91c-67.85,18.26 -79.66,34.77 -123.02,66.85l-17.48 19.17c-29.41,49.63 -7.98,-14.6 -51.78,101.78 -6.94,18.44 -18.81,356.78 0.29,391.67l7.59 15.03c5.07,12.69 7.36,16.99 15.16,29.84 26.68,43.99 27.57,45.15 57.65,74.41 14.89,14.49 45.84,31.64 65.09,41.02 65.87,32.09 369.76,27.05 413.53,15.31 29.24,-7.85 64.76,-21.81 88.39,-37.96l32.46 -27c40.89,-39.93 48.77,-59.96 70.61,-120.88 12.64,-35.28 15.85,-339.13 2.85,-372.46 -15.44,-39.62 1.89,-9.8 -25.43,-67.52 -13.01,-27.48 -24.08,-41.55 -40.51,-59.09 -33.05,-35.32 -76.86,-54.39 -122,-68.91 -33.72,-10.85 -337.34,-10.96 -373.39,-1.25z"/>
  <path class="fil0" d="M3057.1 3907.57c0,-24.78 1.86,-26.68 26.69,-26.68l196.2 0c26.24,0 35.21,-2.17 35.21,26.68l0 196.2c0,32.49 -2.7,35.22 -35.21,35.22l-196.2 0c-27.44,0 -26.69,-9.44 -26.69,-35.22l0 -196.2zm-252.58 255.91c4.39,56.76 28.04,106.1 54.29,135.01 31.72,34.94 31.65,29.58 59.54,51.7 0.74,0.59 1.71,1.45 2.42,2.06 0.69,0.59 1.58,1.53 2.23,2.11 0.62,0.56 1.44,1.56 2.04,2.1 12.48,11.14 13.44,6.6 30.94,15.7 42.87,22.31 139.35,21.06 191.79,21.06 54.66,0 139.64,4.98 190.81,-1.72 75.88,-9.93 128.17,-44.12 172.28,-96.33 5.77,-6.83 1.97,-0.8 10.15,-9.8 17.01,-18.7 19.13,-35.3 25.8,-48.52 30.97,-61.43 28.93,-306.84 21.11,-380.07 -2.77,-26 -12.91,-57.14 -20.77,-77.39 -8.47,-21.8 -5.47,-14.39 -16.02,-29.8 -20.03,-29.26 -37.97,-54.3 -69.29,-74.85 -8.73,-5.73 -7.54,-5.15 -14.64,-10.83 -49.11,-39.32 -135.79,-37.57 -222.67,-37.57 -106.56,0 -181.74,-11.93 -270.2,20.81 -13.55,5.02 -18.4,8.57 -28.99,15.5 -34.89,22.8 -36,22.97 -66.61,58.09 -19.93,22.87 -14.92,21.98 -26.56,41.38 -42.46,70.79 -34.98,306.79 -27.67,401.36z"/>
  <path class="fil0" d="M3058.17 2990.53c22.63,-11.6 148.09,-6.02 191.96,-6.09 82.57,-0.15 64.36,-22.98 64.46,189.52 0.03,71.04 10.42,66.03 -60.19,65.84 -30.5,-0.08 -183.9,2.35 -191.81,-2.41 -11.13,-6.69 -6.81,-235.49 -4.41,-246.85zm-256.41 12.81c0,107.05 -13.12,266.08 26.87,349.82 21.54,45.1 51.41,80.72 97.43,106.48l44.15 21.02c4.72,1.52 10.45,2.5 16.08,4.14 64.04,18.58 121.16,9.07 195.58,9.07 53.91,0 112.82,2.29 166.09,0.08 10.68,-0.44 21.69,-2.37 31.02,-5.56 29.29,-9.99 83.27,-34.8 100.66,-55.46 0.58,-0.69 1.28,-1.78 1.83,-2.48l11.52 -12.81c56.25,-49.28 76.42,-122.34 76.42,-196.76 0,-84.83 8.64,-253.09 -15.78,-324.93 -10.77,-31.68 -26.64,-52.28 -46.23,-77.91 -51.87,-67.86 -118.54,-72.4 -133.16,-80.11 -13.62,-7.19 -11.15,-7.53 -30.29,-7.53l-319.63 0c-30.22,0 8.58,5.31 -47.8,13.14 -32.58,4.53 -53.98,31.34 -79.85,45.39 -20.5,11.13 -4.34,-2.43 -19.49,12.11l-14.91 20.11c-4.63,6.3 -7.81,9.18 -13.02,16.25 -2.35,3.17 -3.06,4.11 -5.31,7.57l-4.96 8.35c-29.1,49.87 -37.25,83.76 -37.25,150.04z"/>
  <path class="fil0" d="M2162.52 4129.36c-10.44,-21.84 -3.66,-152.04 -3.77,-187.66 -0.16,-50 -12.81,-61.91 37.7,-61.07l188.12 -0.13c24.22,-0.37 29.43,-4.36 33.61,17.81l-3.35 237.15c-28.83,5.48 -147.96,2.26 -192.62,2.43 -23.43,0.09 -43.85,4.62 -59.69,-8.52zm-254.97 46.92c4.47,61.13 57.08,139.32 115.09,174.85 16.47,10.09 9.92,9.37 32.08,16.42l24.09 10.96c46.02,16.65 127.04,14.72 186.06,14.72 123.57,0 277.09,20.15 361.41,-112.69 44.54,-70.17 21.93,-45.34 34.08,-86.24l6.19 -14.7c5.83,-16.86 3.59,-32.03 3.5,-50.23 -0.23,-48.18 3.36,-265.52 -2.32,-281.66l-5.04 -8.9c-12.72,-22.33 0.97,-26.15 -11.86,-51.7l-14.46 -32.1c-1.2,-2.61 -8.65,-13.13 -8.97,-13.55l-30.61 -42.37c-25.29,-29 -71.19,-48.84 -103.7,-62.12 -39.35,-16.07 -317.2,-12.61 -373.42,-7.84 -19.5,1.65 -66.39,18.07 -75.29,22.97 -98.48,54.19 -138.93,133.65 -139.36,242.69 -0.31,79.87 -2.65,210.78 2.52,281.5z"/>
  <path class="fil0" d="M1514.67 3885.63c10.55,22.42 7.72,234.13 -2.92,252.26 -58.78,3.82 -129.25,0.4 -189.5,0.48 -41.98,0.06 -60.44,12.39 -60.14,-29.93l-0.03 -196.93c0.06,-41.85 19.33,-31.23 60.17,-31.12 36.59,0.1 172.3,-7.61 192.42,5.24zm-508.06 290.65c0.2,0.92 0.89,2.1 1.1,2.6l2.17 5.24c17.48,42.12 3.57,34.79 22.53,65.43l13.1 20.92c0.49,0.74 1.17,1.82 1.66,2.57 0.5,0.76 1.15,1.85 1.64,2.61l6.76 9.94c0.52,0.69 1.36,1.64 1.89,2.33 0.54,0.71 1.37,1.67 1.91,2.37l7.39 9.84c0.54,0.64 1.31,1.65 1.87,2.26 0.55,0.6 1.41,1.52 1.98,2.08l29.74 29.12c0.67,0.5 1.8,1.11 2.51,1.59l20.22 14.25c34.49,26.73 101.57,44.58 143.51,44.5 59.88,-0.11 249.25,3.9 282.29,-1.92 34.98,-6.16 64.78,-16.23 93.93,-29.17l32.69 -25.25c34.41,-26.88 63.17,-60.11 84.22,-116.52 23.19,-62.16 16.71,-289.59 11.86,-368.2 -3.76,-60.85 -33.46,-114.22 -70.38,-149.81l-101.39 -65.13c-39.59,-16.74 -318.9,-15.42 -375.82,-8.72 -72.42,8.52 -151.81,65.21 -188.25,126.93 -0.48,0.81 -1.06,1.93 -1.55,2.75l-5.08 8.1c-0.47,0.76 -1.23,1.75 -1.67,2.52 -7.6,13.13 -5.39,19.95 -9.48,36.04l-11.34 370.72z"/>
  <path class="fil0" d="M5114 5285.25c7.67,10.37 161.28,4.59 183.43,4.59l1266.76 0c71.31,0.01 30.78,3.67 81.06,-8.87l0 -238.85c-54.57,-13.61 -21.72,-8.87 -93.85,-8.87l-1364.87 0c-99.69,-0 -80.54,-24.62 -80.54,145.36 0,22.82 -10.07,95.74 8.01,106.65z"/>
  <path class="fil0" d="M5114.02 5545.39c-9.43,18.08 -8.89,14.03 -8.66,42.44 1.98,250.91 -19.65,214.63 64.11,214.52l1369.13 -0c21.44,0 91.89,8.98 102.39,-5.27 9.77,-9.81 4.26,-225.11 4.26,-243.13 -8.17,-3.35 -0.07,-9.05 -33.74,-8.75 -493.41,4.32 -1003.68,0.2 -1497.49,0.2z"/>
  <path class="fil0" d="M5105.49 4254.83c23.49,18.46 145.73,7.55 183.4,7.55 164.33,0 1317.17,6.88 1352.96,-5.06 4.64,-28.5 6.67,-239.37 -5.22,-246.19 -6.57,-3.77 -1519.48,-4.3 -1526.72,0.09 -9.67,5.85 -4.55,213.8 -4.42,243.61z"/>
  <path class="fil0" d="M5114.02 4777.69l1531.23 -8.56c0,-30.1 5.31,-240.22 -4.44,-246.09 -10.59,-6.39 -1307.01,-1.8 -1488.45,-2.36 -68.98,-0.21 -45.56,-9.55 -46.93,205.88 -0.2,33.47 -2.98,28.94 8.58,51.13z"/>
  <path class="fil0" d="M4593.65 5285.25l9.09 8.06 238.31 0.48c15.51,-24.33 8.56,-93.14 8.56,-132.24 0,-42.1 7.06,-103.91 -8.56,-132.24l-235.81 0.87c-15.47,5.91 12.19,-11.48 -4.28,2.69l-3.09 3.98c-10.22,16.46 -4.22,209.77 -4.22,248.41z"/>
  <path class="fil0" d="M4844.72 4256.17c7.22,-12.86 5.97,-219.04 0.59,-244.41 -22.39,-7.73 -221.75,-7.31 -247.38,-0.66 -5.93,21.42 -7.09,238.87 -0.03,246.74 8.17,9.09 181.15,5.64 217.83,5.48 3.62,-0.02 13.36,-0.2 16.52,-0.94l12.47 -6.2z"/>
  <path class="fil0" d="M4844.63 5550.04c-26.99,-5.05 -147.99,-1.97 -191.26,-2.11 -30.96,-0.09 -49.65,-5.46 -57.07,8.03 -5.82,10.58 -3.44,226.7 1.94,246.35l246.01 -1.85c7.31,-25.34 7.01,-228.33 0.37,-250.42z"/>
  <path class="fil0" d="M4599.35 4773.41l243.85 2.07c10.4,-24.53 8.28,-222.31 1.07,-252.85l-246.01 -1.85c-7.05,31.46 -9.24,230.87 1.1,252.64z"/>
 </g>
</svg>
