<?xml version="1.0" encoding="UTF-8"?>
<!DOCTYPE svg PUBLIC "-//W3C//DTD SVG 1.1//EN" "http://www.w3.org/Graphics/SVG/1.1/DTD/svg11.dtd">
<!-- Creator: CorelDRAW -->
<svg xmlns="http://www.w3.org/2000/svg" xml:space="preserve" width="8.5in" height="11in" version="1.1" style="shape-rendering:geometricPrecision; text-rendering:geometricPrecision; image-rendering:optimizeQuality; fill-rule:evenodd; clip-rule:evenodd"
viewBox="0 0 8500 11000"
 xmlns:xlink="http://www.w3.org/1999/xlink"
 xmlns:xodm="http://www.corel.com/coreldraw/odm/2003">
 <defs>
  <style type="text/css">
   <![CDATA[
    .fil0 {fill:#0D4157}
   ]]>
  </style>
 </defs>
 <g id="Layer_x0020_1">
  <metadata id="CorelCorpID_0Corel-Layer"/>
  <g id="_2614543943312">
   <path class="fil0" d="M6475.97 6217.16c0,-455.21 380.87,-841.03 808.68,-841.03 368.73,0 659.39,165.06 811.04,499.03 101.61,223.79 99.86,456.17 2.67,686.67 -122.73,291.07 -422.98,497.89 -767.21,505.82 -467.07,10.77 -855.18,-376.22 -855.18,-850.49zm1924.67 -74.55l0 175.98c-16.2,198.43 -88.17,394.6 -224.18,563.94 -109.7,136.57 -304.56,310.96 -487.46,353.57 0,248.78 28.27,1015.57 -11.94,1184.91 -76.5,322.21 -341.55,497.14 -683.52,497.14l-4560.97 0c-858.5,0 -727.81,-783.91 -727.81,-1326.24 0,-679.29 0,-1358.59 0,-2037.88l-1322.01 -1136.39c-39.73,-38.68 -57.59,-43.9 -97.19,-80.72l-105.64 -88.44c-34.75,-30.51 -60.18,-58.56 -60.18,-117.74 0,-76.64 43.72,-99.38 85.07,-141.35l1072.6 -1240.23c64.22,-82.9 130.95,-145.21 194.07,-226.44l593.32 -684.4c241.83,-248.4 362.2,-557.02 541.38,-404.38 23.89,20.35 32.67,34.43 57.66,55.66l279.44 238.12c81.24,63.12 143.54,129.84 226.44,194.07 42.98,33.3 193.07,187.26 233.25,187.26l1126.84 -506.7c297.37,-149.99 418.91,-226.15 496.61,-65.45l312.07 674.52c24.4,52.36 33.09,83.25 59.16,134.92 25.48,50.5 37.5,89.11 59.38,134.7 183.29,0 366.63,0.45 549.92,-0.02 107,-0.28 175.89,-16.75 238.97,35.99 44.21,36.96 93.41,94.25 137.05,137.9 187.25,187.26 362.65,362.65 549.9,549.91 75.35,75.35 224.94,187.08 248.81,301.09 17.83,85.17 5.92,1487.27 5.92,1643.79 50.59,-4.21 57.46,-16.17 113.21,-16.17 641.29,0 1057.19,487.14 1099.81,1009.08zm-1115.98 1158.18l177.91 0 0 921.9c0,262.3 -149.22,452.86 -404.34,452.86l-4738.87 0c-185.92,0 -371.99,-175.06 -371.99,-404.34l0 -3105.33c0,-164.41 144.03,-291.12 258.78,-291.12l938.07 0c145.93,0 222.61,121.13 302.93,198.45l267.19 250.37c605.38,605.38 445.03,473.07 1580.98,473.07 345.04,0 690.07,0 1035.11,0 -171.51,324.12 -79.31,786.53 96.88,1035.27 186.65,263.51 498.61,468.88 857.36,468.88zm-3574.37 -2329l0 -2248.14 2329 0 0 582.25c0,111.43 55.89,182.71 116.5,239.32 133.08,124.29 554.64,84.15 789.22,84.15l0 1585.02c-110.04,9.15 -304.84,156.8 -388.92,241.85 -28.37,28.7 -61.44,97.8 -112.46,97.8l-2054.05 0c-159.96,0 -276.07,-175.02 -367.63,-263.15 -50.89,-48.99 -311.67,-253.74 -311.67,-319.1zm2571.61 -2070.23l489.19 481.24c-590.12,23.44 -489.19,80 -489.19,-481.24zm-2814.22 1859.97c-275.76,-184.66 -426.23,-129.39 -857.2,-129.39 -22.17,-95.14 -534.03,-1193.5 -614.81,-1374.54 -30.05,-67.34 -73.22,-121.07 -80.66,-210.48l1838.47 -830.18c64.06,-29.85 112.05,-50.18 177.91,-80.87 125.22,-58.35 835.93,-393.92 927.22,-415.19 11.01,47.28 58.98,144.2 81.08,193.87l258.57 566.29 -1504.39 -0.24c-244.04,-2.11 -226.81,39.64 -226.21,275.17 1.72,668.43 0.02,1337.1 0.02,2005.55zm-1115.98 -129.39c-241.71,0 -349.27,33.76 -473.39,157.38 -124.35,123.84 -173.55,254.74 -173.55,457.22 -52.98,-35.47 -107.84,-88.52 -157.96,-133.17l-165.51 -141.78c-35.49,-27.2 -43.32,-38.39 -77.09,-68.47l-816.44 -703.89c-47.77,-46.18 -34.26,-37.56 -93.07,-68.67 23.19,-34.63 32.19,-36.96 59.69,-69.7 29.94,-35.63 31.81,-44.39 65.65,-79.91 34.52,-36.25 36.99,-42.57 66.35,-79.22l264.96 -301.12c30.78,-34.55 32.07,-45.72 64.83,-80.74l1597.28 -1847.7c52.98,35.47 107.84,88.52 157.96,133.17l323.17 275.25c81.18,75.46 131.34,89.12 149.64,157.66l-490.53 221.11c-40.9,19.06 -61.67,23.93 -102.57,43l-598.27 275.11c-152.26,77.37 -348.87,115.95 -322.02,246.39l635.35 1402.51c34.39,80.44 64.01,113.17 85.54,205.59z"/>
   <path class="fil0" d="M2432.56 8077.13c0,78.23 51.16,129.39 129.39,129.39l4286.01 0c173,0 164.92,-242.6 -16.17,-242.6l-4237.5 0c-84.67,0 -161.74,32.48 -161.74,113.21z"/>
   <path class="fil0" d="M4146.97 4599.8l2345.17 0c179.83,0 167.6,-242.6 0,-242.6l-2329 0c-187.65,0 -180.36,242.6 -16.17,242.6z"/>
   <path class="fil0" d="M4163.15 4049.89l2329 0c179.83,0 167.6,-242.6 0,-242.6l-2329 0c-184.86,0 -184.86,242.6 0,242.6z"/>
   <path class="fil0" d="M4146.97 5149.7l2345.17 0c166.31,0 195.67,-242.61 -32.35,-242.61l-2296.65 0c-176.78,0 -187.93,242.61 -16.17,242.61z"/>
   <path class="fil0" d="M4163.15 3499.99l1455.63 0c173.02,0 188.72,-242.61 0,-242.61l-1455.63 0c-184.86,0 -184.86,242.61 0,242.61z"/>
   <path class="fil0" d="M7122.92 6395.07c-69.65,-46.63 -210.75,-242.6 -291.12,-242.6 -78.35,0 -132.21,56.24 -125.03,127.38 6.4,63.31 360.1,406.35 399.98,406.35 123.26,0 331.07,-258.29 448.81,-376.04 153.73,-153.73 376.04,-315.94 376.04,-464.99 0,-35.75 -86.21,-167.82 -222.98,-28.93 -115.9,117.69 -510.69,528.6 -585.7,578.83z"/>
   <path class="fil0" d="M2432.56 7316.97c0,69.13 64.39,113.21 97.05,113.21l1115.98 0c158.63,0 215.22,-242.6 -80.87,-242.6l-954.24 0c-96.28,0 -177.91,31.15 -177.91,129.39z"/>
  </g>
 </g>
</svg>
