<?xml version="1.0" encoding="UTF-8"?>
<!DOCTYPE svg PUBLIC "-//W3C//DTD SVG 1.1//EN" "http://www.w3.org/Graphics/SVG/1.1/DTD/svg11.dtd">
<!-- Creator: CorelDRAW -->
<svg xmlns="http://www.w3.org/2000/svg" xml:space="preserve" width="8.5in" height="11in" version="1.1" style="shape-rendering:geometricPrecision; text-rendering:geometricPrecision; image-rendering:optimizeQuality; fill-rule:evenodd; clip-rule:evenodd"
viewBox="0 0 8500 11000"
 xmlns:xlink="http://www.w3.org/1999/xlink"
 xmlns:xodm="http://www.corel.com/coreldraw/odm/2003">
 <defs>
  <style type="text/css">
   <![CDATA[
    .fil0 {fill:#0D4157}
   ]]>
  </style>
 </defs>
 <g id="Layer_x0020_1">
  <metadata id="CorelCorpID_0Corel-Layer"/>
  <g id="_2614321225008">
   <path class="fil0" d="M2963.02 8029.98l537.44 0 0 1612.32 -537.44 0 0 -1612.32zm3191.05 1612.32c-240.85,0 -531.74,38.77 -667.58,-71.4 -302.39,-245.22 134.24,-399.14 161.98,-652.55 14.94,-136.59 2.71,-213.96 51.43,-318.06 116.08,-247.98 397.81,-211.4 464.33,91.33 45.56,207.33 -6.96,255.61 106.91,413.74 61.44,85.33 205.15,163.09 177.31,309 -24.9,130.44 -149.32,227.93 -294.37,227.93zm-4265.93 -2502.45l0 -369.49 1012.52 -431.85c123.16,-53.19 962.3,-433.37 1002.88,-433.37 27.38,0 438.68,181.3 503.56,210.5l746.48 328.4c143.78,59.91 664.87,302.91 765.36,326.32l0 369.49c-67.06,-15.62 -187.03,-71.98 -251.64,-101.06 -158.12,-71.14 -1695.29,-755.49 -1746.96,-755.49 -91,0 -429.28,159.24 -531.8,207.18l-1237.41 542.86c-85.04,37.78 -176.09,86.26 -262.99,106.51zm-806.16 -3543.75l856.55 0c51.98,0 255.06,223.24 285.51,268.72l-1142.06 0 0 -268.72zm2552.84 -906.93c0,-77.05 135.75,-46.96 225.44,-60.08l3519.84 -309.41c178.26,-4.46 421.06,-50.38 554.24,-50.38l0 655 -4299.52 0 0 -235.13zm-268.72 -167.95l0 537.44c0,175.65 201.24,134.36 403.08,134.36l0 2149.76 268.72 0 0 -2149.76 3493.36 0 0 6449.28 -873.34 0c113.97,-215.39 90.4,-442.54 -88.28,-617.11 -218.62,-213.6 -4.84,-349.11 -278.11,-696 -203.98,-258.93 -780.94,-264.98 -898.31,333.92 -40.48,206.57 22.57,217.91 -124.98,362.07 -178.67,174.57 -202.24,401.72 -88.28,617.11l-1410.78 0 0 -1746.68c0,-81.24 -53.12,-134.36 -134.36,-134.36l-806.16 0c-81.24,0 -134.36,53.12 -134.36,134.36l0 1746.68 -403.08 0 0 -2334.5c0,-51.99 65.77,-64.92 175.04,-110.48 234.67,-97.85 1393.54,-620.38 1437.29,-620.38 23.84,0 730.13,308.28 817.34,350.19l712.17 312.33c47.6,20.63 82.81,13.07 82.81,68.34l0 722.18 268.72 0 0 -638.21c503.87,266.61 403.08,2.63 403.08,-705.39 0,-138.91 -302.97,-225.44 -508.67,-314.28 -231.81,-100.12 -1662.24,-760.6 -1792.24,-760.6 -45.5,0 -480.6,204.11 -578.12,244.83l-1461.29 638.08c-300.32,125.01 -227.92,81.1 -227.92,863.76 0,240.77 299.86,88.21 403.08,33.59l0 2250.53 -940.52 0 0 -2284.12 268.72 0 0 -268.72 -806.16 0 0 -2955.92 2955.92 0 0 -268.72 -856.54 0c-116.77,0 -464.62,-537.44 -621.42,-537.44l-1074.88 0c-188.07,0 -134.36,251.11 -134.36,537.44 -286.33,0 -537.44,-53.71 -537.44,134.36l0 3224.64c0,188.07 251.11,134.36 537.44,134.36l0 2284.12 -537.44 0 0 268.72 8061.6 0 0 -268.72 -537.44 0 0 -6449.28c201.84,0 403.08,41.28 403.08,-134.36l0 -940.52c0,-113.5 -79.68,-140.1 -201.38,-135.61 -90.01,3.31 -237.35,23.3 -321.94,32.17l-940.52 83.97c-349.82,36.56 -950.16,66.8 -1269.05,108.14 -267.76,34.72 -704.11,51.35 -957.32,83.97 -189.77,24.46 -434.51,39.52 -628.78,59.81 -221.02,23.09 -517.97,-18.41 -517.97,170.63z"/>
   <path class="fil0" d="M813.26 4536.63l0 2149.76c0,188.07 251.11,134.36 537.44,134.36l0 -268.72 -268.72 0 0 -1881.04 940.52 0 0 1343.6 268.72 0 0 -1343.6 1209.24 0 0 -268.72 -2552.84 0c-81.24,0 -134.36,53.12 -134.36,134.36z"/>
   <path class="fil0" d="M4709.69 3864.83l537.44 0 0 537.44 -537.44 0 0 -537.44zm-268.72 -134.36l0 806.16c0,81.24 53.12,134.36 134.36,134.36l806.16 0c81.24,0 134.36,-53.12 134.36,-134.36l0 -806.16c0,-81.24 -53.12,-134.36 -134.36,-134.36l-806.16 0c-81.24,0 -134.36,53.12 -134.36,134.36z"/>
   <path class="fil0" d="M6322.02 3864.83l537.44 0 0 537.44 -537.44 0 0 -537.44zm-268.72 -134.36l0 806.16c0,81.24 53.12,134.36 134.36,134.36l806.16 0c81.24,0 134.36,-53.12 134.36,-134.36l0 -806.16c0,-81.24 -53.12,-134.36 -134.36,-134.36l-806.16 0c-81.24,0 -134.36,53.12 -134.36,134.36z"/>
   <path class="fil0" d="M6322.02 5342.79l537.44 0 0 537.44 -537.44 0 0 -537.44zm-268.72 -134.36l0 806.16c0,81.24 53.12,134.36 134.36,134.36l806.16 0c81.24,0 134.36,-53.12 134.36,-134.36l0 -806.16c0,-81.24 -53.12,-134.36 -134.36,-134.36l-806.16 0c-81.24,0 -134.36,53.12 -134.36,134.36z"/>
   <path class="fil0" d="M4306.61 8298.7l537.44 0 0 403.08 -537.44 0 0 -403.08zm-268.72 -134.36l0 671.8c0,81.24 53.12,134.36 134.36,134.36l806.16 0c81.24,0 134.36,-53.12 134.36,-134.36l0 -671.8c0,-81.24 -53.12,-134.36 -134.36,-134.36l-806.16 0c-81.24,0 -134.36,53.12 -134.36,134.36z"/>
   <path class="fil0" d="M4440.97 5208.43l0 403.08 268.72 0 0 -268.72 537.44 0 0 671.8 268.72 0 0 -806.16c0,-81.24 -53.12,-134.36 -134.36,-134.36l-806.16 0c-81.24,0 -134.36,53.12 -134.36,134.36z"/>
   <path class="fil0" d="M6456.37 6820.75l403.08 0 0 537.44 -403.08 0 0 268.72 537.44 0c81.24,0 134.36,-53.12 134.36,-134.36l0 -806.16c0,-81.24 -53.12,-134.36 -134.36,-134.36l-537.44 0 0 268.72z"/>
   <polygon class="fil0" points="3097.37,7492.55 3366.09,7492.55 3366.09,7223.83 3097.37,7223.83 "/>
   <polygon class="fil0" points="1350.69,8029.98 1619.41,8029.98 1619.41,7761.27 1350.69,7761.27 "/>
  </g>
 </g>
</svg>
