<?xml version="1.0" encoding="UTF-8"?>
<!DOCTYPE svg PUBLIC "-//W3C//DTD SVG 1.1//EN" "http://www.w3.org/Graphics/SVG/1.1/DTD/svg11.dtd">
<!-- Creator: CorelDRAW -->
<svg xmlns="http://www.w3.org/2000/svg" xml:space="preserve" width="8.5in" height="11in" version="1.1" style="shape-rendering:geometricPrecision; text-rendering:geometricPrecision; image-rendering:optimizeQuality; fill-rule:evenodd; clip-rule:evenodd"
viewBox="0 0 8500 11000"
 xmlns:xlink="http://www.w3.org/1999/xlink"
 xmlns:xodm="http://www.corel.com/coreldraw/odm/2003">
 <defs>
  <style type="text/css">
   <![CDATA[
    .fil0 {fill:#0D4157}
   ]]>
  </style>
 </defs>
 <g id="Layer_x0020_1">
  <metadata id="CorelCorpID_0Corel-Layer"/>
  <g id="_2614134729680">
   <path class="fil0" d="M2196.44 7491.09c18,-24.57 438.49,-334.52 518.5,-334.52 117.96,0 87.96,18.99 220.57,214.3l488.61 715.64c109.59,164.38 208.96,305.04 317.8,468.32 167.84,251.84 419.86,509.64 173.74,755.83 -49.93,49.94 -154.6,103.89 -247.35,103.89 -221.94,0 -344.34,-248.66 -441.57,-394.71 -60.71,-91.19 -109.87,-156.38 -170.58,-247.57l-689.13 -1016.89c-31.34,-47.02 -57.56,-86.44 -86.91,-130.53 -15.41,-23.16 -21.61,-32.07 -41.1,-59.25l-42.58 -74.5zm-1639.12 -702.48c0,-332.9 101.67,-514.71 374.56,-695.89 200.45,-133.09 383.57,-260.56 578.81,-391.28l434.93 618.79c62.7,94.69 404.88,586.2 418.08,635.64l-667.91 452.72c-178.9,108.06 -255.14,99.23 -452.72,99.23 -337.4,0 -685.76,-385.09 -685.76,-719.21zm2090.72 -3144.43c7.39,331.66 362.77,1089.17 527.92,1362.08 310.48,513.07 677.17,1004.53 1142.27,1383.31 45.12,36.74 335.47,231.81 353.62,281.96 -99.56,0 -1270.17,76.43 -1495.65,110.02l-494.7 40.52c-17.89,-67 -192.79,-304.91 -243.83,-375.02l-630.33 -925.98c-57.57,-81.84 -49.83,-81.56 15.44,-210.01l819.22 -1656.22c1.23,-2.27 3.73,-7.3 6.06,-10.66zm301.06 -317.79c0,-183.87 -10.26,-341.21 92.93,-492.47 298.06,-436.9 1024.99,102.41 1302.61,317.91l279.77 255.46c135.39,170.59 238.84,254.74 422.77,497.14 418.64,551.76 862.38,1361.21 862.38,2081.35 0,275.67 -99.61,474.73 -283.44,569.57 -297.78,153.62 -783.74,-186.91 -1021.35,-368.68 -36.6,-28 -84.38,-64.17 -120.96,-96.48l-226.39 -208.47c-371.15,-379.41 -726.92,-899.68 -965.26,-1376.34 -27.46,-54.93 -44.87,-93.93 -69.96,-147.48 -121.73,-259.98 -273.1,-731.17 -273.1,-1031.5zm-2743.02 3412.05c0,213.76 88.12,441.08 177.01,575.63 61.59,93.23 84.26,129.61 161.64,206.32 195.61,193.94 487.65,360.11 791.6,331.73 295.6,-27.59 370.69,-68.54 575.77,-177.05l1151.44 1708.64c510.25,695.77 1290.51,294.26 1290.51,-320.41 0,-242.93 -125.8,-389.44 -227.46,-541.93 -122.56,-183.83 -876.93,-1272.73 -943.34,-1398.25 55.58,-1.24 59.14,-9.78 102.79,-14.28 44.41,-4.58 86.59,-0.07 130.37,-3.43l1672.57 -133.81c127.06,-9.71 602.97,-48.11 689.32,-80.07 357.73,-132.41 482.47,-489.76 482.47,-905.76 0,-457.38 -235.07,-1114.6 -406.71,-1433.12 -172.93,-320.9 -344.56,-599.23 -563.38,-891.76 -361.57,-483.34 -1522.49,-1706.26 -2318.23,-1231.05 -102.85,61.42 -172.43,138.34 -224.24,244.07l-1243.11 2520.17c-86.69,173.71 -61.36,145.14 -218.56,249.76 -103.12,68.62 -190.62,125.52 -291.22,193.82 -353.88,240.28 -536.78,323.94 -705.62,699.34 -38.67,85.99 -83.62,278.11 -83.62,401.43z"/>
   <path class="fil0" d="M3551.23 4246.31c0,132.94 122.82,150.54 217.43,150.54 46.18,0 153.96,-117.09 384.7,-117.09 275.3,0 535.22,244.61 535.22,518.5 0,532.86 -374.77,450.46 -305.46,688.57 76.79,263.82 367.41,67.3 511.73,-164.51 409.22,-657.34 -121.03,-1377.07 -708.04,-1377.07 -195.25,0 -258.25,-4.54 -446.27,88.95 -91.64,45.56 -189.3,81.93 -189.3,212.11z"/>
   <path class="fil0" d="M6361.15 3326.39c0,103.79 24.52,217.43 167.26,217.43 76.71,0 637.02,-385.65 735.92,-451.59 118.22,-78.82 236.56,-165.12 362.63,-239.5 108.79,-64.18 303.52,-176.28 178.06,-334.42 -124.45,-156.85 -268.89,-12.53 -383.25,62.32l-910.11 595.21c-45.52,30.13 -150.52,81.36 -150.52,150.55z"/>
   <path class="fil0" d="M6628.76 4447.02c0,185.28 170.41,183.72 280.02,205.02 168.95,32.82 1137.23,213.13 1242.02,213.13 164.2,0 215.43,-269.86 43.33,-327.67l-1414.83 -241c-82.67,0 -150.53,67.85 -150.53,150.53z"/>
   <path class="fil0" d="M5675.39 2791.17c181.29,0 186.42,-150.47 203.54,-314.96 15.57,-149.52 136.85,-1077.94 103.57,-1162.73 -50.32,-128.22 -235.2,-155.47 -307.18,-10.96 -30.02,60.29 -160.47,1298.06 -141.8,1362.11 26.82,91.96 138.9,126.54 141.86,126.54z"/>
  </g>
 </g>
</svg>
