<?xml version="1.0" encoding="UTF-8"?>
<!DOCTYPE svg PUBLIC "-//W3C//DTD SVG 1.1//EN" "http://www.w3.org/Graphics/SVG/1.1/DTD/svg11.dtd">
<!-- Creator: CorelDRAW -->
<svg xmlns="http://www.w3.org/2000/svg" xml:space="preserve" width="8.5in" height="11in" version="1.1" style="shape-rendering:geometricPrecision; text-rendering:geometricPrecision; image-rendering:optimizeQuality; fill-rule:evenodd; clip-rule:evenodd"
viewBox="0 0 8500 11000"
 xmlns:xlink="http://www.w3.org/1999/xlink"
 xmlns:xodm="http://www.corel.com/coreldraw/odm/2003">
 <defs>
  <style type="text/css">
   <![CDATA[
    .fil0 {fill:#0D4157}
   ]]>
  </style>
 </defs>
 <g id="Layer_x0020_1">
  <metadata id="CorelCorpID_0Corel-Layer"/>
  <g id="_2614138163024">
   <path class="fil0" d="M570.65 7453l556.23 -548.35c111.26,-111.67 193.31,-196.01 339.68,-47.75l1104.15 1104.99c387.17,387.16 280.62,325.69 -86.79,694.3 -88.38,88.67 -280.04,300.85 -366.87,358.99 -91.53,-61.3 -296.81,-288.93 -390.55,-382.66 -124.42,-124.42 -274.66,-259.17 -384.13,-389.07l-43.07 -51.61c-155.51,-178.23 -647.73,-618.02 -728.65,-738.85zm7684.67 -2288.04l0 126.06c-1.31,333.96 -26.53,309.69 -399.37,752.72 -78.06,92.74 -147.26,170.38 -222.75,266.42l-338.22 403.41c-201.31,249.29 -583.84,734.25 -806.7,881.72 -167.78,111.01 -463.21,236.66 -741.37,236.97l-1957.21 -0.54c-192.33,-0 -300.35,-8.38 -425.89,63.28 -111.26,63.5 -159.16,158.16 -252.64,220.76 45.72,196.23 29.16,300.49 -71.97,448.75 -60.74,89.07 -466,460.05 -586.82,580.87 -89.3,89.3 -232.02,264.31 -319.54,264.31 -135.38,0 -201.66,-114.87 -303.76,-216.97l-725.86 -725.87c-44.94,-44.94 -83.58,-80.13 -125.98,-126.5l-355.3 -370.56c-289.07,-289.07 -431.22,-398.33 -445.78,-492.31l0 -31.94c11.31,-72.71 99.83,-147.58 256.42,-304.18l552.01 -552.56c146.31,-137.41 257.86,-129.91 422.38,-129.91 447.62,-845.96 1541.84,-1244.21 2512.84,-871.77 120.28,46.13 1460.03,19.96 1700.31,19.66 453.72,-0.56 465.8,127.09 615.4,236.7l690.36 -714.03c274.1,-274.1 457.35,-546.67 888.35,-438.64 208.75,52.32 441.07,276.96 441.07,474.14zm-5333.5 2682.53l-1234.72 -1226.89c268.53,-500.67 813.83,-840.24 1408.3,-840.24 245.28,0 434.95,8.75 664.86,92.56 52.24,19.04 90.87,41.02 149.2,55.93 240.26,61.39 1820.89,-47.89 1978.73,41.06 256.19,144.37 188.66,549.57 -95.9,582.23 -195.14,22.4 -1257.34,-17.24 -1365.95,6.87 -191.8,42.59 -169.91,325.91 26.1,325.91l1278.15 0c348.26,0 589.12,-249.59 641.01,-542.45 16.61,-93.74 -15.28,-135.06 29.65,-207.05l934.91 -958.64c70,-70.01 159.13,-185.41 287.98,-185.41 191.44,0 331.37,119.46 331.37,315.59 0,170.36 -253.51,408.09 -380.92,565.85l-862.15 1031.4c-153.28,175.79 -260.36,354.33 -481.96,464.81 -297.72,148.42 -391.63,131.3 -815.48,131.3 -333.08,0 -1668.96,-18.07 -1882.64,10.91 -423.17,57.37 -466.97,240.11 -610.54,336.24z"/>
   <path class="fil0" d="M3474.09 3050.49c0,-784.69 666.24,-1420.17 1420.17,-1420.17 204.25,0 400.6,54.22 579.61,130.48 285.32,121.54 592.67,412.61 712.33,707.84 197.26,486.68 169.89,943.65 -117.87,1377.2 -380.65,573.5 -1169,795.72 -1779.07,488.18 -142.05,-71.6 -202.79,-110.97 -315.09,-205.63 -39.91,-33.63 -56.01,-39.32 -94.28,-79.29 -101.18,-105.64 -220.18,-282.99 -279.36,-414.94 -68.81,-153.4 -126.42,-362.15 -126.42,-583.67zm-315.59 -94.67c0,366.65 7.87,536.54 178.78,878.46 144.74,289.55 327.2,489.8 584.97,661.61 97.3,64.86 162.73,100.74 272.18,153.87 406.43,197.34 982.01,196.03 1389.07,5.19 376.46,-176.48 671.28,-425.81 862.5,-810.14 242.79,-488 250.6,-1054.2 21.24,-1546.76 -46.49,-99.83 -170.94,-289.97 -243.64,-371.77 -311.3,-350.31 -761.3,-611.55 -1250.45,-611.55 -411.42,0 -756.61,72.94 -1077.8,310.8 -226.84,167.99 -443.11,404.35 -568.98,661.83 -81.07,165.83 -167.87,430.23 -167.87,668.45z"/>
   <path class="fil0" d="M4704.91 2293.07c-148.51,34.6 -315.59,214.48 -315.59,394.49 0,198.98 44.42,355.04 231.04,463.26 101.91,59.09 106.44,42.24 236.31,63.5 40.99,6.71 78.37,16.48 104.27,37.74 123.09,101.02 19.4,271.81 -82.46,271.81 -195.57,0 -181.39,-173.57 -347.15,-173.57 -140.33,0 -294.32,202.98 56.43,416.95 44.58,27.2 74.91,34.09 117.15,56.44 0,89.35 -44.23,345.25 157.68,340.67 203.74,-4.62 157.91,-248.19 157.91,-340.67 92.3,-48.83 108.79,-45.56 187.95,-127.64 0.48,-0.51 18.82,-20.67 22.51,-24.83 175.03,-197.84 142.28,-555.55 -131.9,-715.06 -170.04,-98.93 -394.15,-24.68 -394.15,-221.26 0,-91.48 95.94,-161.15 181.27,-149.39 136.39,18.8 109.52,117.83 276.34,117.83 99.39,0 248.77,-145.9 35.49,-319.52 -48.12,-39.18 -103.34,-84.57 -177.51,-90.75 0,-229.56 25.34,-347.15 -173.58,-347.15 -169.87,0 -142.01,179.13 -142.01,347.15z"/>
   <path class="fil0" d="M3631.89 6679.8c0,220.09 315.59,247.94 315.59,0 0,-190.62 -315.59,-190.62 -315.59,0z"/>
  </g>
 </g>
</svg>
